M48
; DRILL file {KiCad 5.1.5+dfsg1-2} date Sat 29 Feb 2020 02:03:05 PM EET
; FORMAT={-:-/ absolute / inch / decimal}
; #@! TF.CreationDate,2020-02-29T14:03:05+02:00
; #@! TF.GenerationSoftware,Kicad,Pcbnew,5.1.5+dfsg1-2
FMAT,2
INCH
T1C0.0118
T2C0.0276
T3C0.0315
T4C0.0394
%
G90
G05
T1
X7.5921Y-2.8866
X7.5953Y-2.7776
X7.5969Y-2.4894
X7.598Y-2.6555
X7.6Y-2.2276
X7.6028Y-1.8776
X7.6028Y-2.3697
X7.6075Y-2.0508
X7.6161Y-3.1559
X7.6224Y-3.2953
X7.6256Y-3.2114
X7.6441Y-1.7902
X7.66Y-2.18
X7.679Y-3.31
X7.68Y-3.16
X7.6803Y-2.9634
X7.6811Y-2.3492
X7.6937Y-3.8417
X7.6957Y-3.7748
X7.7087Y-3.6524
X7.7197Y-2.9835
X7.7339Y-3.8799
X7.7346Y-2.7079
X7.76Y-3.82
X7.77Y-3.7
X7.7791Y-4.3783
X7.7799Y-3.1252
X7.7799Y-3.2807
X7.7839Y-3.0165
X7.7843Y-3.2354
X7.7886Y-4.2453
X7.7961Y-4.0839
X7.7972Y-3.8673
X7.798Y-3.1689
X7.8035Y-2.7976
X7.8199Y-3.9609
X7.8319Y-2.9583
X7.8335Y-4.313
X7.85Y-3.7
X7.8606Y-4.0484
X7.8673Y-2.9787
X7.887Y-3.5256
X7.9295Y-3.2098
X7.93Y-3.69
X7.9323Y-2.9835
X7.9331Y-4.0413
X7.9346Y-3.8287
X7.9354Y-3.1465
X7.9358Y-3.9358
X7.9697Y-2.9421
X7.9736Y-3.985
X7.9748Y-3.7154
X7.9823Y-4.152
X7.9854Y-4.2051
X7.9858Y-3.8484
X7.9894Y-3.637
X7.9953Y-2.7858
X8.0Y-4.3
X8.01Y-3.28
X8.011Y-3.0051
X8.0114Y-2.8496
X8.0202Y-4.3202
X8.0283Y-4.2039
X8.0295Y-4.0461
X8.03Y-3.45
X8.0303Y-4.1559
X8.0362Y-3.6098
X8.0386Y-3.9102
X8.04Y-3.5
X8.04Y-3.72
X8.04Y-4.29
X8.052Y-2.9673
X8.0547Y-3.0488
X8.07Y-4.31
X8.0709Y-2.8244
X8.0894Y-3.302
X8.0976Y-3.9736
X8.1024Y-2.3343
X8.111Y-4.0807
X8.12Y-4.18
X8.1268Y-2.7701
X8.1307Y-2.6276
X8.1339Y-4.0083
X8.135Y-2.1315
X8.1394Y-2.9205
X8.1465Y-2.4122
X8.1488Y-2.9925
X8.1535Y-4.0535
X8.1563Y-4.1079
X8.1618Y-2.5051
X8.165Y-3.3004
X8.1673Y-3.45
X8.1693Y-2.737
X8.1709Y-3.9319
X8.1803Y-2.8579
X8.1925Y-3.5906
X8.1945Y-2.5807
X8.2083Y-2.3406
X8.2142Y-3.5
X8.2146Y-2.411
X8.2146Y-2.6764
X8.2197Y-2.078
X8.22Y-4.14
X8.2248Y-3.4236
X8.23Y-3.34
X8.23Y-4.19
X8.2358Y-2.261
X8.2386Y-2.5445
X8.2421Y-2.3268
X8.2433Y-2.4461
X8.2492Y-4.3354
X8.25Y-2.73
X8.25Y-2.837
X8.26Y-3.79
X8.261Y-3.5
X8.2677Y-4.0945
X8.274Y-2.9236
X8.274Y-3.1114
X8.2772Y-4.5079
X8.2835Y-3.9913
X8.2862Y-2.387
X8.29Y-3.71
X8.29Y-3.86
X8.2929Y-3.1835
X8.3004Y-4.4012
X8.3091Y-2.163
X8.3091Y-2.3142
X8.3126Y-2.5016
X8.3201Y-2.7331
X8.3201Y-2.8161
X8.3291Y-2.1831
X8.33Y-3.41
X8.3354Y-2.6173
X8.3366Y-4.085
X8.3398Y-3.6122
X8.34Y-3.68
X8.3535Y-3.3138
X8.3571Y-1.8591
X8.3583Y-3.5
X8.3587Y-3.1335
X8.3606Y-2.8035
X8.3618Y-2.9425
X8.3626Y-3.0287
X8.3728Y-2.3142
X8.3728Y-4.4098
X8.3732Y-2.5594
X8.3744Y-2.2197
X8.3904Y-2.6722
X8.3961Y-3.2504
X8.4012Y-1.7618
X8.41Y-3.78
X8.424Y-3.5
X8.4307Y-3.437
X8.4307Y-3.7031
X8.4402Y-2.5138
X8.4429Y-2.8894
X8.4433Y-3.0362
X8.4524Y-2.9799
X8.46Y-4.09
X8.4618Y-3.2303
X8.465Y-3.5559
X8.4681Y-3.8815
X8.476Y-4.452
X8.487Y-2.8921
X8.53Y-2.9094
X8.5465Y-3.822
X8.5787Y-2.9555
X8.5925Y-4.3618
X8.6122Y-3.0642
X8.6154Y-2.9224
X8.62Y-4.09
X8.6394Y-3.0886
X8.6559Y-2.9783
X8.6591Y-3.6906
X8.6618Y-3.2295
X8.6618Y-3.4256
X8.6772Y-2.9437
X8.6819Y-3.502
X8.6906Y-3.0874
X8.7264Y-3.4366
X8.7283Y-2.9768
X8.748Y-2.8846
X8.7524Y-3.3425
X8.7693Y-4.4106
X8.772Y-2.998
X8.7783Y-3.5173
X8.7835Y-3.976
X8.7839Y-3.6976
X8.7858Y-2.8335
X8.7965Y-3.1008
X8.8028Y-2.3358
X8.8205Y-1.7492
X8.83Y-3.61
X8.8311Y-2.9102
X8.8311Y-3.072
X8.8354Y-3.3382
X8.8386Y-2.9917
X8.8516Y-3.4366
X8.8567Y-3.7287
X8.8598Y-2.8075
X8.8657Y-4.2295
X8.876Y-3.2799
X8.8811Y-3.1626
X8.9051Y-1.8244
X8.9283Y-2.537
X8.935Y-3.7445
X8.9457Y-4.1776
X8.9531Y-3.3634
X8.9587Y-3.6583
X8.9587Y-4.0079
X8.9594Y-2.7941
X8.9677Y-1.9311
X8.9717Y-3.5878
X8.9744Y-3.1673
X8.9898Y-3.922
X9.0055Y-3.4886
X9.0079Y-2.8484
X9.0094Y-2.7457
X9.0098Y-2.4913
X9.0358Y-4.2528
X9.0429Y-2.1626
X9.0449Y-3.3925
X9.0583Y-2.6591
X9.0862Y-4.1724
X9.0984Y-2.4362
X9.1299Y-4.3429
X9.1465Y-4.4437
X9.1469Y-4.2512
X9.1622Y-4.0193
X9.163Y-4.1681
X9.17Y-3.59
X9.1701Y-3.9244
X9.1721Y-3.6591
X9.2362Y-4.3039
X9.2366Y-3.4303
X9.2374Y-4.222
X9.2457Y-4.4567
X9.2535Y-3.7992
X9.2551Y-4.3795
X9.2831Y-2.5878
X9.2902Y-4.3193
X9.2921Y-2.3961
X9.3028Y-3.9063
X9.3209Y-3.6197
X9.3449Y-4.4437
X9.3677Y-2.5382
X9.4035Y-3.9646
X9.4492Y-3.8228
X9.4583Y-4.3047
X9.4961Y-2.5654
X9.4976Y-2.4051
X9.6291Y-3.9846
X9.635Y-3.3177
X9.6421Y-3.8252
X9.6803Y-2.4461
X9.6969Y-4.0055
X9.7252Y-3.4303
X9.74Y-4.39
X9.7437Y-3.2012
X9.7437Y-4.1984
X9.7594Y-4.2791
X9.7622Y-4.128
X9.8484Y-3.8331
X9.8902Y-3.4315
X9.8906Y-3.3063
X9.9319Y-3.6402
X9.9398Y-3.7654
X9.9413Y-2.9441
X9.9445Y-2.7614
X9.9528Y-3.4886
X9.9701Y-3.0756
T2
X7.66Y-2.85
X7.66Y-2.9
X7.71Y-2.85
X7.71Y-2.9
X7.76Y-2.85
X7.76Y-2.9
X7.81Y-2.85
X7.81Y-2.9
X7.86Y-2.85
X7.86Y-2.9
T3
X7.8907Y-4.4931
X7.9045Y-4.3738
X8.0955Y-4.3738
X8.1092Y-4.4931
T4
X9.66Y-4.27
X9.66Y-4.37
X8.53Y-3.03
X8.53Y-3.13
X8.53Y-3.23
X8.53Y-3.33
X8.53Y-3.43
X8.53Y-3.53
X8.53Y-3.63
X8.53Y-3.73
X7.6503Y-3.0617
X7.7503Y-3.0617
X7.8503Y-3.0617
X7.9503Y-3.0617
X8.63Y-4.21
X8.73Y-4.21
T0
M30
