G04 #@! TF.GenerationSoftware,KiCad,Pcbnew,5.1.5+dfsg1-2*
G04 #@! TF.CreationDate,2020-01-23T00:33:11+02:00*
G04 #@! TF.ProjectId,nrf52-mesh,6e726635-322d-46d6-9573-682e6b696361,rev?*
G04 #@! TF.SameCoordinates,Original*
G04 #@! TF.FileFunction,Legend,Top*
G04 #@! TF.FilePolarity,Positive*
%FSLAX46Y46*%
G04 Gerber Fmt 4.6, Leading zero omitted, Abs format (unit mm)*
G04 Created by KiCad (PCBNEW 5.1.5+dfsg1-2) date 2020-01-23 00:33:11*
%MOMM*%
%LPD*%
G04 APERTURE LIST*
%ADD10C,0.120000*%
%ADD11C,0.150000*%
G04 APERTURE END LIST*
D10*
X195453000Y-84455000D02*
X195453000Y-83566000D01*
X195199000Y-74041000D02*
X195453000Y-74041000D01*
X195453000Y-74041000D02*
X195453000Y-74930000D01*
X195453000Y-84455000D02*
X195199000Y-84455000D01*
X181229000Y-74041000D02*
X182753000Y-74041000D01*
X182753000Y-74041000D02*
X182753000Y-73406000D01*
X182753000Y-73406000D02*
X183642000Y-73406000D01*
X185801000Y-84455000D02*
X181229000Y-84455000D01*
X185790000Y-98160000D02*
X185790000Y-96830000D01*
X187120000Y-98160000D02*
X185790000Y-98160000D01*
X188390000Y-98160000D02*
X188390000Y-95500000D01*
X188390000Y-95500000D02*
X201150000Y-95500000D01*
X188390000Y-98160000D02*
X201150000Y-98160000D01*
X201150000Y-98160000D02*
X201150000Y-95500000D01*
X182058000Y-62036000D02*
X182058000Y-60706000D01*
X183388000Y-62036000D02*
X182058000Y-62036000D01*
X184658000Y-62036000D02*
X184658000Y-59376000D01*
X184658000Y-59376000D02*
X192338000Y-59376000D01*
X184658000Y-62036000D02*
X192338000Y-62036000D01*
X192338000Y-62036000D02*
X192338000Y-59376000D01*
X209864000Y-106994000D02*
X208534000Y-106994000D01*
X209864000Y-105664000D02*
X209864000Y-106994000D01*
X209864000Y-104394000D02*
X207204000Y-104394000D01*
X207204000Y-104394000D02*
X207204000Y-56074000D01*
X209864000Y-104394000D02*
X209864000Y-56074000D01*
X209864000Y-56074000D02*
X207204000Y-56074000D01*
D11*
X216422143Y-66931665D02*
X216469762Y-66979284D01*
X216517381Y-67122141D01*
X216517381Y-67217379D01*
X216469762Y-67360237D01*
X216374524Y-67455475D01*
X216279286Y-67503094D01*
X216088810Y-67550713D01*
X215945953Y-67550713D01*
X215755477Y-67503094D01*
X215660239Y-67455475D01*
X215565001Y-67360237D01*
X215517381Y-67217379D01*
X215517381Y-67122141D01*
X215565001Y-66979284D01*
X215612620Y-66931665D01*
X216517381Y-65979284D02*
X216517381Y-66550713D01*
X216517381Y-66264999D02*
X215517381Y-66264999D01*
X215660239Y-66360237D01*
X215755477Y-66455475D01*
X215803096Y-66550713D01*
X220668571Y-82245714D02*
X220716190Y-82102857D01*
X220763809Y-82055238D01*
X220859047Y-82007619D01*
X221001904Y-82007619D01*
X221097142Y-82055238D01*
X221144761Y-82102857D01*
X221192380Y-82198095D01*
X221192380Y-82579047D01*
X220192380Y-82579047D01*
X220192380Y-82245714D01*
X220240000Y-82150476D01*
X220287619Y-82102857D01*
X220382857Y-82055238D01*
X220478095Y-82055238D01*
X220573333Y-82102857D01*
X220620952Y-82150476D01*
X220668571Y-82245714D01*
X220668571Y-82579047D01*
X220192380Y-81721904D02*
X220192380Y-81150476D01*
X221192380Y-81436190D02*
X220192380Y-81436190D01*
X221192380Y-80293333D02*
X221192380Y-80864761D01*
X221192380Y-80579047D02*
X220192380Y-80579047D01*
X220335238Y-80674285D01*
X220430476Y-80769523D01*
X220478095Y-80864761D01*
X188468095Y-71715380D02*
X188468095Y-72524904D01*
X188515714Y-72620142D01*
X188563333Y-72667761D01*
X188658571Y-72715380D01*
X188849047Y-72715380D01*
X188944285Y-72667761D01*
X188991904Y-72620142D01*
X189039523Y-72524904D01*
X189039523Y-71715380D01*
X190039523Y-72715380D02*
X189468095Y-72715380D01*
X189753809Y-72715380D02*
X189753809Y-71715380D01*
X189658571Y-71858238D01*
X189563333Y-71953476D01*
X189468095Y-72001095D01*
X184242380Y-97163333D02*
X184956666Y-97163333D01*
X185099523Y-97210952D01*
X185194761Y-97306190D01*
X185242380Y-97449047D01*
X185242380Y-97544285D01*
X184242380Y-96782380D02*
X184242380Y-96163333D01*
X184623333Y-96496666D01*
X184623333Y-96353809D01*
X184670952Y-96258571D01*
X184718571Y-96210952D01*
X184813809Y-96163333D01*
X185051904Y-96163333D01*
X185147142Y-96210952D01*
X185194761Y-96258571D01*
X185242380Y-96353809D01*
X185242380Y-96639523D01*
X185194761Y-96734761D01*
X185147142Y-96782380D01*
X180510380Y-61039333D02*
X181224666Y-61039333D01*
X181367523Y-61086952D01*
X181462761Y-61182190D01*
X181510380Y-61325047D01*
X181510380Y-61420285D01*
X180605619Y-60610761D02*
X180558000Y-60563142D01*
X180510380Y-60467904D01*
X180510380Y-60229809D01*
X180558000Y-60134571D01*
X180605619Y-60086952D01*
X180700857Y-60039333D01*
X180796095Y-60039333D01*
X180938952Y-60086952D01*
X181510380Y-60658380D01*
X181510380Y-60039333D01*
X208200666Y-107446380D02*
X208200666Y-108160666D01*
X208153047Y-108303523D01*
X208057809Y-108398761D01*
X207914952Y-108446380D01*
X207819714Y-108446380D01*
X209200666Y-108446380D02*
X208629238Y-108446380D01*
X208914952Y-108446380D02*
X208914952Y-107446380D01*
X208819714Y-107589238D01*
X208724476Y-107684476D01*
X208629238Y-107732095D01*
X200227142Y-87336666D02*
X200274761Y-87384285D01*
X200322380Y-87527142D01*
X200322380Y-87622380D01*
X200274761Y-87765238D01*
X200179523Y-87860476D01*
X200084285Y-87908095D01*
X199893809Y-87955714D01*
X199750952Y-87955714D01*
X199560476Y-87908095D01*
X199465238Y-87860476D01*
X199370000Y-87765238D01*
X199322380Y-87622380D01*
X199322380Y-87527142D01*
X199370000Y-87384285D01*
X199417619Y-87336666D01*
X199417619Y-86955714D02*
X199370000Y-86908095D01*
X199322380Y-86812857D01*
X199322380Y-86574761D01*
X199370000Y-86479523D01*
X199417619Y-86431904D01*
X199512857Y-86384285D01*
X199608095Y-86384285D01*
X199750952Y-86431904D01*
X200322380Y-87003333D01*
X200322380Y-86384285D01*
M02*
