G04 #@! TF.GenerationSoftware,KiCad,Pcbnew,5.1.5+dfsg1-2*
G04 #@! TF.CreationDate,2020-01-23T00:33:11+02:00*
G04 #@! TF.ProjectId,nrf52-mesh,6e726635-322d-46d6-9573-682e6b696361,rev?*
G04 #@! TF.SameCoordinates,Original*
G04 #@! TF.FileFunction,Soldermask,Bot*
G04 #@! TF.FilePolarity,Negative*
%FSLAX46Y46*%
G04 Gerber Fmt 4.6, Leading zero omitted, Abs format (unit mm)*
G04 Created by KiCad (PCBNEW 5.1.5+dfsg1-2) date 2020-01-23 00:33:11*
%MOMM*%
%LPD*%
G04 APERTURE LIST*
%ADD10C,0.100000*%
%ADD11O,1.700000X1.700000*%
%ADD12R,1.700000X1.700000*%
G04 APERTURE END LIST*
D10*
G36*
X196056503Y-71137203D02*
G01*
X196080772Y-71140803D01*
X196104570Y-71146764D01*
X196127670Y-71155029D01*
X196149848Y-71165519D01*
X196170892Y-71178132D01*
X196190597Y-71192746D01*
X196208776Y-71209222D01*
X196225252Y-71227401D01*
X196239866Y-71247106D01*
X196252479Y-71268150D01*
X196262969Y-71290328D01*
X196271234Y-71313428D01*
X196277195Y-71337226D01*
X196280795Y-71361495D01*
X196281999Y-71385999D01*
X196281999Y-72135999D01*
X196280795Y-72160503D01*
X196277195Y-72184772D01*
X196271234Y-72208570D01*
X196262969Y-72231670D01*
X196252479Y-72253848D01*
X196239866Y-72274892D01*
X196225252Y-72294597D01*
X196208776Y-72312776D01*
X196190597Y-72329252D01*
X196170892Y-72343866D01*
X196149848Y-72356479D01*
X196127670Y-72366969D01*
X196104570Y-72375234D01*
X196080772Y-72381195D01*
X196056503Y-72384795D01*
X196031999Y-72385999D01*
X194781999Y-72385999D01*
X194757495Y-72384795D01*
X194733226Y-72381195D01*
X194709428Y-72375234D01*
X194686328Y-72366969D01*
X194664150Y-72356479D01*
X194643106Y-72343866D01*
X194623401Y-72329252D01*
X194605222Y-72312776D01*
X194588746Y-72294597D01*
X194574132Y-72274892D01*
X194561519Y-72253848D01*
X194551029Y-72231670D01*
X194542764Y-72208570D01*
X194536803Y-72184772D01*
X194533203Y-72160503D01*
X194531999Y-72135999D01*
X194531999Y-71385999D01*
X194533203Y-71361495D01*
X194536803Y-71337226D01*
X194542764Y-71313428D01*
X194551029Y-71290328D01*
X194561519Y-71268150D01*
X194574132Y-71247106D01*
X194588746Y-71227401D01*
X194605222Y-71209222D01*
X194623401Y-71192746D01*
X194643106Y-71178132D01*
X194664150Y-71165519D01*
X194686328Y-71155029D01*
X194709428Y-71146764D01*
X194733226Y-71140803D01*
X194757495Y-71137203D01*
X194781999Y-71135999D01*
X196031999Y-71135999D01*
X196056503Y-71137203D01*
G37*
G36*
X196056503Y-73937203D02*
G01*
X196080772Y-73940803D01*
X196104570Y-73946764D01*
X196127670Y-73955029D01*
X196149848Y-73965519D01*
X196170892Y-73978132D01*
X196190597Y-73992746D01*
X196208776Y-74009222D01*
X196225252Y-74027401D01*
X196239866Y-74047106D01*
X196252479Y-74068150D01*
X196262969Y-74090328D01*
X196271234Y-74113428D01*
X196277195Y-74137226D01*
X196280795Y-74161495D01*
X196281999Y-74185999D01*
X196281999Y-74935999D01*
X196280795Y-74960503D01*
X196277195Y-74984772D01*
X196271234Y-75008570D01*
X196262969Y-75031670D01*
X196252479Y-75053848D01*
X196239866Y-75074892D01*
X196225252Y-75094597D01*
X196208776Y-75112776D01*
X196190597Y-75129252D01*
X196170892Y-75143866D01*
X196149848Y-75156479D01*
X196127670Y-75166969D01*
X196104570Y-75175234D01*
X196080772Y-75181195D01*
X196056503Y-75184795D01*
X196031999Y-75185999D01*
X194781999Y-75185999D01*
X194757495Y-75184795D01*
X194733226Y-75181195D01*
X194709428Y-75175234D01*
X194686328Y-75166969D01*
X194664150Y-75156479D01*
X194643106Y-75143866D01*
X194623401Y-75129252D01*
X194605222Y-75112776D01*
X194588746Y-75094597D01*
X194574132Y-75074892D01*
X194561519Y-75053848D01*
X194551029Y-75031670D01*
X194542764Y-75008570D01*
X194536803Y-74984772D01*
X194533203Y-74960503D01*
X194531999Y-74935999D01*
X194531999Y-74185999D01*
X194533203Y-74161495D01*
X194536803Y-74137226D01*
X194542764Y-74113428D01*
X194551029Y-74090328D01*
X194561519Y-74068150D01*
X194574132Y-74047106D01*
X194588746Y-74027401D01*
X194605222Y-74009222D01*
X194623401Y-73992746D01*
X194643106Y-73978132D01*
X194664150Y-73965519D01*
X194686328Y-73955029D01*
X194709428Y-73946764D01*
X194733226Y-73940803D01*
X194757495Y-73937203D01*
X194781999Y-73935999D01*
X196031999Y-73935999D01*
X196056503Y-73937203D01*
G37*
G36*
X183246958Y-69750710D02*
G01*
X183261276Y-69752834D01*
X183275317Y-69756351D01*
X183288946Y-69761228D01*
X183302031Y-69767417D01*
X183314447Y-69774858D01*
X183326073Y-69783481D01*
X183336798Y-69793202D01*
X183346519Y-69803927D01*
X183355142Y-69815553D01*
X183362583Y-69827969D01*
X183368772Y-69841054D01*
X183373649Y-69854683D01*
X183377166Y-69868724D01*
X183379290Y-69883042D01*
X183380000Y-69897500D01*
X183380000Y-70192500D01*
X183379290Y-70206958D01*
X183377166Y-70221276D01*
X183373649Y-70235317D01*
X183368772Y-70248946D01*
X183362583Y-70262031D01*
X183355142Y-70274447D01*
X183346519Y-70286073D01*
X183336798Y-70296798D01*
X183326073Y-70306519D01*
X183314447Y-70315142D01*
X183302031Y-70322583D01*
X183288946Y-70328772D01*
X183275317Y-70333649D01*
X183261276Y-70337166D01*
X183246958Y-70339290D01*
X183232500Y-70340000D01*
X182887500Y-70340000D01*
X182873042Y-70339290D01*
X182858724Y-70337166D01*
X182844683Y-70333649D01*
X182831054Y-70328772D01*
X182817969Y-70322583D01*
X182805553Y-70315142D01*
X182793927Y-70306519D01*
X182783202Y-70296798D01*
X182773481Y-70286073D01*
X182764858Y-70274447D01*
X182757417Y-70262031D01*
X182751228Y-70248946D01*
X182746351Y-70235317D01*
X182742834Y-70221276D01*
X182740710Y-70206958D01*
X182740000Y-70192500D01*
X182740000Y-69897500D01*
X182740710Y-69883042D01*
X182742834Y-69868724D01*
X182746351Y-69854683D01*
X182751228Y-69841054D01*
X182757417Y-69827969D01*
X182764858Y-69815553D01*
X182773481Y-69803927D01*
X182783202Y-69793202D01*
X182793927Y-69783481D01*
X182805553Y-69774858D01*
X182817969Y-69767417D01*
X182831054Y-69761228D01*
X182844683Y-69756351D01*
X182858724Y-69752834D01*
X182873042Y-69750710D01*
X182887500Y-69750000D01*
X183232500Y-69750000D01*
X183246958Y-69750710D01*
G37*
G36*
X183246958Y-68780710D02*
G01*
X183261276Y-68782834D01*
X183275317Y-68786351D01*
X183288946Y-68791228D01*
X183302031Y-68797417D01*
X183314447Y-68804858D01*
X183326073Y-68813481D01*
X183336798Y-68823202D01*
X183346519Y-68833927D01*
X183355142Y-68845553D01*
X183362583Y-68857969D01*
X183368772Y-68871054D01*
X183373649Y-68884683D01*
X183377166Y-68898724D01*
X183379290Y-68913042D01*
X183380000Y-68927500D01*
X183380000Y-69222500D01*
X183379290Y-69236958D01*
X183377166Y-69251276D01*
X183373649Y-69265317D01*
X183368772Y-69278946D01*
X183362583Y-69292031D01*
X183355142Y-69304447D01*
X183346519Y-69316073D01*
X183336798Y-69326798D01*
X183326073Y-69336519D01*
X183314447Y-69345142D01*
X183302031Y-69352583D01*
X183288946Y-69358772D01*
X183275317Y-69363649D01*
X183261276Y-69367166D01*
X183246958Y-69369290D01*
X183232500Y-69370000D01*
X182887500Y-69370000D01*
X182873042Y-69369290D01*
X182858724Y-69367166D01*
X182844683Y-69363649D01*
X182831054Y-69358772D01*
X182817969Y-69352583D01*
X182805553Y-69345142D01*
X182793927Y-69336519D01*
X182783202Y-69326798D01*
X182773481Y-69316073D01*
X182764858Y-69304447D01*
X182757417Y-69292031D01*
X182751228Y-69278946D01*
X182746351Y-69265317D01*
X182742834Y-69251276D01*
X182740710Y-69236958D01*
X182740000Y-69222500D01*
X182740000Y-68927500D01*
X182740710Y-68913042D01*
X182742834Y-68898724D01*
X182746351Y-68884683D01*
X182751228Y-68871054D01*
X182757417Y-68857969D01*
X182764858Y-68845553D01*
X182773481Y-68833927D01*
X182783202Y-68823202D01*
X182793927Y-68813481D01*
X182805553Y-68804858D01*
X182817969Y-68797417D01*
X182831054Y-68791228D01*
X182844683Y-68786351D01*
X182858724Y-68782834D01*
X182873042Y-68780710D01*
X182887500Y-68780000D01*
X183232500Y-68780000D01*
X183246958Y-68780710D01*
G37*
G36*
X184149504Y-66566204D02*
G01*
X184173773Y-66569804D01*
X184197571Y-66575765D01*
X184220671Y-66584030D01*
X184242849Y-66594520D01*
X184263893Y-66607133D01*
X184283598Y-66621747D01*
X184301777Y-66638223D01*
X184318253Y-66656402D01*
X184332867Y-66676107D01*
X184345480Y-66697151D01*
X184355970Y-66719329D01*
X184364235Y-66742429D01*
X184370196Y-66766227D01*
X184373796Y-66790496D01*
X184375000Y-66815000D01*
X184375000Y-67565000D01*
X184373796Y-67589504D01*
X184370196Y-67613773D01*
X184364235Y-67637571D01*
X184355970Y-67660671D01*
X184345480Y-67682849D01*
X184332867Y-67703893D01*
X184318253Y-67723598D01*
X184301777Y-67741777D01*
X184283598Y-67758253D01*
X184263893Y-67772867D01*
X184242849Y-67785480D01*
X184220671Y-67795970D01*
X184197571Y-67804235D01*
X184173773Y-67810196D01*
X184149504Y-67813796D01*
X184125000Y-67815000D01*
X182875000Y-67815000D01*
X182850496Y-67813796D01*
X182826227Y-67810196D01*
X182802429Y-67804235D01*
X182779329Y-67795970D01*
X182757151Y-67785480D01*
X182736107Y-67772867D01*
X182716402Y-67758253D01*
X182698223Y-67741777D01*
X182681747Y-67723598D01*
X182667133Y-67703893D01*
X182654520Y-67682849D01*
X182644030Y-67660671D01*
X182635765Y-67637571D01*
X182629804Y-67613773D01*
X182626204Y-67589504D01*
X182625000Y-67565000D01*
X182625000Y-66815000D01*
X182626204Y-66790496D01*
X182629804Y-66766227D01*
X182635765Y-66742429D01*
X182644030Y-66719329D01*
X182654520Y-66697151D01*
X182667133Y-66676107D01*
X182681747Y-66656402D01*
X182698223Y-66638223D01*
X182716402Y-66621747D01*
X182736107Y-66607133D01*
X182757151Y-66594520D01*
X182779329Y-66584030D01*
X182802429Y-66575765D01*
X182826227Y-66569804D01*
X182850496Y-66566204D01*
X182875000Y-66565000D01*
X184125000Y-66565000D01*
X184149504Y-66566204D01*
G37*
G36*
X184149504Y-63766204D02*
G01*
X184173773Y-63769804D01*
X184197571Y-63775765D01*
X184220671Y-63784030D01*
X184242849Y-63794520D01*
X184263893Y-63807133D01*
X184283598Y-63821747D01*
X184301777Y-63838223D01*
X184318253Y-63856402D01*
X184332867Y-63876107D01*
X184345480Y-63897151D01*
X184355970Y-63919329D01*
X184364235Y-63942429D01*
X184370196Y-63966227D01*
X184373796Y-63990496D01*
X184375000Y-64015000D01*
X184375000Y-64765000D01*
X184373796Y-64789504D01*
X184370196Y-64813773D01*
X184364235Y-64837571D01*
X184355970Y-64860671D01*
X184345480Y-64882849D01*
X184332867Y-64903893D01*
X184318253Y-64923598D01*
X184301777Y-64941777D01*
X184283598Y-64958253D01*
X184263893Y-64972867D01*
X184242849Y-64985480D01*
X184220671Y-64995970D01*
X184197571Y-65004235D01*
X184173773Y-65010196D01*
X184149504Y-65013796D01*
X184125000Y-65015000D01*
X182875000Y-65015000D01*
X182850496Y-65013796D01*
X182826227Y-65010196D01*
X182802429Y-65004235D01*
X182779329Y-64995970D01*
X182757151Y-64985480D01*
X182736107Y-64972867D01*
X182716402Y-64958253D01*
X182698223Y-64941777D01*
X182681747Y-64923598D01*
X182667133Y-64903893D01*
X182654520Y-64882849D01*
X182644030Y-64860671D01*
X182635765Y-64837571D01*
X182629804Y-64813773D01*
X182626204Y-64789504D01*
X182625000Y-64765000D01*
X182625000Y-64015000D01*
X182626204Y-63990496D01*
X182629804Y-63966227D01*
X182635765Y-63942429D01*
X182644030Y-63919329D01*
X182654520Y-63897151D01*
X182667133Y-63876107D01*
X182681747Y-63856402D01*
X182698223Y-63838223D01*
X182716402Y-63821747D01*
X182736107Y-63807133D01*
X182757151Y-63794520D01*
X182779329Y-63784030D01*
X182802429Y-63775765D01*
X182826227Y-63769804D01*
X182850496Y-63766204D01*
X182875000Y-63765000D01*
X184125000Y-63765000D01*
X184149504Y-63766204D01*
G37*
G36*
X202071504Y-72912204D02*
G01*
X202095773Y-72915804D01*
X202119571Y-72921765D01*
X202142671Y-72930030D01*
X202164849Y-72940520D01*
X202185893Y-72953133D01*
X202205598Y-72967747D01*
X202223777Y-72984223D01*
X202240253Y-73002402D01*
X202254867Y-73022107D01*
X202267480Y-73043151D01*
X202277970Y-73065329D01*
X202286235Y-73088429D01*
X202292196Y-73112227D01*
X202295796Y-73136496D01*
X202297000Y-73161000D01*
X202297000Y-73911000D01*
X202295796Y-73935504D01*
X202292196Y-73959773D01*
X202286235Y-73983571D01*
X202277970Y-74006671D01*
X202267480Y-74028849D01*
X202254867Y-74049893D01*
X202240253Y-74069598D01*
X202223777Y-74087777D01*
X202205598Y-74104253D01*
X202185893Y-74118867D01*
X202164849Y-74131480D01*
X202142671Y-74141970D01*
X202119571Y-74150235D01*
X202095773Y-74156196D01*
X202071504Y-74159796D01*
X202047000Y-74161000D01*
X200797000Y-74161000D01*
X200772496Y-74159796D01*
X200748227Y-74156196D01*
X200724429Y-74150235D01*
X200701329Y-74141970D01*
X200679151Y-74131480D01*
X200658107Y-74118867D01*
X200638402Y-74104253D01*
X200620223Y-74087777D01*
X200603747Y-74069598D01*
X200589133Y-74049893D01*
X200576520Y-74028849D01*
X200566030Y-74006671D01*
X200557765Y-73983571D01*
X200551804Y-73959773D01*
X200548204Y-73935504D01*
X200547000Y-73911000D01*
X200547000Y-73161000D01*
X200548204Y-73136496D01*
X200551804Y-73112227D01*
X200557765Y-73088429D01*
X200566030Y-73065329D01*
X200576520Y-73043151D01*
X200589133Y-73022107D01*
X200603747Y-73002402D01*
X200620223Y-72984223D01*
X200638402Y-72967747D01*
X200658107Y-72953133D01*
X200679151Y-72940520D01*
X200701329Y-72930030D01*
X200724429Y-72921765D01*
X200748227Y-72915804D01*
X200772496Y-72912204D01*
X200797000Y-72911000D01*
X202047000Y-72911000D01*
X202071504Y-72912204D01*
G37*
G36*
X202071504Y-70112204D02*
G01*
X202095773Y-70115804D01*
X202119571Y-70121765D01*
X202142671Y-70130030D01*
X202164849Y-70140520D01*
X202185893Y-70153133D01*
X202205598Y-70167747D01*
X202223777Y-70184223D01*
X202240253Y-70202402D01*
X202254867Y-70222107D01*
X202267480Y-70243151D01*
X202277970Y-70265329D01*
X202286235Y-70288429D01*
X202292196Y-70312227D01*
X202295796Y-70336496D01*
X202297000Y-70361000D01*
X202297000Y-71111000D01*
X202295796Y-71135504D01*
X202292196Y-71159773D01*
X202286235Y-71183571D01*
X202277970Y-71206671D01*
X202267480Y-71228849D01*
X202254867Y-71249893D01*
X202240253Y-71269598D01*
X202223777Y-71287777D01*
X202205598Y-71304253D01*
X202185893Y-71318867D01*
X202164849Y-71331480D01*
X202142671Y-71341970D01*
X202119571Y-71350235D01*
X202095773Y-71356196D01*
X202071504Y-71359796D01*
X202047000Y-71361000D01*
X200797000Y-71361000D01*
X200772496Y-71359796D01*
X200748227Y-71356196D01*
X200724429Y-71350235D01*
X200701329Y-71341970D01*
X200679151Y-71331480D01*
X200658107Y-71318867D01*
X200638402Y-71304253D01*
X200620223Y-71287777D01*
X200603747Y-71269598D01*
X200589133Y-71249893D01*
X200576520Y-71228849D01*
X200566030Y-71206671D01*
X200557765Y-71183571D01*
X200551804Y-71159773D01*
X200548204Y-71135504D01*
X200547000Y-71111000D01*
X200547000Y-70361000D01*
X200548204Y-70336496D01*
X200551804Y-70312227D01*
X200557765Y-70288429D01*
X200566030Y-70265329D01*
X200576520Y-70243151D01*
X200589133Y-70222107D01*
X200603747Y-70202402D01*
X200620223Y-70184223D01*
X200638402Y-70167747D01*
X200658107Y-70153133D01*
X200679151Y-70140520D01*
X200701329Y-70130030D01*
X200724429Y-70121765D01*
X200748227Y-70115804D01*
X200772496Y-70112204D01*
X200797000Y-70111000D01*
X202047000Y-70111000D01*
X202071504Y-70112204D01*
G37*
G36*
X192673504Y-80024204D02*
G01*
X192697773Y-80027804D01*
X192721571Y-80033765D01*
X192744671Y-80042030D01*
X192766849Y-80052520D01*
X192787893Y-80065133D01*
X192807598Y-80079747D01*
X192825777Y-80096223D01*
X192842253Y-80114402D01*
X192856867Y-80134107D01*
X192869480Y-80155151D01*
X192879970Y-80177329D01*
X192888235Y-80200429D01*
X192894196Y-80224227D01*
X192897796Y-80248496D01*
X192899000Y-80273000D01*
X192899000Y-81023000D01*
X192897796Y-81047504D01*
X192894196Y-81071773D01*
X192888235Y-81095571D01*
X192879970Y-81118671D01*
X192869480Y-81140849D01*
X192856867Y-81161893D01*
X192842253Y-81181598D01*
X192825777Y-81199777D01*
X192807598Y-81216253D01*
X192787893Y-81230867D01*
X192766849Y-81243480D01*
X192744671Y-81253970D01*
X192721571Y-81262235D01*
X192697773Y-81268196D01*
X192673504Y-81271796D01*
X192649000Y-81273000D01*
X191399000Y-81273000D01*
X191374496Y-81271796D01*
X191350227Y-81268196D01*
X191326429Y-81262235D01*
X191303329Y-81253970D01*
X191281151Y-81243480D01*
X191260107Y-81230867D01*
X191240402Y-81216253D01*
X191222223Y-81199777D01*
X191205747Y-81181598D01*
X191191133Y-81161893D01*
X191178520Y-81140849D01*
X191168030Y-81118671D01*
X191159765Y-81095571D01*
X191153804Y-81071773D01*
X191150204Y-81047504D01*
X191149000Y-81023000D01*
X191149000Y-80273000D01*
X191150204Y-80248496D01*
X191153804Y-80224227D01*
X191159765Y-80200429D01*
X191168030Y-80177329D01*
X191178520Y-80155151D01*
X191191133Y-80134107D01*
X191205747Y-80114402D01*
X191222223Y-80096223D01*
X191240402Y-80079747D01*
X191260107Y-80065133D01*
X191281151Y-80052520D01*
X191303329Y-80042030D01*
X191326429Y-80033765D01*
X191350227Y-80027804D01*
X191374496Y-80024204D01*
X191399000Y-80023000D01*
X192649000Y-80023000D01*
X192673504Y-80024204D01*
G37*
G36*
X192673504Y-77224204D02*
G01*
X192697773Y-77227804D01*
X192721571Y-77233765D01*
X192744671Y-77242030D01*
X192766849Y-77252520D01*
X192787893Y-77265133D01*
X192807598Y-77279747D01*
X192825777Y-77296223D01*
X192842253Y-77314402D01*
X192856867Y-77334107D01*
X192869480Y-77355151D01*
X192879970Y-77377329D01*
X192888235Y-77400429D01*
X192894196Y-77424227D01*
X192897796Y-77448496D01*
X192899000Y-77473000D01*
X192899000Y-78223000D01*
X192897796Y-78247504D01*
X192894196Y-78271773D01*
X192888235Y-78295571D01*
X192879970Y-78318671D01*
X192869480Y-78340849D01*
X192856867Y-78361893D01*
X192842253Y-78381598D01*
X192825777Y-78399777D01*
X192807598Y-78416253D01*
X192787893Y-78430867D01*
X192766849Y-78443480D01*
X192744671Y-78453970D01*
X192721571Y-78462235D01*
X192697773Y-78468196D01*
X192673504Y-78471796D01*
X192649000Y-78473000D01*
X191399000Y-78473000D01*
X191374496Y-78471796D01*
X191350227Y-78468196D01*
X191326429Y-78462235D01*
X191303329Y-78453970D01*
X191281151Y-78443480D01*
X191260107Y-78430867D01*
X191240402Y-78416253D01*
X191222223Y-78399777D01*
X191205747Y-78381598D01*
X191191133Y-78361893D01*
X191178520Y-78340849D01*
X191168030Y-78318671D01*
X191159765Y-78295571D01*
X191153804Y-78271773D01*
X191150204Y-78247504D01*
X191149000Y-78223000D01*
X191149000Y-77473000D01*
X191150204Y-77448496D01*
X191153804Y-77424227D01*
X191159765Y-77400429D01*
X191168030Y-77377329D01*
X191178520Y-77355151D01*
X191191133Y-77334107D01*
X191205747Y-77314402D01*
X191222223Y-77296223D01*
X191240402Y-77279747D01*
X191260107Y-77265133D01*
X191281151Y-77252520D01*
X191303329Y-77242030D01*
X191326429Y-77233765D01*
X191350227Y-77227804D01*
X191374496Y-77224204D01*
X191399000Y-77223000D01*
X192649000Y-77223000D01*
X192673504Y-77224204D01*
G37*
G36*
X198854142Y-61314174D02*
G01*
X198877803Y-61317684D01*
X198901007Y-61323496D01*
X198923529Y-61331554D01*
X198945153Y-61341782D01*
X198965670Y-61354079D01*
X198984883Y-61368329D01*
X199002607Y-61384393D01*
X199018671Y-61402117D01*
X199032921Y-61421330D01*
X199045218Y-61441847D01*
X199055446Y-61463471D01*
X199063504Y-61485993D01*
X199069316Y-61509197D01*
X199072826Y-61532858D01*
X199074000Y-61556750D01*
X199074000Y-62044250D01*
X199072826Y-62068142D01*
X199069316Y-62091803D01*
X199063504Y-62115007D01*
X199055446Y-62137529D01*
X199045218Y-62159153D01*
X199032921Y-62179670D01*
X199018671Y-62198883D01*
X199002607Y-62216607D01*
X198984883Y-62232671D01*
X198965670Y-62246921D01*
X198945153Y-62259218D01*
X198923529Y-62269446D01*
X198901007Y-62277504D01*
X198877803Y-62283316D01*
X198854142Y-62286826D01*
X198830250Y-62288000D01*
X197917750Y-62288000D01*
X197893858Y-62286826D01*
X197870197Y-62283316D01*
X197846993Y-62277504D01*
X197824471Y-62269446D01*
X197802847Y-62259218D01*
X197782330Y-62246921D01*
X197763117Y-62232671D01*
X197745393Y-62216607D01*
X197729329Y-62198883D01*
X197715079Y-62179670D01*
X197702782Y-62159153D01*
X197692554Y-62137529D01*
X197684496Y-62115007D01*
X197678684Y-62091803D01*
X197675174Y-62068142D01*
X197674000Y-62044250D01*
X197674000Y-61556750D01*
X197675174Y-61532858D01*
X197678684Y-61509197D01*
X197684496Y-61485993D01*
X197692554Y-61463471D01*
X197702782Y-61441847D01*
X197715079Y-61421330D01*
X197729329Y-61402117D01*
X197745393Y-61384393D01*
X197763117Y-61368329D01*
X197782330Y-61354079D01*
X197802847Y-61341782D01*
X197824471Y-61331554D01*
X197846993Y-61323496D01*
X197870197Y-61317684D01*
X197893858Y-61314174D01*
X197917750Y-61313000D01*
X198830250Y-61313000D01*
X198854142Y-61314174D01*
G37*
G36*
X198854142Y-63189174D02*
G01*
X198877803Y-63192684D01*
X198901007Y-63198496D01*
X198923529Y-63206554D01*
X198945153Y-63216782D01*
X198965670Y-63229079D01*
X198984883Y-63243329D01*
X199002607Y-63259393D01*
X199018671Y-63277117D01*
X199032921Y-63296330D01*
X199045218Y-63316847D01*
X199055446Y-63338471D01*
X199063504Y-63360993D01*
X199069316Y-63384197D01*
X199072826Y-63407858D01*
X199074000Y-63431750D01*
X199074000Y-63919250D01*
X199072826Y-63943142D01*
X199069316Y-63966803D01*
X199063504Y-63990007D01*
X199055446Y-64012529D01*
X199045218Y-64034153D01*
X199032921Y-64054670D01*
X199018671Y-64073883D01*
X199002607Y-64091607D01*
X198984883Y-64107671D01*
X198965670Y-64121921D01*
X198945153Y-64134218D01*
X198923529Y-64144446D01*
X198901007Y-64152504D01*
X198877803Y-64158316D01*
X198854142Y-64161826D01*
X198830250Y-64163000D01*
X197917750Y-64163000D01*
X197893858Y-64161826D01*
X197870197Y-64158316D01*
X197846993Y-64152504D01*
X197824471Y-64144446D01*
X197802847Y-64134218D01*
X197782330Y-64121921D01*
X197763117Y-64107671D01*
X197745393Y-64091607D01*
X197729329Y-64073883D01*
X197715079Y-64054670D01*
X197702782Y-64034153D01*
X197692554Y-64012529D01*
X197684496Y-63990007D01*
X197678684Y-63966803D01*
X197675174Y-63943142D01*
X197674000Y-63919250D01*
X197674000Y-63431750D01*
X197675174Y-63407858D01*
X197678684Y-63384197D01*
X197684496Y-63360993D01*
X197692554Y-63338471D01*
X197702782Y-63316847D01*
X197715079Y-63296330D01*
X197729329Y-63277117D01*
X197745393Y-63259393D01*
X197763117Y-63243329D01*
X197782330Y-63229079D01*
X197802847Y-63216782D01*
X197824471Y-63206554D01*
X197846993Y-63198496D01*
X197870197Y-63192684D01*
X197893858Y-63189174D01*
X197917750Y-63188000D01*
X198830250Y-63188000D01*
X198854142Y-63189174D01*
G37*
G36*
X188460142Y-76406174D02*
G01*
X188483803Y-76409684D01*
X188507007Y-76415496D01*
X188529529Y-76423554D01*
X188551153Y-76433782D01*
X188571670Y-76446079D01*
X188590883Y-76460329D01*
X188608607Y-76476393D01*
X188624671Y-76494117D01*
X188638921Y-76513330D01*
X188651218Y-76533847D01*
X188661446Y-76555471D01*
X188669504Y-76577993D01*
X188675316Y-76601197D01*
X188678826Y-76624858D01*
X188680000Y-76648750D01*
X188680000Y-77136250D01*
X188678826Y-77160142D01*
X188675316Y-77183803D01*
X188669504Y-77207007D01*
X188661446Y-77229529D01*
X188651218Y-77251153D01*
X188638921Y-77271670D01*
X188624671Y-77290883D01*
X188608607Y-77308607D01*
X188590883Y-77324671D01*
X188571670Y-77338921D01*
X188551153Y-77351218D01*
X188529529Y-77361446D01*
X188507007Y-77369504D01*
X188483803Y-77375316D01*
X188460142Y-77378826D01*
X188436250Y-77380000D01*
X187523750Y-77380000D01*
X187499858Y-77378826D01*
X187476197Y-77375316D01*
X187452993Y-77369504D01*
X187430471Y-77361446D01*
X187408847Y-77351218D01*
X187388330Y-77338921D01*
X187369117Y-77324671D01*
X187351393Y-77308607D01*
X187335329Y-77290883D01*
X187321079Y-77271670D01*
X187308782Y-77251153D01*
X187298554Y-77229529D01*
X187290496Y-77207007D01*
X187284684Y-77183803D01*
X187281174Y-77160142D01*
X187280000Y-77136250D01*
X187280000Y-76648750D01*
X187281174Y-76624858D01*
X187284684Y-76601197D01*
X187290496Y-76577993D01*
X187298554Y-76555471D01*
X187308782Y-76533847D01*
X187321079Y-76513330D01*
X187335329Y-76494117D01*
X187351393Y-76476393D01*
X187369117Y-76460329D01*
X187388330Y-76446079D01*
X187408847Y-76433782D01*
X187430471Y-76423554D01*
X187452993Y-76415496D01*
X187476197Y-76409684D01*
X187499858Y-76406174D01*
X187523750Y-76405000D01*
X188436250Y-76405000D01*
X188460142Y-76406174D01*
G37*
G36*
X188460142Y-78281174D02*
G01*
X188483803Y-78284684D01*
X188507007Y-78290496D01*
X188529529Y-78298554D01*
X188551153Y-78308782D01*
X188571670Y-78321079D01*
X188590883Y-78335329D01*
X188608607Y-78351393D01*
X188624671Y-78369117D01*
X188638921Y-78388330D01*
X188651218Y-78408847D01*
X188661446Y-78430471D01*
X188669504Y-78452993D01*
X188675316Y-78476197D01*
X188678826Y-78499858D01*
X188680000Y-78523750D01*
X188680000Y-79011250D01*
X188678826Y-79035142D01*
X188675316Y-79058803D01*
X188669504Y-79082007D01*
X188661446Y-79104529D01*
X188651218Y-79126153D01*
X188638921Y-79146670D01*
X188624671Y-79165883D01*
X188608607Y-79183607D01*
X188590883Y-79199671D01*
X188571670Y-79213921D01*
X188551153Y-79226218D01*
X188529529Y-79236446D01*
X188507007Y-79244504D01*
X188483803Y-79250316D01*
X188460142Y-79253826D01*
X188436250Y-79255000D01*
X187523750Y-79255000D01*
X187499858Y-79253826D01*
X187476197Y-79250316D01*
X187452993Y-79244504D01*
X187430471Y-79236446D01*
X187408847Y-79226218D01*
X187388330Y-79213921D01*
X187369117Y-79199671D01*
X187351393Y-79183607D01*
X187335329Y-79165883D01*
X187321079Y-79146670D01*
X187308782Y-79126153D01*
X187298554Y-79104529D01*
X187290496Y-79082007D01*
X187284684Y-79058803D01*
X187281174Y-79035142D01*
X187280000Y-79011250D01*
X187280000Y-78523750D01*
X187281174Y-78499858D01*
X187284684Y-78476197D01*
X187290496Y-78452993D01*
X187298554Y-78430471D01*
X187308782Y-78408847D01*
X187321079Y-78388330D01*
X187335329Y-78369117D01*
X187351393Y-78351393D01*
X187369117Y-78335329D01*
X187388330Y-78321079D01*
X187408847Y-78308782D01*
X187430471Y-78298554D01*
X187452993Y-78290496D01*
X187476197Y-78284684D01*
X187499858Y-78281174D01*
X187523750Y-78280000D01*
X188436250Y-78280000D01*
X188460142Y-78281174D01*
G37*
G36*
X195806142Y-66902174D02*
G01*
X195829803Y-66905684D01*
X195853007Y-66911496D01*
X195875529Y-66919554D01*
X195897153Y-66929782D01*
X195917670Y-66942079D01*
X195936883Y-66956329D01*
X195954607Y-66972393D01*
X195970671Y-66990117D01*
X195984921Y-67009330D01*
X195997218Y-67029847D01*
X196007446Y-67051471D01*
X196015504Y-67073993D01*
X196021316Y-67097197D01*
X196024826Y-67120858D01*
X196026000Y-67144750D01*
X196026000Y-67632250D01*
X196024826Y-67656142D01*
X196021316Y-67679803D01*
X196015504Y-67703007D01*
X196007446Y-67725529D01*
X195997218Y-67747153D01*
X195984921Y-67767670D01*
X195970671Y-67786883D01*
X195954607Y-67804607D01*
X195936883Y-67820671D01*
X195917670Y-67834921D01*
X195897153Y-67847218D01*
X195875529Y-67857446D01*
X195853007Y-67865504D01*
X195829803Y-67871316D01*
X195806142Y-67874826D01*
X195782250Y-67876000D01*
X194869750Y-67876000D01*
X194845858Y-67874826D01*
X194822197Y-67871316D01*
X194798993Y-67865504D01*
X194776471Y-67857446D01*
X194754847Y-67847218D01*
X194734330Y-67834921D01*
X194715117Y-67820671D01*
X194697393Y-67804607D01*
X194681329Y-67786883D01*
X194667079Y-67767670D01*
X194654782Y-67747153D01*
X194644554Y-67725529D01*
X194636496Y-67703007D01*
X194630684Y-67679803D01*
X194627174Y-67656142D01*
X194626000Y-67632250D01*
X194626000Y-67144750D01*
X194627174Y-67120858D01*
X194630684Y-67097197D01*
X194636496Y-67073993D01*
X194644554Y-67051471D01*
X194654782Y-67029847D01*
X194667079Y-67009330D01*
X194681329Y-66990117D01*
X194697393Y-66972393D01*
X194715117Y-66956329D01*
X194734330Y-66942079D01*
X194754847Y-66929782D01*
X194776471Y-66919554D01*
X194798993Y-66911496D01*
X194822197Y-66905684D01*
X194845858Y-66902174D01*
X194869750Y-66901000D01*
X195782250Y-66901000D01*
X195806142Y-66902174D01*
G37*
G36*
X195806142Y-68777174D02*
G01*
X195829803Y-68780684D01*
X195853007Y-68786496D01*
X195875529Y-68794554D01*
X195897153Y-68804782D01*
X195917670Y-68817079D01*
X195936883Y-68831329D01*
X195954607Y-68847393D01*
X195970671Y-68865117D01*
X195984921Y-68884330D01*
X195997218Y-68904847D01*
X196007446Y-68926471D01*
X196015504Y-68948993D01*
X196021316Y-68972197D01*
X196024826Y-68995858D01*
X196026000Y-69019750D01*
X196026000Y-69507250D01*
X196024826Y-69531142D01*
X196021316Y-69554803D01*
X196015504Y-69578007D01*
X196007446Y-69600529D01*
X195997218Y-69622153D01*
X195984921Y-69642670D01*
X195970671Y-69661883D01*
X195954607Y-69679607D01*
X195936883Y-69695671D01*
X195917670Y-69709921D01*
X195897153Y-69722218D01*
X195875529Y-69732446D01*
X195853007Y-69740504D01*
X195829803Y-69746316D01*
X195806142Y-69749826D01*
X195782250Y-69751000D01*
X194869750Y-69751000D01*
X194845858Y-69749826D01*
X194822197Y-69746316D01*
X194798993Y-69740504D01*
X194776471Y-69732446D01*
X194754847Y-69722218D01*
X194734330Y-69709921D01*
X194715117Y-69695671D01*
X194697393Y-69679607D01*
X194681329Y-69661883D01*
X194667079Y-69642670D01*
X194654782Y-69622153D01*
X194644554Y-69600529D01*
X194636496Y-69578007D01*
X194630684Y-69554803D01*
X194627174Y-69531142D01*
X194626000Y-69507250D01*
X194626000Y-69019750D01*
X194627174Y-68995858D01*
X194630684Y-68972197D01*
X194636496Y-68948993D01*
X194644554Y-68926471D01*
X194654782Y-68904847D01*
X194667079Y-68884330D01*
X194681329Y-68865117D01*
X194697393Y-68847393D01*
X194715117Y-68831329D01*
X194734330Y-68817079D01*
X194754847Y-68804782D01*
X194776471Y-68794554D01*
X194798993Y-68786496D01*
X194822197Y-68780684D01*
X194845858Y-68777174D01*
X194869750Y-68776000D01*
X195782250Y-68776000D01*
X195806142Y-68777174D01*
G37*
G36*
X188770142Y-69421174D02*
G01*
X188793803Y-69424684D01*
X188817007Y-69430496D01*
X188839529Y-69438554D01*
X188861153Y-69448782D01*
X188881670Y-69461079D01*
X188900883Y-69475329D01*
X188918607Y-69491393D01*
X188934671Y-69509117D01*
X188948921Y-69528330D01*
X188961218Y-69548847D01*
X188971446Y-69570471D01*
X188979504Y-69592993D01*
X188985316Y-69616197D01*
X188988826Y-69639858D01*
X188990000Y-69663750D01*
X188990000Y-70151250D01*
X188988826Y-70175142D01*
X188985316Y-70198803D01*
X188979504Y-70222007D01*
X188971446Y-70244529D01*
X188961218Y-70266153D01*
X188948921Y-70286670D01*
X188934671Y-70305883D01*
X188918607Y-70323607D01*
X188900883Y-70339671D01*
X188881670Y-70353921D01*
X188861153Y-70366218D01*
X188839529Y-70376446D01*
X188817007Y-70384504D01*
X188793803Y-70390316D01*
X188770142Y-70393826D01*
X188746250Y-70395000D01*
X187833750Y-70395000D01*
X187809858Y-70393826D01*
X187786197Y-70390316D01*
X187762993Y-70384504D01*
X187740471Y-70376446D01*
X187718847Y-70366218D01*
X187698330Y-70353921D01*
X187679117Y-70339671D01*
X187661393Y-70323607D01*
X187645329Y-70305883D01*
X187631079Y-70286670D01*
X187618782Y-70266153D01*
X187608554Y-70244529D01*
X187600496Y-70222007D01*
X187594684Y-70198803D01*
X187591174Y-70175142D01*
X187590000Y-70151250D01*
X187590000Y-69663750D01*
X187591174Y-69639858D01*
X187594684Y-69616197D01*
X187600496Y-69592993D01*
X187608554Y-69570471D01*
X187618782Y-69548847D01*
X187631079Y-69528330D01*
X187645329Y-69509117D01*
X187661393Y-69491393D01*
X187679117Y-69475329D01*
X187698330Y-69461079D01*
X187718847Y-69448782D01*
X187740471Y-69438554D01*
X187762993Y-69430496D01*
X187786197Y-69424684D01*
X187809858Y-69421174D01*
X187833750Y-69420000D01*
X188746250Y-69420000D01*
X188770142Y-69421174D01*
G37*
G36*
X188770142Y-67546174D02*
G01*
X188793803Y-67549684D01*
X188817007Y-67555496D01*
X188839529Y-67563554D01*
X188861153Y-67573782D01*
X188881670Y-67586079D01*
X188900883Y-67600329D01*
X188918607Y-67616393D01*
X188934671Y-67634117D01*
X188948921Y-67653330D01*
X188961218Y-67673847D01*
X188971446Y-67695471D01*
X188979504Y-67717993D01*
X188985316Y-67741197D01*
X188988826Y-67764858D01*
X188990000Y-67788750D01*
X188990000Y-68276250D01*
X188988826Y-68300142D01*
X188985316Y-68323803D01*
X188979504Y-68347007D01*
X188971446Y-68369529D01*
X188961218Y-68391153D01*
X188948921Y-68411670D01*
X188934671Y-68430883D01*
X188918607Y-68448607D01*
X188900883Y-68464671D01*
X188881670Y-68478921D01*
X188861153Y-68491218D01*
X188839529Y-68501446D01*
X188817007Y-68509504D01*
X188793803Y-68515316D01*
X188770142Y-68518826D01*
X188746250Y-68520000D01*
X187833750Y-68520000D01*
X187809858Y-68518826D01*
X187786197Y-68515316D01*
X187762993Y-68509504D01*
X187740471Y-68501446D01*
X187718847Y-68491218D01*
X187698330Y-68478921D01*
X187679117Y-68464671D01*
X187661393Y-68448607D01*
X187645329Y-68430883D01*
X187631079Y-68411670D01*
X187618782Y-68391153D01*
X187608554Y-68369529D01*
X187600496Y-68347007D01*
X187594684Y-68323803D01*
X187591174Y-68300142D01*
X187590000Y-68276250D01*
X187590000Y-67788750D01*
X187591174Y-67764858D01*
X187594684Y-67741197D01*
X187600496Y-67717993D01*
X187608554Y-67695471D01*
X187618782Y-67673847D01*
X187631079Y-67653330D01*
X187645329Y-67634117D01*
X187661393Y-67616393D01*
X187679117Y-67600329D01*
X187698330Y-67586079D01*
X187718847Y-67573782D01*
X187740471Y-67563554D01*
X187762993Y-67555496D01*
X187786197Y-67549684D01*
X187809858Y-67546174D01*
X187833750Y-67545000D01*
X188746250Y-67545000D01*
X188770142Y-67546174D01*
G37*
G36*
X187266958Y-85070710D02*
G01*
X187281276Y-85072834D01*
X187295317Y-85076351D01*
X187308946Y-85081228D01*
X187322031Y-85087417D01*
X187334447Y-85094858D01*
X187346073Y-85103481D01*
X187356798Y-85113202D01*
X187366519Y-85123927D01*
X187375142Y-85135553D01*
X187382583Y-85147969D01*
X187388772Y-85161054D01*
X187393649Y-85174683D01*
X187397166Y-85188724D01*
X187399290Y-85203042D01*
X187400000Y-85217500D01*
X187400000Y-85512500D01*
X187399290Y-85526958D01*
X187397166Y-85541276D01*
X187393649Y-85555317D01*
X187388772Y-85568946D01*
X187382583Y-85582031D01*
X187375142Y-85594447D01*
X187366519Y-85606073D01*
X187356798Y-85616798D01*
X187346073Y-85626519D01*
X187334447Y-85635142D01*
X187322031Y-85642583D01*
X187308946Y-85648772D01*
X187295317Y-85653649D01*
X187281276Y-85657166D01*
X187266958Y-85659290D01*
X187252500Y-85660000D01*
X186907500Y-85660000D01*
X186893042Y-85659290D01*
X186878724Y-85657166D01*
X186864683Y-85653649D01*
X186851054Y-85648772D01*
X186837969Y-85642583D01*
X186825553Y-85635142D01*
X186813927Y-85626519D01*
X186803202Y-85616798D01*
X186793481Y-85606073D01*
X186784858Y-85594447D01*
X186777417Y-85582031D01*
X186771228Y-85568946D01*
X186766351Y-85555317D01*
X186762834Y-85541276D01*
X186760710Y-85526958D01*
X186760000Y-85512500D01*
X186760000Y-85217500D01*
X186760710Y-85203042D01*
X186762834Y-85188724D01*
X186766351Y-85174683D01*
X186771228Y-85161054D01*
X186777417Y-85147969D01*
X186784858Y-85135553D01*
X186793481Y-85123927D01*
X186803202Y-85113202D01*
X186813927Y-85103481D01*
X186825553Y-85094858D01*
X186837969Y-85087417D01*
X186851054Y-85081228D01*
X186864683Y-85076351D01*
X186878724Y-85072834D01*
X186893042Y-85070710D01*
X186907500Y-85070000D01*
X187252500Y-85070000D01*
X187266958Y-85070710D01*
G37*
G36*
X187266958Y-86040710D02*
G01*
X187281276Y-86042834D01*
X187295317Y-86046351D01*
X187308946Y-86051228D01*
X187322031Y-86057417D01*
X187334447Y-86064858D01*
X187346073Y-86073481D01*
X187356798Y-86083202D01*
X187366519Y-86093927D01*
X187375142Y-86105553D01*
X187382583Y-86117969D01*
X187388772Y-86131054D01*
X187393649Y-86144683D01*
X187397166Y-86158724D01*
X187399290Y-86173042D01*
X187400000Y-86187500D01*
X187400000Y-86482500D01*
X187399290Y-86496958D01*
X187397166Y-86511276D01*
X187393649Y-86525317D01*
X187388772Y-86538946D01*
X187382583Y-86552031D01*
X187375142Y-86564447D01*
X187366519Y-86576073D01*
X187356798Y-86586798D01*
X187346073Y-86596519D01*
X187334447Y-86605142D01*
X187322031Y-86612583D01*
X187308946Y-86618772D01*
X187295317Y-86623649D01*
X187281276Y-86627166D01*
X187266958Y-86629290D01*
X187252500Y-86630000D01*
X186907500Y-86630000D01*
X186893042Y-86629290D01*
X186878724Y-86627166D01*
X186864683Y-86623649D01*
X186851054Y-86618772D01*
X186837969Y-86612583D01*
X186825553Y-86605142D01*
X186813927Y-86596519D01*
X186803202Y-86586798D01*
X186793481Y-86576073D01*
X186784858Y-86564447D01*
X186777417Y-86552031D01*
X186771228Y-86538946D01*
X186766351Y-86525317D01*
X186762834Y-86511276D01*
X186760710Y-86496958D01*
X186760000Y-86482500D01*
X186760000Y-86187500D01*
X186760710Y-86173042D01*
X186762834Y-86158724D01*
X186766351Y-86144683D01*
X186771228Y-86131054D01*
X186777417Y-86117969D01*
X186784858Y-86105553D01*
X186793481Y-86093927D01*
X186803202Y-86083202D01*
X186813927Y-86073481D01*
X186825553Y-86064858D01*
X186837969Y-86057417D01*
X186851054Y-86051228D01*
X186864683Y-86046351D01*
X186878724Y-86042834D01*
X186893042Y-86040710D01*
X186907500Y-86040000D01*
X187252500Y-86040000D01*
X187266958Y-86040710D01*
G37*
G36*
X188976958Y-85790710D02*
G01*
X188991276Y-85792834D01*
X189005317Y-85796351D01*
X189018946Y-85801228D01*
X189032031Y-85807417D01*
X189044447Y-85814858D01*
X189056073Y-85823481D01*
X189066798Y-85833202D01*
X189076519Y-85843927D01*
X189085142Y-85855553D01*
X189092583Y-85867969D01*
X189098772Y-85881054D01*
X189103649Y-85894683D01*
X189107166Y-85908724D01*
X189109290Y-85923042D01*
X189110000Y-85937500D01*
X189110000Y-86232500D01*
X189109290Y-86246958D01*
X189107166Y-86261276D01*
X189103649Y-86275317D01*
X189098772Y-86288946D01*
X189092583Y-86302031D01*
X189085142Y-86314447D01*
X189076519Y-86326073D01*
X189066798Y-86336798D01*
X189056073Y-86346519D01*
X189044447Y-86355142D01*
X189032031Y-86362583D01*
X189018946Y-86368772D01*
X189005317Y-86373649D01*
X188991276Y-86377166D01*
X188976958Y-86379290D01*
X188962500Y-86380000D01*
X188617500Y-86380000D01*
X188603042Y-86379290D01*
X188588724Y-86377166D01*
X188574683Y-86373649D01*
X188561054Y-86368772D01*
X188547969Y-86362583D01*
X188535553Y-86355142D01*
X188523927Y-86346519D01*
X188513202Y-86336798D01*
X188503481Y-86326073D01*
X188494858Y-86314447D01*
X188487417Y-86302031D01*
X188481228Y-86288946D01*
X188476351Y-86275317D01*
X188472834Y-86261276D01*
X188470710Y-86246958D01*
X188470000Y-86232500D01*
X188470000Y-85937500D01*
X188470710Y-85923042D01*
X188472834Y-85908724D01*
X188476351Y-85894683D01*
X188481228Y-85881054D01*
X188487417Y-85867969D01*
X188494858Y-85855553D01*
X188503481Y-85843927D01*
X188513202Y-85833202D01*
X188523927Y-85823481D01*
X188535553Y-85814858D01*
X188547969Y-85807417D01*
X188561054Y-85801228D01*
X188574683Y-85796351D01*
X188588724Y-85792834D01*
X188603042Y-85790710D01*
X188617500Y-85790000D01*
X188962500Y-85790000D01*
X188976958Y-85790710D01*
G37*
G36*
X188976958Y-86760710D02*
G01*
X188991276Y-86762834D01*
X189005317Y-86766351D01*
X189018946Y-86771228D01*
X189032031Y-86777417D01*
X189044447Y-86784858D01*
X189056073Y-86793481D01*
X189066798Y-86803202D01*
X189076519Y-86813927D01*
X189085142Y-86825553D01*
X189092583Y-86837969D01*
X189098772Y-86851054D01*
X189103649Y-86864683D01*
X189107166Y-86878724D01*
X189109290Y-86893042D01*
X189110000Y-86907500D01*
X189110000Y-87202500D01*
X189109290Y-87216958D01*
X189107166Y-87231276D01*
X189103649Y-87245317D01*
X189098772Y-87258946D01*
X189092583Y-87272031D01*
X189085142Y-87284447D01*
X189076519Y-87296073D01*
X189066798Y-87306798D01*
X189056073Y-87316519D01*
X189044447Y-87325142D01*
X189032031Y-87332583D01*
X189018946Y-87338772D01*
X189005317Y-87343649D01*
X188991276Y-87347166D01*
X188976958Y-87349290D01*
X188962500Y-87350000D01*
X188617500Y-87350000D01*
X188603042Y-87349290D01*
X188588724Y-87347166D01*
X188574683Y-87343649D01*
X188561054Y-87338772D01*
X188547969Y-87332583D01*
X188535553Y-87325142D01*
X188523927Y-87316519D01*
X188513202Y-87306798D01*
X188503481Y-87296073D01*
X188494858Y-87284447D01*
X188487417Y-87272031D01*
X188481228Y-87258946D01*
X188476351Y-87245317D01*
X188472834Y-87231276D01*
X188470710Y-87216958D01*
X188470000Y-87202500D01*
X188470000Y-86907500D01*
X188470710Y-86893042D01*
X188472834Y-86878724D01*
X188476351Y-86864683D01*
X188481228Y-86851054D01*
X188487417Y-86837969D01*
X188494858Y-86825553D01*
X188503481Y-86813927D01*
X188513202Y-86803202D01*
X188523927Y-86793481D01*
X188535553Y-86784858D01*
X188547969Y-86777417D01*
X188561054Y-86771228D01*
X188574683Y-86766351D01*
X188588724Y-86762834D01*
X188603042Y-86760710D01*
X188617500Y-86760000D01*
X188962500Y-86760000D01*
X188976958Y-86760710D01*
G37*
G36*
X190296958Y-85970710D02*
G01*
X190311276Y-85972834D01*
X190325317Y-85976351D01*
X190338946Y-85981228D01*
X190352031Y-85987417D01*
X190364447Y-85994858D01*
X190376073Y-86003481D01*
X190386798Y-86013202D01*
X190396519Y-86023927D01*
X190405142Y-86035553D01*
X190412583Y-86047969D01*
X190418772Y-86061054D01*
X190423649Y-86074683D01*
X190427166Y-86088724D01*
X190429290Y-86103042D01*
X190430000Y-86117500D01*
X190430000Y-86412500D01*
X190429290Y-86426958D01*
X190427166Y-86441276D01*
X190423649Y-86455317D01*
X190418772Y-86468946D01*
X190412583Y-86482031D01*
X190405142Y-86494447D01*
X190396519Y-86506073D01*
X190386798Y-86516798D01*
X190376073Y-86526519D01*
X190364447Y-86535142D01*
X190352031Y-86542583D01*
X190338946Y-86548772D01*
X190325317Y-86553649D01*
X190311276Y-86557166D01*
X190296958Y-86559290D01*
X190282500Y-86560000D01*
X189937500Y-86560000D01*
X189923042Y-86559290D01*
X189908724Y-86557166D01*
X189894683Y-86553649D01*
X189881054Y-86548772D01*
X189867969Y-86542583D01*
X189855553Y-86535142D01*
X189843927Y-86526519D01*
X189833202Y-86516798D01*
X189823481Y-86506073D01*
X189814858Y-86494447D01*
X189807417Y-86482031D01*
X189801228Y-86468946D01*
X189796351Y-86455317D01*
X189792834Y-86441276D01*
X189790710Y-86426958D01*
X189790000Y-86412500D01*
X189790000Y-86117500D01*
X189790710Y-86103042D01*
X189792834Y-86088724D01*
X189796351Y-86074683D01*
X189801228Y-86061054D01*
X189807417Y-86047969D01*
X189814858Y-86035553D01*
X189823481Y-86023927D01*
X189833202Y-86013202D01*
X189843927Y-86003481D01*
X189855553Y-85994858D01*
X189867969Y-85987417D01*
X189881054Y-85981228D01*
X189894683Y-85976351D01*
X189908724Y-85972834D01*
X189923042Y-85970710D01*
X189937500Y-85970000D01*
X190282500Y-85970000D01*
X190296958Y-85970710D01*
G37*
G36*
X190296958Y-86940710D02*
G01*
X190311276Y-86942834D01*
X190325317Y-86946351D01*
X190338946Y-86951228D01*
X190352031Y-86957417D01*
X190364447Y-86964858D01*
X190376073Y-86973481D01*
X190386798Y-86983202D01*
X190396519Y-86993927D01*
X190405142Y-87005553D01*
X190412583Y-87017969D01*
X190418772Y-87031054D01*
X190423649Y-87044683D01*
X190427166Y-87058724D01*
X190429290Y-87073042D01*
X190430000Y-87087500D01*
X190430000Y-87382500D01*
X190429290Y-87396958D01*
X190427166Y-87411276D01*
X190423649Y-87425317D01*
X190418772Y-87438946D01*
X190412583Y-87452031D01*
X190405142Y-87464447D01*
X190396519Y-87476073D01*
X190386798Y-87486798D01*
X190376073Y-87496519D01*
X190364447Y-87505142D01*
X190352031Y-87512583D01*
X190338946Y-87518772D01*
X190325317Y-87523649D01*
X190311276Y-87527166D01*
X190296958Y-87529290D01*
X190282500Y-87530000D01*
X189937500Y-87530000D01*
X189923042Y-87529290D01*
X189908724Y-87527166D01*
X189894683Y-87523649D01*
X189881054Y-87518772D01*
X189867969Y-87512583D01*
X189855553Y-87505142D01*
X189843927Y-87496519D01*
X189833202Y-87486798D01*
X189823481Y-87476073D01*
X189814858Y-87464447D01*
X189807417Y-87452031D01*
X189801228Y-87438946D01*
X189796351Y-87425317D01*
X189792834Y-87411276D01*
X189790710Y-87396958D01*
X189790000Y-87382500D01*
X189790000Y-87087500D01*
X189790710Y-87073042D01*
X189792834Y-87058724D01*
X189796351Y-87044683D01*
X189801228Y-87031054D01*
X189807417Y-87017969D01*
X189814858Y-87005553D01*
X189823481Y-86993927D01*
X189833202Y-86983202D01*
X189843927Y-86973481D01*
X189855553Y-86964858D01*
X189867969Y-86957417D01*
X189881054Y-86951228D01*
X189894683Y-86946351D01*
X189908724Y-86942834D01*
X189923042Y-86940710D01*
X189937500Y-86940000D01*
X190282500Y-86940000D01*
X190296958Y-86940710D01*
G37*
D11*
X199820000Y-96830000D03*
X197280000Y-96830000D03*
X194740000Y-96830000D03*
X192200000Y-96830000D03*
X189660000Y-96830000D03*
D12*
X187120000Y-96830000D03*
D11*
X191008000Y-60706000D03*
X188468000Y-60706000D03*
X185928000Y-60706000D03*
D12*
X183388000Y-60706000D03*
D11*
X208534000Y-57404000D03*
X208534000Y-59944000D03*
X208534000Y-62484000D03*
X208534000Y-65024000D03*
X208534000Y-67564000D03*
X208534000Y-70104000D03*
X208534000Y-72644000D03*
X208534000Y-75184000D03*
X208534000Y-77724000D03*
X208534000Y-80264000D03*
X208534000Y-82804000D03*
X208534000Y-85344000D03*
X208534000Y-87884000D03*
X208534000Y-90424000D03*
X208534000Y-92964000D03*
X208534000Y-95504000D03*
X208534000Y-98044000D03*
X208534000Y-100584000D03*
X208534000Y-103124000D03*
D12*
X208534000Y-105664000D03*
D10*
G36*
X202325504Y-66940204D02*
G01*
X202349773Y-66943804D01*
X202373571Y-66949765D01*
X202396671Y-66958030D01*
X202418849Y-66968520D01*
X202439893Y-66981133D01*
X202459598Y-66995747D01*
X202477777Y-67012223D01*
X202494253Y-67030402D01*
X202508867Y-67050107D01*
X202521480Y-67071151D01*
X202531970Y-67093329D01*
X202540235Y-67116429D01*
X202546196Y-67140227D01*
X202549796Y-67164496D01*
X202551000Y-67189000D01*
X202551000Y-67939000D01*
X202549796Y-67963504D01*
X202546196Y-67987773D01*
X202540235Y-68011571D01*
X202531970Y-68034671D01*
X202521480Y-68056849D01*
X202508867Y-68077893D01*
X202494253Y-68097598D01*
X202477777Y-68115777D01*
X202459598Y-68132253D01*
X202439893Y-68146867D01*
X202418849Y-68159480D01*
X202396671Y-68169970D01*
X202373571Y-68178235D01*
X202349773Y-68184196D01*
X202325504Y-68187796D01*
X202301000Y-68189000D01*
X201051000Y-68189000D01*
X201026496Y-68187796D01*
X201002227Y-68184196D01*
X200978429Y-68178235D01*
X200955329Y-68169970D01*
X200933151Y-68159480D01*
X200912107Y-68146867D01*
X200892402Y-68132253D01*
X200874223Y-68115777D01*
X200857747Y-68097598D01*
X200843133Y-68077893D01*
X200830520Y-68056849D01*
X200820030Y-68034671D01*
X200811765Y-68011571D01*
X200805804Y-67987773D01*
X200802204Y-67963504D01*
X200801000Y-67939000D01*
X200801000Y-67189000D01*
X200802204Y-67164496D01*
X200805804Y-67140227D01*
X200811765Y-67116429D01*
X200820030Y-67093329D01*
X200830520Y-67071151D01*
X200843133Y-67050107D01*
X200857747Y-67030402D01*
X200874223Y-67012223D01*
X200892402Y-66995747D01*
X200912107Y-66981133D01*
X200933151Y-66968520D01*
X200955329Y-66958030D01*
X200978429Y-66949765D01*
X201002227Y-66943804D01*
X201026496Y-66940204D01*
X201051000Y-66939000D01*
X202301000Y-66939000D01*
X202325504Y-66940204D01*
G37*
G36*
X202325504Y-64140204D02*
G01*
X202349773Y-64143804D01*
X202373571Y-64149765D01*
X202396671Y-64158030D01*
X202418849Y-64168520D01*
X202439893Y-64181133D01*
X202459598Y-64195747D01*
X202477777Y-64212223D01*
X202494253Y-64230402D01*
X202508867Y-64250107D01*
X202521480Y-64271151D01*
X202531970Y-64293329D01*
X202540235Y-64316429D01*
X202546196Y-64340227D01*
X202549796Y-64364496D01*
X202551000Y-64389000D01*
X202551000Y-65139000D01*
X202549796Y-65163504D01*
X202546196Y-65187773D01*
X202540235Y-65211571D01*
X202531970Y-65234671D01*
X202521480Y-65256849D01*
X202508867Y-65277893D01*
X202494253Y-65297598D01*
X202477777Y-65315777D01*
X202459598Y-65332253D01*
X202439893Y-65346867D01*
X202418849Y-65359480D01*
X202396671Y-65369970D01*
X202373571Y-65378235D01*
X202349773Y-65384196D01*
X202325504Y-65387796D01*
X202301000Y-65389000D01*
X201051000Y-65389000D01*
X201026496Y-65387796D01*
X201002227Y-65384196D01*
X200978429Y-65378235D01*
X200955329Y-65369970D01*
X200933151Y-65359480D01*
X200912107Y-65346867D01*
X200892402Y-65332253D01*
X200874223Y-65315777D01*
X200857747Y-65297598D01*
X200843133Y-65277893D01*
X200830520Y-65256849D01*
X200820030Y-65234671D01*
X200811765Y-65211571D01*
X200805804Y-65187773D01*
X200802204Y-65163504D01*
X200801000Y-65139000D01*
X200801000Y-64389000D01*
X200802204Y-64364496D01*
X200805804Y-64340227D01*
X200811765Y-64316429D01*
X200820030Y-64293329D01*
X200830520Y-64271151D01*
X200843133Y-64250107D01*
X200857747Y-64230402D01*
X200874223Y-64212223D01*
X200892402Y-64195747D01*
X200912107Y-64181133D01*
X200933151Y-64168520D01*
X200955329Y-64158030D01*
X200978429Y-64149765D01*
X201002227Y-64143804D01*
X201026496Y-64140204D01*
X201051000Y-64139000D01*
X202301000Y-64139000D01*
X202325504Y-64140204D01*
G37*
G36*
X192673504Y-75198204D02*
G01*
X192697773Y-75201804D01*
X192721571Y-75207765D01*
X192744671Y-75216030D01*
X192766849Y-75226520D01*
X192787893Y-75239133D01*
X192807598Y-75253747D01*
X192825777Y-75270223D01*
X192842253Y-75288402D01*
X192856867Y-75308107D01*
X192869480Y-75329151D01*
X192879970Y-75351329D01*
X192888235Y-75374429D01*
X192894196Y-75398227D01*
X192897796Y-75422496D01*
X192899000Y-75447000D01*
X192899000Y-76197000D01*
X192897796Y-76221504D01*
X192894196Y-76245773D01*
X192888235Y-76269571D01*
X192879970Y-76292671D01*
X192869480Y-76314849D01*
X192856867Y-76335893D01*
X192842253Y-76355598D01*
X192825777Y-76373777D01*
X192807598Y-76390253D01*
X192787893Y-76404867D01*
X192766849Y-76417480D01*
X192744671Y-76427970D01*
X192721571Y-76436235D01*
X192697773Y-76442196D01*
X192673504Y-76445796D01*
X192649000Y-76447000D01*
X191399000Y-76447000D01*
X191374496Y-76445796D01*
X191350227Y-76442196D01*
X191326429Y-76436235D01*
X191303329Y-76427970D01*
X191281151Y-76417480D01*
X191260107Y-76404867D01*
X191240402Y-76390253D01*
X191222223Y-76373777D01*
X191205747Y-76355598D01*
X191191133Y-76335893D01*
X191178520Y-76314849D01*
X191168030Y-76292671D01*
X191159765Y-76269571D01*
X191153804Y-76245773D01*
X191150204Y-76221504D01*
X191149000Y-76197000D01*
X191149000Y-75447000D01*
X191150204Y-75422496D01*
X191153804Y-75398227D01*
X191159765Y-75374429D01*
X191168030Y-75351329D01*
X191178520Y-75329151D01*
X191191133Y-75308107D01*
X191205747Y-75288402D01*
X191222223Y-75270223D01*
X191240402Y-75253747D01*
X191260107Y-75239133D01*
X191281151Y-75226520D01*
X191303329Y-75216030D01*
X191326429Y-75207765D01*
X191350227Y-75201804D01*
X191374496Y-75198204D01*
X191399000Y-75197000D01*
X192649000Y-75197000D01*
X192673504Y-75198204D01*
G37*
G36*
X192673504Y-72398204D02*
G01*
X192697773Y-72401804D01*
X192721571Y-72407765D01*
X192744671Y-72416030D01*
X192766849Y-72426520D01*
X192787893Y-72439133D01*
X192807598Y-72453747D01*
X192825777Y-72470223D01*
X192842253Y-72488402D01*
X192856867Y-72508107D01*
X192869480Y-72529151D01*
X192879970Y-72551329D01*
X192888235Y-72574429D01*
X192894196Y-72598227D01*
X192897796Y-72622496D01*
X192899000Y-72647000D01*
X192899000Y-73397000D01*
X192897796Y-73421504D01*
X192894196Y-73445773D01*
X192888235Y-73469571D01*
X192879970Y-73492671D01*
X192869480Y-73514849D01*
X192856867Y-73535893D01*
X192842253Y-73555598D01*
X192825777Y-73573777D01*
X192807598Y-73590253D01*
X192787893Y-73604867D01*
X192766849Y-73617480D01*
X192744671Y-73627970D01*
X192721571Y-73636235D01*
X192697773Y-73642196D01*
X192673504Y-73645796D01*
X192649000Y-73647000D01*
X191399000Y-73647000D01*
X191374496Y-73645796D01*
X191350227Y-73642196D01*
X191326429Y-73636235D01*
X191303329Y-73627970D01*
X191281151Y-73617480D01*
X191260107Y-73604867D01*
X191240402Y-73590253D01*
X191222223Y-73573777D01*
X191205747Y-73555598D01*
X191191133Y-73535893D01*
X191178520Y-73514849D01*
X191168030Y-73492671D01*
X191159765Y-73469571D01*
X191153804Y-73445773D01*
X191150204Y-73421504D01*
X191149000Y-73397000D01*
X191149000Y-72647000D01*
X191150204Y-72622496D01*
X191153804Y-72598227D01*
X191159765Y-72574429D01*
X191168030Y-72551329D01*
X191178520Y-72529151D01*
X191191133Y-72508107D01*
X191205747Y-72488402D01*
X191222223Y-72470223D01*
X191240402Y-72453747D01*
X191260107Y-72439133D01*
X191281151Y-72426520D01*
X191303329Y-72416030D01*
X191326429Y-72407765D01*
X191350227Y-72401804D01*
X191374496Y-72398204D01*
X191399000Y-72397000D01*
X192649000Y-72397000D01*
X192673504Y-72398204D01*
G37*
G36*
X199277504Y-65156204D02*
G01*
X199301773Y-65159804D01*
X199325571Y-65165765D01*
X199348671Y-65174030D01*
X199370849Y-65184520D01*
X199391893Y-65197133D01*
X199411598Y-65211747D01*
X199429777Y-65228223D01*
X199446253Y-65246402D01*
X199460867Y-65266107D01*
X199473480Y-65287151D01*
X199483970Y-65309329D01*
X199492235Y-65332429D01*
X199498196Y-65356227D01*
X199501796Y-65380496D01*
X199503000Y-65405000D01*
X199503000Y-66155000D01*
X199501796Y-66179504D01*
X199498196Y-66203773D01*
X199492235Y-66227571D01*
X199483970Y-66250671D01*
X199473480Y-66272849D01*
X199460867Y-66293893D01*
X199446253Y-66313598D01*
X199429777Y-66331777D01*
X199411598Y-66348253D01*
X199391893Y-66362867D01*
X199370849Y-66375480D01*
X199348671Y-66385970D01*
X199325571Y-66394235D01*
X199301773Y-66400196D01*
X199277504Y-66403796D01*
X199253000Y-66405000D01*
X198003000Y-66405000D01*
X197978496Y-66403796D01*
X197954227Y-66400196D01*
X197930429Y-66394235D01*
X197907329Y-66385970D01*
X197885151Y-66375480D01*
X197864107Y-66362867D01*
X197844402Y-66348253D01*
X197826223Y-66331777D01*
X197809747Y-66313598D01*
X197795133Y-66293893D01*
X197782520Y-66272849D01*
X197772030Y-66250671D01*
X197763765Y-66227571D01*
X197757804Y-66203773D01*
X197754204Y-66179504D01*
X197753000Y-66155000D01*
X197753000Y-65405000D01*
X197754204Y-65380496D01*
X197757804Y-65356227D01*
X197763765Y-65332429D01*
X197772030Y-65309329D01*
X197782520Y-65287151D01*
X197795133Y-65266107D01*
X197809747Y-65246402D01*
X197826223Y-65228223D01*
X197844402Y-65211747D01*
X197864107Y-65197133D01*
X197885151Y-65184520D01*
X197907329Y-65174030D01*
X197930429Y-65165765D01*
X197954227Y-65159804D01*
X197978496Y-65156204D01*
X198003000Y-65155000D01*
X199253000Y-65155000D01*
X199277504Y-65156204D01*
G37*
G36*
X199277504Y-67956204D02*
G01*
X199301773Y-67959804D01*
X199325571Y-67965765D01*
X199348671Y-67974030D01*
X199370849Y-67984520D01*
X199391893Y-67997133D01*
X199411598Y-68011747D01*
X199429777Y-68028223D01*
X199446253Y-68046402D01*
X199460867Y-68066107D01*
X199473480Y-68087151D01*
X199483970Y-68109329D01*
X199492235Y-68132429D01*
X199498196Y-68156227D01*
X199501796Y-68180496D01*
X199503000Y-68205000D01*
X199503000Y-68955000D01*
X199501796Y-68979504D01*
X199498196Y-69003773D01*
X199492235Y-69027571D01*
X199483970Y-69050671D01*
X199473480Y-69072849D01*
X199460867Y-69093893D01*
X199446253Y-69113598D01*
X199429777Y-69131777D01*
X199411598Y-69148253D01*
X199391893Y-69162867D01*
X199370849Y-69175480D01*
X199348671Y-69185970D01*
X199325571Y-69194235D01*
X199301773Y-69200196D01*
X199277504Y-69203796D01*
X199253000Y-69205000D01*
X198003000Y-69205000D01*
X197978496Y-69203796D01*
X197954227Y-69200196D01*
X197930429Y-69194235D01*
X197907329Y-69185970D01*
X197885151Y-69175480D01*
X197864107Y-69162867D01*
X197844402Y-69148253D01*
X197826223Y-69131777D01*
X197809747Y-69113598D01*
X197795133Y-69093893D01*
X197782520Y-69072849D01*
X197772030Y-69050671D01*
X197763765Y-69027571D01*
X197757804Y-69003773D01*
X197754204Y-68979504D01*
X197753000Y-68955000D01*
X197753000Y-68205000D01*
X197754204Y-68180496D01*
X197757804Y-68156227D01*
X197763765Y-68132429D01*
X197772030Y-68109329D01*
X197782520Y-68087151D01*
X197795133Y-68066107D01*
X197809747Y-68046402D01*
X197826223Y-68028223D01*
X197844402Y-68011747D01*
X197864107Y-67997133D01*
X197885151Y-67984520D01*
X197907329Y-67974030D01*
X197930429Y-67965765D01*
X197954227Y-67959804D01*
X197978496Y-67956204D01*
X198003000Y-67955000D01*
X199253000Y-67955000D01*
X199277504Y-67956204D01*
G37*
G36*
X188439504Y-79686204D02*
G01*
X188463773Y-79689804D01*
X188487571Y-79695765D01*
X188510671Y-79704030D01*
X188532849Y-79714520D01*
X188553893Y-79727133D01*
X188573598Y-79741747D01*
X188591777Y-79758223D01*
X188608253Y-79776402D01*
X188622867Y-79796107D01*
X188635480Y-79817151D01*
X188645970Y-79839329D01*
X188654235Y-79862429D01*
X188660196Y-79886227D01*
X188663796Y-79910496D01*
X188665000Y-79935000D01*
X188665000Y-80685000D01*
X188663796Y-80709504D01*
X188660196Y-80733773D01*
X188654235Y-80757571D01*
X188645970Y-80780671D01*
X188635480Y-80802849D01*
X188622867Y-80823893D01*
X188608253Y-80843598D01*
X188591777Y-80861777D01*
X188573598Y-80878253D01*
X188553893Y-80892867D01*
X188532849Y-80905480D01*
X188510671Y-80915970D01*
X188487571Y-80924235D01*
X188463773Y-80930196D01*
X188439504Y-80933796D01*
X188415000Y-80935000D01*
X187165000Y-80935000D01*
X187140496Y-80933796D01*
X187116227Y-80930196D01*
X187092429Y-80924235D01*
X187069329Y-80915970D01*
X187047151Y-80905480D01*
X187026107Y-80892867D01*
X187006402Y-80878253D01*
X186988223Y-80861777D01*
X186971747Y-80843598D01*
X186957133Y-80823893D01*
X186944520Y-80802849D01*
X186934030Y-80780671D01*
X186925765Y-80757571D01*
X186919804Y-80733773D01*
X186916204Y-80709504D01*
X186915000Y-80685000D01*
X186915000Y-79935000D01*
X186916204Y-79910496D01*
X186919804Y-79886227D01*
X186925765Y-79862429D01*
X186934030Y-79839329D01*
X186944520Y-79817151D01*
X186957133Y-79796107D01*
X186971747Y-79776402D01*
X186988223Y-79758223D01*
X187006402Y-79741747D01*
X187026107Y-79727133D01*
X187047151Y-79714520D01*
X187069329Y-79704030D01*
X187092429Y-79695765D01*
X187116227Y-79689804D01*
X187140496Y-79686204D01*
X187165000Y-79685000D01*
X188415000Y-79685000D01*
X188439504Y-79686204D01*
G37*
G36*
X188439504Y-82486204D02*
G01*
X188463773Y-82489804D01*
X188487571Y-82495765D01*
X188510671Y-82504030D01*
X188532849Y-82514520D01*
X188553893Y-82527133D01*
X188573598Y-82541747D01*
X188591777Y-82558223D01*
X188608253Y-82576402D01*
X188622867Y-82596107D01*
X188635480Y-82617151D01*
X188645970Y-82639329D01*
X188654235Y-82662429D01*
X188660196Y-82686227D01*
X188663796Y-82710496D01*
X188665000Y-82735000D01*
X188665000Y-83485000D01*
X188663796Y-83509504D01*
X188660196Y-83533773D01*
X188654235Y-83557571D01*
X188645970Y-83580671D01*
X188635480Y-83602849D01*
X188622867Y-83623893D01*
X188608253Y-83643598D01*
X188591777Y-83661777D01*
X188573598Y-83678253D01*
X188553893Y-83692867D01*
X188532849Y-83705480D01*
X188510671Y-83715970D01*
X188487571Y-83724235D01*
X188463773Y-83730196D01*
X188439504Y-83733796D01*
X188415000Y-83735000D01*
X187165000Y-83735000D01*
X187140496Y-83733796D01*
X187116227Y-83730196D01*
X187092429Y-83724235D01*
X187069329Y-83715970D01*
X187047151Y-83705480D01*
X187026107Y-83692867D01*
X187006402Y-83678253D01*
X186988223Y-83661777D01*
X186971747Y-83643598D01*
X186957133Y-83623893D01*
X186944520Y-83602849D01*
X186934030Y-83580671D01*
X186925765Y-83557571D01*
X186919804Y-83533773D01*
X186916204Y-83509504D01*
X186915000Y-83485000D01*
X186915000Y-82735000D01*
X186916204Y-82710496D01*
X186919804Y-82686227D01*
X186925765Y-82662429D01*
X186934030Y-82639329D01*
X186944520Y-82617151D01*
X186957133Y-82596107D01*
X186971747Y-82576402D01*
X186988223Y-82558223D01*
X187006402Y-82541747D01*
X187026107Y-82527133D01*
X187047151Y-82514520D01*
X187069329Y-82504030D01*
X187092429Y-82495765D01*
X187116227Y-82489804D01*
X187140496Y-82486204D01*
X187165000Y-82485000D01*
X188415000Y-82485000D01*
X188439504Y-82486204D01*
G37*
G36*
X189629504Y-65426204D02*
G01*
X189653773Y-65429804D01*
X189677571Y-65435765D01*
X189700671Y-65444030D01*
X189722849Y-65454520D01*
X189743893Y-65467133D01*
X189763598Y-65481747D01*
X189781777Y-65498223D01*
X189798253Y-65516402D01*
X189812867Y-65536107D01*
X189825480Y-65557151D01*
X189835970Y-65579329D01*
X189844235Y-65602429D01*
X189850196Y-65626227D01*
X189853796Y-65650496D01*
X189855000Y-65675000D01*
X189855000Y-66425000D01*
X189853796Y-66449504D01*
X189850196Y-66473773D01*
X189844235Y-66497571D01*
X189835970Y-66520671D01*
X189825480Y-66542849D01*
X189812867Y-66563893D01*
X189798253Y-66583598D01*
X189781777Y-66601777D01*
X189763598Y-66618253D01*
X189743893Y-66632867D01*
X189722849Y-66645480D01*
X189700671Y-66655970D01*
X189677571Y-66664235D01*
X189653773Y-66670196D01*
X189629504Y-66673796D01*
X189605000Y-66675000D01*
X188355000Y-66675000D01*
X188330496Y-66673796D01*
X188306227Y-66670196D01*
X188282429Y-66664235D01*
X188259329Y-66655970D01*
X188237151Y-66645480D01*
X188216107Y-66632867D01*
X188196402Y-66618253D01*
X188178223Y-66601777D01*
X188161747Y-66583598D01*
X188147133Y-66563893D01*
X188134520Y-66542849D01*
X188124030Y-66520671D01*
X188115765Y-66497571D01*
X188109804Y-66473773D01*
X188106204Y-66449504D01*
X188105000Y-66425000D01*
X188105000Y-65675000D01*
X188106204Y-65650496D01*
X188109804Y-65626227D01*
X188115765Y-65602429D01*
X188124030Y-65579329D01*
X188134520Y-65557151D01*
X188147133Y-65536107D01*
X188161747Y-65516402D01*
X188178223Y-65498223D01*
X188196402Y-65481747D01*
X188216107Y-65467133D01*
X188237151Y-65454520D01*
X188259329Y-65444030D01*
X188282429Y-65435765D01*
X188306227Y-65429804D01*
X188330496Y-65426204D01*
X188355000Y-65425000D01*
X189605000Y-65425000D01*
X189629504Y-65426204D01*
G37*
G36*
X189629504Y-62626204D02*
G01*
X189653773Y-62629804D01*
X189677571Y-62635765D01*
X189700671Y-62644030D01*
X189722849Y-62654520D01*
X189743893Y-62667133D01*
X189763598Y-62681747D01*
X189781777Y-62698223D01*
X189798253Y-62716402D01*
X189812867Y-62736107D01*
X189825480Y-62757151D01*
X189835970Y-62779329D01*
X189844235Y-62802429D01*
X189850196Y-62826227D01*
X189853796Y-62850496D01*
X189855000Y-62875000D01*
X189855000Y-63625000D01*
X189853796Y-63649504D01*
X189850196Y-63673773D01*
X189844235Y-63697571D01*
X189835970Y-63720671D01*
X189825480Y-63742849D01*
X189812867Y-63763893D01*
X189798253Y-63783598D01*
X189781777Y-63801777D01*
X189763598Y-63818253D01*
X189743893Y-63832867D01*
X189722849Y-63845480D01*
X189700671Y-63855970D01*
X189677571Y-63864235D01*
X189653773Y-63870196D01*
X189629504Y-63873796D01*
X189605000Y-63875000D01*
X188355000Y-63875000D01*
X188330496Y-63873796D01*
X188306227Y-63870196D01*
X188282429Y-63864235D01*
X188259329Y-63855970D01*
X188237151Y-63845480D01*
X188216107Y-63832867D01*
X188196402Y-63818253D01*
X188178223Y-63801777D01*
X188161747Y-63783598D01*
X188147133Y-63763893D01*
X188134520Y-63742849D01*
X188124030Y-63720671D01*
X188115765Y-63697571D01*
X188109804Y-63673773D01*
X188106204Y-63649504D01*
X188105000Y-63625000D01*
X188105000Y-62875000D01*
X188106204Y-62850496D01*
X188109804Y-62826227D01*
X188115765Y-62802429D01*
X188124030Y-62779329D01*
X188134520Y-62757151D01*
X188147133Y-62736107D01*
X188161747Y-62716402D01*
X188178223Y-62698223D01*
X188196402Y-62681747D01*
X188216107Y-62667133D01*
X188237151Y-62654520D01*
X188259329Y-62644030D01*
X188282429Y-62635765D01*
X188306227Y-62629804D01*
X188330496Y-62626204D01*
X188355000Y-62625000D01*
X189605000Y-62625000D01*
X189629504Y-62626204D01*
G37*
G36*
X187799504Y-87096204D02*
G01*
X187823773Y-87099804D01*
X187847571Y-87105765D01*
X187870671Y-87114030D01*
X187892849Y-87124520D01*
X187913893Y-87137133D01*
X187933598Y-87151747D01*
X187951777Y-87168223D01*
X187968253Y-87186402D01*
X187982867Y-87206107D01*
X187995480Y-87227151D01*
X188005970Y-87249329D01*
X188014235Y-87272429D01*
X188020196Y-87296227D01*
X188023796Y-87320496D01*
X188025000Y-87345000D01*
X188025000Y-88095000D01*
X188023796Y-88119504D01*
X188020196Y-88143773D01*
X188014235Y-88167571D01*
X188005970Y-88190671D01*
X187995480Y-88212849D01*
X187982867Y-88233893D01*
X187968253Y-88253598D01*
X187951777Y-88271777D01*
X187933598Y-88288253D01*
X187913893Y-88302867D01*
X187892849Y-88315480D01*
X187870671Y-88325970D01*
X187847571Y-88334235D01*
X187823773Y-88340196D01*
X187799504Y-88343796D01*
X187775000Y-88345000D01*
X186525000Y-88345000D01*
X186500496Y-88343796D01*
X186476227Y-88340196D01*
X186452429Y-88334235D01*
X186429329Y-88325970D01*
X186407151Y-88315480D01*
X186386107Y-88302867D01*
X186366402Y-88288253D01*
X186348223Y-88271777D01*
X186331747Y-88253598D01*
X186317133Y-88233893D01*
X186304520Y-88212849D01*
X186294030Y-88190671D01*
X186285765Y-88167571D01*
X186279804Y-88143773D01*
X186276204Y-88119504D01*
X186275000Y-88095000D01*
X186275000Y-87345000D01*
X186276204Y-87320496D01*
X186279804Y-87296227D01*
X186285765Y-87272429D01*
X186294030Y-87249329D01*
X186304520Y-87227151D01*
X186317133Y-87206107D01*
X186331747Y-87186402D01*
X186348223Y-87168223D01*
X186366402Y-87151747D01*
X186386107Y-87137133D01*
X186407151Y-87124520D01*
X186429329Y-87114030D01*
X186452429Y-87105765D01*
X186476227Y-87099804D01*
X186500496Y-87096204D01*
X186525000Y-87095000D01*
X187775000Y-87095000D01*
X187799504Y-87096204D01*
G37*
G36*
X187799504Y-89896204D02*
G01*
X187823773Y-89899804D01*
X187847571Y-89905765D01*
X187870671Y-89914030D01*
X187892849Y-89924520D01*
X187913893Y-89937133D01*
X187933598Y-89951747D01*
X187951777Y-89968223D01*
X187968253Y-89986402D01*
X187982867Y-90006107D01*
X187995480Y-90027151D01*
X188005970Y-90049329D01*
X188014235Y-90072429D01*
X188020196Y-90096227D01*
X188023796Y-90120496D01*
X188025000Y-90145000D01*
X188025000Y-90895000D01*
X188023796Y-90919504D01*
X188020196Y-90943773D01*
X188014235Y-90967571D01*
X188005970Y-90990671D01*
X187995480Y-91012849D01*
X187982867Y-91033893D01*
X187968253Y-91053598D01*
X187951777Y-91071777D01*
X187933598Y-91088253D01*
X187913893Y-91102867D01*
X187892849Y-91115480D01*
X187870671Y-91125970D01*
X187847571Y-91134235D01*
X187823773Y-91140196D01*
X187799504Y-91143796D01*
X187775000Y-91145000D01*
X186525000Y-91145000D01*
X186500496Y-91143796D01*
X186476227Y-91140196D01*
X186452429Y-91134235D01*
X186429329Y-91125970D01*
X186407151Y-91115480D01*
X186386107Y-91102867D01*
X186366402Y-91088253D01*
X186348223Y-91071777D01*
X186331747Y-91053598D01*
X186317133Y-91033893D01*
X186304520Y-91012849D01*
X186294030Y-90990671D01*
X186285765Y-90967571D01*
X186279804Y-90943773D01*
X186276204Y-90919504D01*
X186275000Y-90895000D01*
X186275000Y-90145000D01*
X186276204Y-90120496D01*
X186279804Y-90096227D01*
X186285765Y-90072429D01*
X186294030Y-90049329D01*
X186304520Y-90027151D01*
X186317133Y-90006107D01*
X186331747Y-89986402D01*
X186348223Y-89968223D01*
X186366402Y-89951747D01*
X186386107Y-89937133D01*
X186407151Y-89924520D01*
X186429329Y-89914030D01*
X186452429Y-89905765D01*
X186476227Y-89899804D01*
X186500496Y-89896204D01*
X186525000Y-89895000D01*
X187775000Y-89895000D01*
X187799504Y-89896204D01*
G37*
G36*
X190889504Y-88626204D02*
G01*
X190913773Y-88629804D01*
X190937571Y-88635765D01*
X190960671Y-88644030D01*
X190982849Y-88654520D01*
X191003893Y-88667133D01*
X191023598Y-88681747D01*
X191041777Y-88698223D01*
X191058253Y-88716402D01*
X191072867Y-88736107D01*
X191085480Y-88757151D01*
X191095970Y-88779329D01*
X191104235Y-88802429D01*
X191110196Y-88826227D01*
X191113796Y-88850496D01*
X191115000Y-88875000D01*
X191115000Y-89625000D01*
X191113796Y-89649504D01*
X191110196Y-89673773D01*
X191104235Y-89697571D01*
X191095970Y-89720671D01*
X191085480Y-89742849D01*
X191072867Y-89763893D01*
X191058253Y-89783598D01*
X191041777Y-89801777D01*
X191023598Y-89818253D01*
X191003893Y-89832867D01*
X190982849Y-89845480D01*
X190960671Y-89855970D01*
X190937571Y-89864235D01*
X190913773Y-89870196D01*
X190889504Y-89873796D01*
X190865000Y-89875000D01*
X189615000Y-89875000D01*
X189590496Y-89873796D01*
X189566227Y-89870196D01*
X189542429Y-89864235D01*
X189519329Y-89855970D01*
X189497151Y-89845480D01*
X189476107Y-89832867D01*
X189456402Y-89818253D01*
X189438223Y-89801777D01*
X189421747Y-89783598D01*
X189407133Y-89763893D01*
X189394520Y-89742849D01*
X189384030Y-89720671D01*
X189375765Y-89697571D01*
X189369804Y-89673773D01*
X189366204Y-89649504D01*
X189365000Y-89625000D01*
X189365000Y-88875000D01*
X189366204Y-88850496D01*
X189369804Y-88826227D01*
X189375765Y-88802429D01*
X189384030Y-88779329D01*
X189394520Y-88757151D01*
X189407133Y-88736107D01*
X189421747Y-88716402D01*
X189438223Y-88698223D01*
X189456402Y-88681747D01*
X189476107Y-88667133D01*
X189497151Y-88654520D01*
X189519329Y-88644030D01*
X189542429Y-88635765D01*
X189566227Y-88629804D01*
X189590496Y-88626204D01*
X189615000Y-88625000D01*
X190865000Y-88625000D01*
X190889504Y-88626204D01*
G37*
G36*
X190889504Y-91426204D02*
G01*
X190913773Y-91429804D01*
X190937571Y-91435765D01*
X190960671Y-91444030D01*
X190982849Y-91454520D01*
X191003893Y-91467133D01*
X191023598Y-91481747D01*
X191041777Y-91498223D01*
X191058253Y-91516402D01*
X191072867Y-91536107D01*
X191085480Y-91557151D01*
X191095970Y-91579329D01*
X191104235Y-91602429D01*
X191110196Y-91626227D01*
X191113796Y-91650496D01*
X191115000Y-91675000D01*
X191115000Y-92425000D01*
X191113796Y-92449504D01*
X191110196Y-92473773D01*
X191104235Y-92497571D01*
X191095970Y-92520671D01*
X191085480Y-92542849D01*
X191072867Y-92563893D01*
X191058253Y-92583598D01*
X191041777Y-92601777D01*
X191023598Y-92618253D01*
X191003893Y-92632867D01*
X190982849Y-92645480D01*
X190960671Y-92655970D01*
X190937571Y-92664235D01*
X190913773Y-92670196D01*
X190889504Y-92673796D01*
X190865000Y-92675000D01*
X189615000Y-92675000D01*
X189590496Y-92673796D01*
X189566227Y-92670196D01*
X189542429Y-92664235D01*
X189519329Y-92655970D01*
X189497151Y-92645480D01*
X189476107Y-92632867D01*
X189456402Y-92618253D01*
X189438223Y-92601777D01*
X189421747Y-92583598D01*
X189407133Y-92563893D01*
X189394520Y-92542849D01*
X189384030Y-92520671D01*
X189375765Y-92497571D01*
X189369804Y-92473773D01*
X189366204Y-92449504D01*
X189365000Y-92425000D01*
X189365000Y-91675000D01*
X189366204Y-91650496D01*
X189369804Y-91626227D01*
X189375765Y-91602429D01*
X189384030Y-91579329D01*
X189394520Y-91557151D01*
X189407133Y-91536107D01*
X189421747Y-91516402D01*
X189438223Y-91498223D01*
X189456402Y-91481747D01*
X189476107Y-91467133D01*
X189497151Y-91454520D01*
X189519329Y-91444030D01*
X189542429Y-91435765D01*
X189566227Y-91429804D01*
X189590496Y-91426204D01*
X189615000Y-91425000D01*
X190865000Y-91425000D01*
X190889504Y-91426204D01*
G37*
G36*
X193959504Y-88776204D02*
G01*
X193983773Y-88779804D01*
X194007571Y-88785765D01*
X194030671Y-88794030D01*
X194052849Y-88804520D01*
X194073893Y-88817133D01*
X194093598Y-88831747D01*
X194111777Y-88848223D01*
X194128253Y-88866402D01*
X194142867Y-88886107D01*
X194155480Y-88907151D01*
X194165970Y-88929329D01*
X194174235Y-88952429D01*
X194180196Y-88976227D01*
X194183796Y-89000496D01*
X194185000Y-89025000D01*
X194185000Y-89775000D01*
X194183796Y-89799504D01*
X194180196Y-89823773D01*
X194174235Y-89847571D01*
X194165970Y-89870671D01*
X194155480Y-89892849D01*
X194142867Y-89913893D01*
X194128253Y-89933598D01*
X194111777Y-89951777D01*
X194093598Y-89968253D01*
X194073893Y-89982867D01*
X194052849Y-89995480D01*
X194030671Y-90005970D01*
X194007571Y-90014235D01*
X193983773Y-90020196D01*
X193959504Y-90023796D01*
X193935000Y-90025000D01*
X192685000Y-90025000D01*
X192660496Y-90023796D01*
X192636227Y-90020196D01*
X192612429Y-90014235D01*
X192589329Y-90005970D01*
X192567151Y-89995480D01*
X192546107Y-89982867D01*
X192526402Y-89968253D01*
X192508223Y-89951777D01*
X192491747Y-89933598D01*
X192477133Y-89913893D01*
X192464520Y-89892849D01*
X192454030Y-89870671D01*
X192445765Y-89847571D01*
X192439804Y-89823773D01*
X192436204Y-89799504D01*
X192435000Y-89775000D01*
X192435000Y-89025000D01*
X192436204Y-89000496D01*
X192439804Y-88976227D01*
X192445765Y-88952429D01*
X192454030Y-88929329D01*
X192464520Y-88907151D01*
X192477133Y-88886107D01*
X192491747Y-88866402D01*
X192508223Y-88848223D01*
X192526402Y-88831747D01*
X192546107Y-88817133D01*
X192567151Y-88804520D01*
X192589329Y-88794030D01*
X192612429Y-88785765D01*
X192636227Y-88779804D01*
X192660496Y-88776204D01*
X192685000Y-88775000D01*
X193935000Y-88775000D01*
X193959504Y-88776204D01*
G37*
G36*
X193959504Y-91576204D02*
G01*
X193983773Y-91579804D01*
X194007571Y-91585765D01*
X194030671Y-91594030D01*
X194052849Y-91604520D01*
X194073893Y-91617133D01*
X194093598Y-91631747D01*
X194111777Y-91648223D01*
X194128253Y-91666402D01*
X194142867Y-91686107D01*
X194155480Y-91707151D01*
X194165970Y-91729329D01*
X194174235Y-91752429D01*
X194180196Y-91776227D01*
X194183796Y-91800496D01*
X194185000Y-91825000D01*
X194185000Y-92575000D01*
X194183796Y-92599504D01*
X194180196Y-92623773D01*
X194174235Y-92647571D01*
X194165970Y-92670671D01*
X194155480Y-92692849D01*
X194142867Y-92713893D01*
X194128253Y-92733598D01*
X194111777Y-92751777D01*
X194093598Y-92768253D01*
X194073893Y-92782867D01*
X194052849Y-92795480D01*
X194030671Y-92805970D01*
X194007571Y-92814235D01*
X193983773Y-92820196D01*
X193959504Y-92823796D01*
X193935000Y-92825000D01*
X192685000Y-92825000D01*
X192660496Y-92823796D01*
X192636227Y-92820196D01*
X192612429Y-92814235D01*
X192589329Y-92805970D01*
X192567151Y-92795480D01*
X192546107Y-92782867D01*
X192526402Y-92768253D01*
X192508223Y-92751777D01*
X192491747Y-92733598D01*
X192477133Y-92713893D01*
X192464520Y-92692849D01*
X192454030Y-92670671D01*
X192445765Y-92647571D01*
X192439804Y-92623773D01*
X192436204Y-92599504D01*
X192435000Y-92575000D01*
X192435000Y-91825000D01*
X192436204Y-91800496D01*
X192439804Y-91776227D01*
X192445765Y-91752429D01*
X192454030Y-91729329D01*
X192464520Y-91707151D01*
X192477133Y-91686107D01*
X192491747Y-91666402D01*
X192508223Y-91648223D01*
X192526402Y-91631747D01*
X192546107Y-91617133D01*
X192567151Y-91604520D01*
X192589329Y-91594030D01*
X192612429Y-91585765D01*
X192636227Y-91579804D01*
X192660496Y-91576204D01*
X192685000Y-91575000D01*
X193935000Y-91575000D01*
X193959504Y-91576204D01*
G37*
M02*
