M48
; DRILL file {KiCad 5.1.5+dfsg1-2} date Thu 23 Jan 2020 12:33:18 AM EET
; FORMAT={-:-/ absolute / inch / decimal}
; #@! TF.CreationDate,2020-01-23T00:33:18+02:00
; #@! TF.GenerationSoftware,Kicad,Pcbnew,5.1.5+dfsg1-2
FMAT,2
INCH
T1C0.0118
T2C0.0394
%
G90
G05
T1
X7.19Y-2.2
X7.2Y-2.1
X7.2Y-2.27
X7.2Y-2.49
X7.2035Y-2.8291
X7.2361Y-2.8344
X7.26Y-2.71
X7.26Y-2.77
X7.289Y-2.8366
X7.2929Y-2.5484
X7.3Y-2.28
X7.31Y-2.71
X7.3169Y-3.0154
X7.3189Y-3.1209
X7.32Y-3.4
X7.3217Y-3.913
X7.3217Y-4.0181
X7.3232Y-3.2114
X7.3236Y-3.635
X7.3248Y-3.6878
X7.3248Y-4.228
X7.3287Y-3.5276
X7.335Y-4.135
X7.35Y-3.06
X7.36Y-2.1
X7.3693Y-3.3697
X7.3756Y-3.2417
X7.396Y-3.3593
X7.3965Y-4.0059
X7.4Y-2.85
X7.4Y-2.98
X7.41Y-2.8
X7.42Y-2.28
X7.42Y-4.16
X7.4213Y-3.2134
X7.4282Y-3.3553
X7.43Y-2.5
X7.4311Y-3.8752
X7.4425Y-2.8579
X7.45Y-3.1315
X7.47Y-2.19
X7.47Y-2.72
X7.48Y-2.79
X7.489Y-3.1071
X7.49Y-2.99
X7.5Y-2.63
X7.5Y-2.8642
X7.5055Y-3.2197
X7.54Y-3.12
X7.5693Y-3.9906
X7.5697Y-3.4409
X7.57Y-2.72
X7.57Y-3.24
X7.5776Y-3.3713
X7.59Y-2.42
X7.5984Y-3.8846
X7.6181Y-3.4591
X7.62Y-3.0
X7.62Y-3.1791
X7.63Y-3.15
X7.665Y-3.5504
X7.67Y-2.61
X7.6791Y-3.5028
X7.687Y-3.439
X7.69Y-2.48
X7.6941Y-3.5815
X7.7Y-3.472
X7.7051Y-2.2969
X7.7209Y-3.535
X7.7366Y-3.8827
X7.7366Y-4.0
X7.74Y-2.73
X7.7476Y-3.6362
X7.75Y-2.84
X7.77Y-2.79
X7.78Y-2.94
X7.79Y-3.33
X7.79Y-3.46
X7.7969Y-2.1819
X7.8043Y-3.5803
X7.8055Y-3.6689
X7.83Y-2.73
X7.83Y-2.93
X7.83Y-3.37
X7.83Y-3.51
X7.8311Y-3.622
X7.8421Y-3.7189
X7.86Y-2.8
X7.86Y-3.0
X7.878Y-3.7476
X7.88Y-3.39
X7.88Y-3.46
X7.88Y-3.54
X7.8819Y-3.6618
X7.8846Y-3.8925
X7.89Y-4.15
X7.91Y-3.06
X7.94Y-2.95
X7.9661Y-3.2563
X7.972Y-3.7012
X7.9748Y-3.8587
X7.99Y-2.81
X8.01Y-2.9
X8.0189Y-3.174
X8.0217Y-3.326
X8.0276Y-2.2807
X8.0307Y-3.9602
X8.0587Y-3.6343
X8.0689Y-3.4862
X8.0709Y-3.8228
X8.0736Y-3.3677
X8.0921Y-2.3685
X8.0996Y-3.2287
X8.1Y-2.94
X8.1083Y-2.1795
X8.1173Y-4.0386
X8.12Y-2.83
X8.1402Y-3.585
X8.1457Y-3.7134
X8.1524Y-3.9055
X8.1681Y-3.8012
X8.27Y-2.61
X8.27Y-3.0
X8.27Y-3.42
X8.28Y-3.78
X8.28Y-4.08
X8.2815Y-2.463
X8.36Y-2.78
X8.37Y-3.69
X8.39Y-2.63
X8.39Y-3.22
X8.39Y-3.98
X8.43Y-3.1
X8.44Y-2.23
X8.44Y-2.5
X8.44Y-3.35
X8.45Y-3.22
X8.45Y-3.85
X8.5Y-2.84
X8.5Y-3.34
X8.52Y-3.15
X8.52Y-4.17
X8.53Y-2.36
X8.55Y-3.48
X8.56Y-3.23
X8.57Y-3.03
X8.62Y-3.34
X8.65Y-2.28
X8.66Y-3.51
X8.67Y-2.48
X8.69Y-2.97
X8.7Y-3.1
X8.7Y-4.06
X8.71Y-3.89
X8.72Y-3.41
X8.76Y-2.58
X8.78Y-3.13
X8.79Y-3.44
X8.81Y-2.46
X8.83Y-3.31
X8.84Y-3.84
X8.84Y-4.09
X8.85Y-2.63
X8.87Y-3.06
X8.87Y-3.23
X8.91Y-3.26
X8.91Y-3.61
X8.93Y-2.63
X8.93Y-4.21
X8.94Y-3.52
X8.96Y-2.16
X9.03Y-3.54
X9.06Y-3.98
X9.07Y-2.28
X9.09Y-3.22
X9.09Y-3.37
X9.1Y-3.08
X9.1Y-3.84
X9.11Y-3.45
X9.11Y-4.13
X9.12Y-2.85
X9.13Y-3.7
X9.15Y-2.7
X9.16Y-3.21
X9.17Y-3.37
X9.19Y-2.64
X9.22Y-3.8
X9.22Y-3.97
X9.24Y-2.31
X9.24Y-3.53
X9.26Y-3.64
X9.29Y-3.12
X9.3Y-2.45
X9.31Y-3.39
X9.33Y-3.01
X9.34Y-3.53
T2
X7.22Y-2.39
X7.32Y-2.39
X7.42Y-2.39
X7.52Y-2.39
X8.21Y-2.26
X8.21Y-2.36
X8.21Y-2.46
X8.21Y-2.56
X8.21Y-2.66
X8.21Y-2.76
X8.21Y-2.86
X8.21Y-2.96
X8.21Y-3.06
X8.21Y-3.16
X8.21Y-3.26
X8.21Y-3.36
X8.21Y-3.46
X8.21Y-3.56
X8.21Y-3.66
X8.21Y-3.76
X8.21Y-3.86
X8.21Y-3.96
X8.21Y-4.06
X8.21Y-4.16
X7.3669Y-3.8122
X7.4669Y-3.8122
X7.5669Y-3.8122
X7.6669Y-3.8122
X7.7669Y-3.8122
X7.8669Y-3.8122
T0
M30
