G04 #@! TF.GenerationSoftware,KiCad,Pcbnew,5.1.5+dfsg1-2*
G04 #@! TF.CreationDate,2020-02-29T14:03:01+02:00*
G04 #@! TF.ProjectId,nrf52-mesh,6e726635-322d-46d6-9573-682e6b696361,rev?*
G04 #@! TF.SameCoordinates,Original*
G04 #@! TF.FileFunction,Soldermask,Top*
G04 #@! TF.FilePolarity,Negative*
%FSLAX46Y46*%
G04 Gerber Fmt 4.6, Leading zero omitted, Abs format (unit mm)*
G04 Created by KiCad (PCBNEW 5.1.5+dfsg1-2) date 2020-02-29 14:03:01*
%MOMM*%
%LPD*%
G04 APERTURE LIST*
%ADD10C,0.100000*%
%ADD11O,1.700000X1.700000*%
%ADD12R,1.700000X1.700000*%
%ADD13R,1.117600X1.117600*%
%ADD14R,0.500000X1.200000*%
%ADD15R,1.200000X0.500000*%
%ADD16R,1.060000X0.650000*%
%ADD17R,0.350000X0.500000*%
%ADD18R,1.450000X0.800000*%
%ADD19R,0.650000X1.060000*%
%ADD20O,1.000000X1.000000*%
%ADD21R,1.000000X1.000000*%
%ADD22R,2.500000X5.000000*%
%ADD23C,17.800000*%
G04 APERTURE END LIST*
D10*
G36*
X205155800Y-111975900D02*
G01*
X205155800Y-114947700D01*
X205182315Y-115102408D01*
X205255339Y-115241350D01*
X205367725Y-115350926D01*
X205663800Y-115443000D01*
X206171800Y-115443000D01*
X206324856Y-115418758D01*
X206462930Y-115348406D01*
X206572506Y-115238830D01*
X206667100Y-114947700D01*
X206667100Y-112877600D01*
X207200500Y-112877600D01*
X207200500Y-111975900D01*
X205155800Y-111975900D01*
G37*
G36*
X201244200Y-111975900D02*
G01*
X201244200Y-114947700D01*
X201217685Y-115102408D01*
X201144661Y-115241350D01*
X201032275Y-115350926D01*
X200736200Y-115443000D01*
X200228200Y-115443000D01*
X200075144Y-115418758D01*
X199937070Y-115348406D01*
X199827494Y-115238830D01*
X199732900Y-114947700D01*
X199732900Y-112877600D01*
X199199500Y-112877600D01*
X199199500Y-111975900D01*
X201244200Y-111975900D01*
G37*
G36*
X201396600Y-111925100D02*
G01*
X199199500Y-111925100D01*
X199199500Y-110261400D01*
X201396600Y-110261400D01*
X201396600Y-111925100D01*
G37*
G36*
X207200500Y-111925100D02*
G01*
X205003400Y-111925100D01*
X205003400Y-110261400D01*
X207200500Y-110261400D01*
X207200500Y-111925100D01*
G37*
D11*
X245364000Y-110998000D03*
D12*
X245364000Y-108458000D03*
D11*
X221742000Y-106934000D03*
D12*
X219202000Y-106934000D03*
D13*
X200774300Y-111094013D03*
X205625700Y-111094013D03*
X200425050Y-114123979D03*
X205974950Y-114123979D03*
D10*
G36*
X201872626Y-107297301D02*
G01*
X201878693Y-107298201D01*
X201884643Y-107299691D01*
X201890418Y-107301758D01*
X201895962Y-107304380D01*
X201901223Y-107307533D01*
X201906150Y-107311187D01*
X201910694Y-107315306D01*
X201914813Y-107319850D01*
X201918467Y-107324777D01*
X201921620Y-107330038D01*
X201924242Y-107335582D01*
X201926309Y-107341357D01*
X201927799Y-107347307D01*
X201928699Y-107353374D01*
X201929000Y-107359500D01*
X201929000Y-107484500D01*
X201928699Y-107490626D01*
X201927799Y-107496693D01*
X201926309Y-107502643D01*
X201924242Y-107508418D01*
X201921620Y-107513962D01*
X201918467Y-107519223D01*
X201914813Y-107524150D01*
X201910694Y-107528694D01*
X201906150Y-107532813D01*
X201901223Y-107536467D01*
X201895962Y-107539620D01*
X201890418Y-107542242D01*
X201884643Y-107544309D01*
X201878693Y-107545799D01*
X201872626Y-107546699D01*
X201866500Y-107547000D01*
X201166500Y-107547000D01*
X201160374Y-107546699D01*
X201154307Y-107545799D01*
X201148357Y-107544309D01*
X201142582Y-107542242D01*
X201137038Y-107539620D01*
X201131777Y-107536467D01*
X201126850Y-107532813D01*
X201122306Y-107528694D01*
X201118187Y-107524150D01*
X201114533Y-107519223D01*
X201111380Y-107513962D01*
X201108758Y-107508418D01*
X201106691Y-107502643D01*
X201105201Y-107496693D01*
X201104301Y-107490626D01*
X201104000Y-107484500D01*
X201104000Y-107359500D01*
X201104301Y-107353374D01*
X201105201Y-107347307D01*
X201106691Y-107341357D01*
X201108758Y-107335582D01*
X201111380Y-107330038D01*
X201114533Y-107324777D01*
X201118187Y-107319850D01*
X201122306Y-107315306D01*
X201126850Y-107311187D01*
X201131777Y-107307533D01*
X201137038Y-107304380D01*
X201142582Y-107301758D01*
X201148357Y-107299691D01*
X201154307Y-107298201D01*
X201160374Y-107297301D01*
X201166500Y-107297000D01*
X201866500Y-107297000D01*
X201872626Y-107297301D01*
G37*
G36*
X201872626Y-106797301D02*
G01*
X201878693Y-106798201D01*
X201884643Y-106799691D01*
X201890418Y-106801758D01*
X201895962Y-106804380D01*
X201901223Y-106807533D01*
X201906150Y-106811187D01*
X201910694Y-106815306D01*
X201914813Y-106819850D01*
X201918467Y-106824777D01*
X201921620Y-106830038D01*
X201924242Y-106835582D01*
X201926309Y-106841357D01*
X201927799Y-106847307D01*
X201928699Y-106853374D01*
X201929000Y-106859500D01*
X201929000Y-106984500D01*
X201928699Y-106990626D01*
X201927799Y-106996693D01*
X201926309Y-107002643D01*
X201924242Y-107008418D01*
X201921620Y-107013962D01*
X201918467Y-107019223D01*
X201914813Y-107024150D01*
X201910694Y-107028694D01*
X201906150Y-107032813D01*
X201901223Y-107036467D01*
X201895962Y-107039620D01*
X201890418Y-107042242D01*
X201884643Y-107044309D01*
X201878693Y-107045799D01*
X201872626Y-107046699D01*
X201866500Y-107047000D01*
X201166500Y-107047000D01*
X201160374Y-107046699D01*
X201154307Y-107045799D01*
X201148357Y-107044309D01*
X201142582Y-107042242D01*
X201137038Y-107039620D01*
X201131777Y-107036467D01*
X201126850Y-107032813D01*
X201122306Y-107028694D01*
X201118187Y-107024150D01*
X201114533Y-107019223D01*
X201111380Y-107013962D01*
X201108758Y-107008418D01*
X201106691Y-107002643D01*
X201105201Y-106996693D01*
X201104301Y-106990626D01*
X201104000Y-106984500D01*
X201104000Y-106859500D01*
X201104301Y-106853374D01*
X201105201Y-106847307D01*
X201106691Y-106841357D01*
X201108758Y-106835582D01*
X201111380Y-106830038D01*
X201114533Y-106824777D01*
X201118187Y-106819850D01*
X201122306Y-106815306D01*
X201126850Y-106811187D01*
X201131777Y-106807533D01*
X201137038Y-106804380D01*
X201142582Y-106801758D01*
X201148357Y-106799691D01*
X201154307Y-106798201D01*
X201160374Y-106797301D01*
X201166500Y-106797000D01*
X201866500Y-106797000D01*
X201872626Y-106797301D01*
G37*
G36*
X201872626Y-106297301D02*
G01*
X201878693Y-106298201D01*
X201884643Y-106299691D01*
X201890418Y-106301758D01*
X201895962Y-106304380D01*
X201901223Y-106307533D01*
X201906150Y-106311187D01*
X201910694Y-106315306D01*
X201914813Y-106319850D01*
X201918467Y-106324777D01*
X201921620Y-106330038D01*
X201924242Y-106335582D01*
X201926309Y-106341357D01*
X201927799Y-106347307D01*
X201928699Y-106353374D01*
X201929000Y-106359500D01*
X201929000Y-106484500D01*
X201928699Y-106490626D01*
X201927799Y-106496693D01*
X201926309Y-106502643D01*
X201924242Y-106508418D01*
X201921620Y-106513962D01*
X201918467Y-106519223D01*
X201914813Y-106524150D01*
X201910694Y-106528694D01*
X201906150Y-106532813D01*
X201901223Y-106536467D01*
X201895962Y-106539620D01*
X201890418Y-106542242D01*
X201884643Y-106544309D01*
X201878693Y-106545799D01*
X201872626Y-106546699D01*
X201866500Y-106547000D01*
X201166500Y-106547000D01*
X201160374Y-106546699D01*
X201154307Y-106545799D01*
X201148357Y-106544309D01*
X201142582Y-106542242D01*
X201137038Y-106539620D01*
X201131777Y-106536467D01*
X201126850Y-106532813D01*
X201122306Y-106528694D01*
X201118187Y-106524150D01*
X201114533Y-106519223D01*
X201111380Y-106513962D01*
X201108758Y-106508418D01*
X201106691Y-106502643D01*
X201105201Y-106496693D01*
X201104301Y-106490626D01*
X201104000Y-106484500D01*
X201104000Y-106359500D01*
X201104301Y-106353374D01*
X201105201Y-106347307D01*
X201106691Y-106341357D01*
X201108758Y-106335582D01*
X201111380Y-106330038D01*
X201114533Y-106324777D01*
X201118187Y-106319850D01*
X201122306Y-106315306D01*
X201126850Y-106311187D01*
X201131777Y-106307533D01*
X201137038Y-106304380D01*
X201142582Y-106301758D01*
X201148357Y-106299691D01*
X201154307Y-106298201D01*
X201160374Y-106297301D01*
X201166500Y-106297000D01*
X201866500Y-106297000D01*
X201872626Y-106297301D01*
G37*
G36*
X201872626Y-105797301D02*
G01*
X201878693Y-105798201D01*
X201884643Y-105799691D01*
X201890418Y-105801758D01*
X201895962Y-105804380D01*
X201901223Y-105807533D01*
X201906150Y-105811187D01*
X201910694Y-105815306D01*
X201914813Y-105819850D01*
X201918467Y-105824777D01*
X201921620Y-105830038D01*
X201924242Y-105835582D01*
X201926309Y-105841357D01*
X201927799Y-105847307D01*
X201928699Y-105853374D01*
X201929000Y-105859500D01*
X201929000Y-105984500D01*
X201928699Y-105990626D01*
X201927799Y-105996693D01*
X201926309Y-106002643D01*
X201924242Y-106008418D01*
X201921620Y-106013962D01*
X201918467Y-106019223D01*
X201914813Y-106024150D01*
X201910694Y-106028694D01*
X201906150Y-106032813D01*
X201901223Y-106036467D01*
X201895962Y-106039620D01*
X201890418Y-106042242D01*
X201884643Y-106044309D01*
X201878693Y-106045799D01*
X201872626Y-106046699D01*
X201866500Y-106047000D01*
X201166500Y-106047000D01*
X201160374Y-106046699D01*
X201154307Y-106045799D01*
X201148357Y-106044309D01*
X201142582Y-106042242D01*
X201137038Y-106039620D01*
X201131777Y-106036467D01*
X201126850Y-106032813D01*
X201122306Y-106028694D01*
X201118187Y-106024150D01*
X201114533Y-106019223D01*
X201111380Y-106013962D01*
X201108758Y-106008418D01*
X201106691Y-106002643D01*
X201105201Y-105996693D01*
X201104301Y-105990626D01*
X201104000Y-105984500D01*
X201104000Y-105859500D01*
X201104301Y-105853374D01*
X201105201Y-105847307D01*
X201106691Y-105841357D01*
X201108758Y-105835582D01*
X201111380Y-105830038D01*
X201114533Y-105824777D01*
X201118187Y-105819850D01*
X201122306Y-105815306D01*
X201126850Y-105811187D01*
X201131777Y-105807533D01*
X201137038Y-105804380D01*
X201142582Y-105801758D01*
X201148357Y-105799691D01*
X201154307Y-105798201D01*
X201160374Y-105797301D01*
X201166500Y-105797000D01*
X201866500Y-105797000D01*
X201872626Y-105797301D01*
G37*
G36*
X201872626Y-105297301D02*
G01*
X201878693Y-105298201D01*
X201884643Y-105299691D01*
X201890418Y-105301758D01*
X201895962Y-105304380D01*
X201901223Y-105307533D01*
X201906150Y-105311187D01*
X201910694Y-105315306D01*
X201914813Y-105319850D01*
X201918467Y-105324777D01*
X201921620Y-105330038D01*
X201924242Y-105335582D01*
X201926309Y-105341357D01*
X201927799Y-105347307D01*
X201928699Y-105353374D01*
X201929000Y-105359500D01*
X201929000Y-105484500D01*
X201928699Y-105490626D01*
X201927799Y-105496693D01*
X201926309Y-105502643D01*
X201924242Y-105508418D01*
X201921620Y-105513962D01*
X201918467Y-105519223D01*
X201914813Y-105524150D01*
X201910694Y-105528694D01*
X201906150Y-105532813D01*
X201901223Y-105536467D01*
X201895962Y-105539620D01*
X201890418Y-105542242D01*
X201884643Y-105544309D01*
X201878693Y-105545799D01*
X201872626Y-105546699D01*
X201866500Y-105547000D01*
X201166500Y-105547000D01*
X201160374Y-105546699D01*
X201154307Y-105545799D01*
X201148357Y-105544309D01*
X201142582Y-105542242D01*
X201137038Y-105539620D01*
X201131777Y-105536467D01*
X201126850Y-105532813D01*
X201122306Y-105528694D01*
X201118187Y-105524150D01*
X201114533Y-105519223D01*
X201111380Y-105513962D01*
X201108758Y-105508418D01*
X201106691Y-105502643D01*
X201105201Y-105496693D01*
X201104301Y-105490626D01*
X201104000Y-105484500D01*
X201104000Y-105359500D01*
X201104301Y-105353374D01*
X201105201Y-105347307D01*
X201106691Y-105341357D01*
X201108758Y-105335582D01*
X201111380Y-105330038D01*
X201114533Y-105324777D01*
X201118187Y-105319850D01*
X201122306Y-105315306D01*
X201126850Y-105311187D01*
X201131777Y-105307533D01*
X201137038Y-105304380D01*
X201142582Y-105301758D01*
X201148357Y-105299691D01*
X201154307Y-105298201D01*
X201160374Y-105297301D01*
X201166500Y-105297000D01*
X201866500Y-105297000D01*
X201872626Y-105297301D01*
G37*
G36*
X201872626Y-104797301D02*
G01*
X201878693Y-104798201D01*
X201884643Y-104799691D01*
X201890418Y-104801758D01*
X201895962Y-104804380D01*
X201901223Y-104807533D01*
X201906150Y-104811187D01*
X201910694Y-104815306D01*
X201914813Y-104819850D01*
X201918467Y-104824777D01*
X201921620Y-104830038D01*
X201924242Y-104835582D01*
X201926309Y-104841357D01*
X201927799Y-104847307D01*
X201928699Y-104853374D01*
X201929000Y-104859500D01*
X201929000Y-104984500D01*
X201928699Y-104990626D01*
X201927799Y-104996693D01*
X201926309Y-105002643D01*
X201924242Y-105008418D01*
X201921620Y-105013962D01*
X201918467Y-105019223D01*
X201914813Y-105024150D01*
X201910694Y-105028694D01*
X201906150Y-105032813D01*
X201901223Y-105036467D01*
X201895962Y-105039620D01*
X201890418Y-105042242D01*
X201884643Y-105044309D01*
X201878693Y-105045799D01*
X201872626Y-105046699D01*
X201866500Y-105047000D01*
X201166500Y-105047000D01*
X201160374Y-105046699D01*
X201154307Y-105045799D01*
X201148357Y-105044309D01*
X201142582Y-105042242D01*
X201137038Y-105039620D01*
X201131777Y-105036467D01*
X201126850Y-105032813D01*
X201122306Y-105028694D01*
X201118187Y-105024150D01*
X201114533Y-105019223D01*
X201111380Y-105013962D01*
X201108758Y-105008418D01*
X201106691Y-105002643D01*
X201105201Y-104996693D01*
X201104301Y-104990626D01*
X201104000Y-104984500D01*
X201104000Y-104859500D01*
X201104301Y-104853374D01*
X201105201Y-104847307D01*
X201106691Y-104841357D01*
X201108758Y-104835582D01*
X201111380Y-104830038D01*
X201114533Y-104824777D01*
X201118187Y-104819850D01*
X201122306Y-104815306D01*
X201126850Y-104811187D01*
X201131777Y-104807533D01*
X201137038Y-104804380D01*
X201142582Y-104801758D01*
X201148357Y-104799691D01*
X201154307Y-104798201D01*
X201160374Y-104797301D01*
X201166500Y-104797000D01*
X201866500Y-104797000D01*
X201872626Y-104797301D01*
G37*
G36*
X202272626Y-103822301D02*
G01*
X202278693Y-103823201D01*
X202284643Y-103824691D01*
X202290418Y-103826758D01*
X202295962Y-103829380D01*
X202301223Y-103832533D01*
X202306150Y-103836187D01*
X202310694Y-103840306D01*
X202314813Y-103844850D01*
X202318467Y-103849777D01*
X202321620Y-103855038D01*
X202324242Y-103860582D01*
X202326309Y-103866357D01*
X202327799Y-103872307D01*
X202328699Y-103878374D01*
X202329000Y-103884500D01*
X202329000Y-104584500D01*
X202328699Y-104590626D01*
X202327799Y-104596693D01*
X202326309Y-104602643D01*
X202324242Y-104608418D01*
X202321620Y-104613962D01*
X202318467Y-104619223D01*
X202314813Y-104624150D01*
X202310694Y-104628694D01*
X202306150Y-104632813D01*
X202301223Y-104636467D01*
X202295962Y-104639620D01*
X202290418Y-104642242D01*
X202284643Y-104644309D01*
X202278693Y-104645799D01*
X202272626Y-104646699D01*
X202266500Y-104647000D01*
X202141500Y-104647000D01*
X202135374Y-104646699D01*
X202129307Y-104645799D01*
X202123357Y-104644309D01*
X202117582Y-104642242D01*
X202112038Y-104639620D01*
X202106777Y-104636467D01*
X202101850Y-104632813D01*
X202097306Y-104628694D01*
X202093187Y-104624150D01*
X202089533Y-104619223D01*
X202086380Y-104613962D01*
X202083758Y-104608418D01*
X202081691Y-104602643D01*
X202080201Y-104596693D01*
X202079301Y-104590626D01*
X202079000Y-104584500D01*
X202079000Y-103884500D01*
X202079301Y-103878374D01*
X202080201Y-103872307D01*
X202081691Y-103866357D01*
X202083758Y-103860582D01*
X202086380Y-103855038D01*
X202089533Y-103849777D01*
X202093187Y-103844850D01*
X202097306Y-103840306D01*
X202101850Y-103836187D01*
X202106777Y-103832533D01*
X202112038Y-103829380D01*
X202117582Y-103826758D01*
X202123357Y-103824691D01*
X202129307Y-103823201D01*
X202135374Y-103822301D01*
X202141500Y-103822000D01*
X202266500Y-103822000D01*
X202272626Y-103822301D01*
G37*
G36*
X202772626Y-103822301D02*
G01*
X202778693Y-103823201D01*
X202784643Y-103824691D01*
X202790418Y-103826758D01*
X202795962Y-103829380D01*
X202801223Y-103832533D01*
X202806150Y-103836187D01*
X202810694Y-103840306D01*
X202814813Y-103844850D01*
X202818467Y-103849777D01*
X202821620Y-103855038D01*
X202824242Y-103860582D01*
X202826309Y-103866357D01*
X202827799Y-103872307D01*
X202828699Y-103878374D01*
X202829000Y-103884500D01*
X202829000Y-104584500D01*
X202828699Y-104590626D01*
X202827799Y-104596693D01*
X202826309Y-104602643D01*
X202824242Y-104608418D01*
X202821620Y-104613962D01*
X202818467Y-104619223D01*
X202814813Y-104624150D01*
X202810694Y-104628694D01*
X202806150Y-104632813D01*
X202801223Y-104636467D01*
X202795962Y-104639620D01*
X202790418Y-104642242D01*
X202784643Y-104644309D01*
X202778693Y-104645799D01*
X202772626Y-104646699D01*
X202766500Y-104647000D01*
X202641500Y-104647000D01*
X202635374Y-104646699D01*
X202629307Y-104645799D01*
X202623357Y-104644309D01*
X202617582Y-104642242D01*
X202612038Y-104639620D01*
X202606777Y-104636467D01*
X202601850Y-104632813D01*
X202597306Y-104628694D01*
X202593187Y-104624150D01*
X202589533Y-104619223D01*
X202586380Y-104613962D01*
X202583758Y-104608418D01*
X202581691Y-104602643D01*
X202580201Y-104596693D01*
X202579301Y-104590626D01*
X202579000Y-104584500D01*
X202579000Y-103884500D01*
X202579301Y-103878374D01*
X202580201Y-103872307D01*
X202581691Y-103866357D01*
X202583758Y-103860582D01*
X202586380Y-103855038D01*
X202589533Y-103849777D01*
X202593187Y-103844850D01*
X202597306Y-103840306D01*
X202601850Y-103836187D01*
X202606777Y-103832533D01*
X202612038Y-103829380D01*
X202617582Y-103826758D01*
X202623357Y-103824691D01*
X202629307Y-103823201D01*
X202635374Y-103822301D01*
X202641500Y-103822000D01*
X202766500Y-103822000D01*
X202772626Y-103822301D01*
G37*
G36*
X203272626Y-103822301D02*
G01*
X203278693Y-103823201D01*
X203284643Y-103824691D01*
X203290418Y-103826758D01*
X203295962Y-103829380D01*
X203301223Y-103832533D01*
X203306150Y-103836187D01*
X203310694Y-103840306D01*
X203314813Y-103844850D01*
X203318467Y-103849777D01*
X203321620Y-103855038D01*
X203324242Y-103860582D01*
X203326309Y-103866357D01*
X203327799Y-103872307D01*
X203328699Y-103878374D01*
X203329000Y-103884500D01*
X203329000Y-104584500D01*
X203328699Y-104590626D01*
X203327799Y-104596693D01*
X203326309Y-104602643D01*
X203324242Y-104608418D01*
X203321620Y-104613962D01*
X203318467Y-104619223D01*
X203314813Y-104624150D01*
X203310694Y-104628694D01*
X203306150Y-104632813D01*
X203301223Y-104636467D01*
X203295962Y-104639620D01*
X203290418Y-104642242D01*
X203284643Y-104644309D01*
X203278693Y-104645799D01*
X203272626Y-104646699D01*
X203266500Y-104647000D01*
X203141500Y-104647000D01*
X203135374Y-104646699D01*
X203129307Y-104645799D01*
X203123357Y-104644309D01*
X203117582Y-104642242D01*
X203112038Y-104639620D01*
X203106777Y-104636467D01*
X203101850Y-104632813D01*
X203097306Y-104628694D01*
X203093187Y-104624150D01*
X203089533Y-104619223D01*
X203086380Y-104613962D01*
X203083758Y-104608418D01*
X203081691Y-104602643D01*
X203080201Y-104596693D01*
X203079301Y-104590626D01*
X203079000Y-104584500D01*
X203079000Y-103884500D01*
X203079301Y-103878374D01*
X203080201Y-103872307D01*
X203081691Y-103866357D01*
X203083758Y-103860582D01*
X203086380Y-103855038D01*
X203089533Y-103849777D01*
X203093187Y-103844850D01*
X203097306Y-103840306D01*
X203101850Y-103836187D01*
X203106777Y-103832533D01*
X203112038Y-103829380D01*
X203117582Y-103826758D01*
X203123357Y-103824691D01*
X203129307Y-103823201D01*
X203135374Y-103822301D01*
X203141500Y-103822000D01*
X203266500Y-103822000D01*
X203272626Y-103822301D01*
G37*
G36*
X203772626Y-103822301D02*
G01*
X203778693Y-103823201D01*
X203784643Y-103824691D01*
X203790418Y-103826758D01*
X203795962Y-103829380D01*
X203801223Y-103832533D01*
X203806150Y-103836187D01*
X203810694Y-103840306D01*
X203814813Y-103844850D01*
X203818467Y-103849777D01*
X203821620Y-103855038D01*
X203824242Y-103860582D01*
X203826309Y-103866357D01*
X203827799Y-103872307D01*
X203828699Y-103878374D01*
X203829000Y-103884500D01*
X203829000Y-104584500D01*
X203828699Y-104590626D01*
X203827799Y-104596693D01*
X203826309Y-104602643D01*
X203824242Y-104608418D01*
X203821620Y-104613962D01*
X203818467Y-104619223D01*
X203814813Y-104624150D01*
X203810694Y-104628694D01*
X203806150Y-104632813D01*
X203801223Y-104636467D01*
X203795962Y-104639620D01*
X203790418Y-104642242D01*
X203784643Y-104644309D01*
X203778693Y-104645799D01*
X203772626Y-104646699D01*
X203766500Y-104647000D01*
X203641500Y-104647000D01*
X203635374Y-104646699D01*
X203629307Y-104645799D01*
X203623357Y-104644309D01*
X203617582Y-104642242D01*
X203612038Y-104639620D01*
X203606777Y-104636467D01*
X203601850Y-104632813D01*
X203597306Y-104628694D01*
X203593187Y-104624150D01*
X203589533Y-104619223D01*
X203586380Y-104613962D01*
X203583758Y-104608418D01*
X203581691Y-104602643D01*
X203580201Y-104596693D01*
X203579301Y-104590626D01*
X203579000Y-104584500D01*
X203579000Y-103884500D01*
X203579301Y-103878374D01*
X203580201Y-103872307D01*
X203581691Y-103866357D01*
X203583758Y-103860582D01*
X203586380Y-103855038D01*
X203589533Y-103849777D01*
X203593187Y-103844850D01*
X203597306Y-103840306D01*
X203601850Y-103836187D01*
X203606777Y-103832533D01*
X203612038Y-103829380D01*
X203617582Y-103826758D01*
X203623357Y-103824691D01*
X203629307Y-103823201D01*
X203635374Y-103822301D01*
X203641500Y-103822000D01*
X203766500Y-103822000D01*
X203772626Y-103822301D01*
G37*
G36*
X204272626Y-103822301D02*
G01*
X204278693Y-103823201D01*
X204284643Y-103824691D01*
X204290418Y-103826758D01*
X204295962Y-103829380D01*
X204301223Y-103832533D01*
X204306150Y-103836187D01*
X204310694Y-103840306D01*
X204314813Y-103844850D01*
X204318467Y-103849777D01*
X204321620Y-103855038D01*
X204324242Y-103860582D01*
X204326309Y-103866357D01*
X204327799Y-103872307D01*
X204328699Y-103878374D01*
X204329000Y-103884500D01*
X204329000Y-104584500D01*
X204328699Y-104590626D01*
X204327799Y-104596693D01*
X204326309Y-104602643D01*
X204324242Y-104608418D01*
X204321620Y-104613962D01*
X204318467Y-104619223D01*
X204314813Y-104624150D01*
X204310694Y-104628694D01*
X204306150Y-104632813D01*
X204301223Y-104636467D01*
X204295962Y-104639620D01*
X204290418Y-104642242D01*
X204284643Y-104644309D01*
X204278693Y-104645799D01*
X204272626Y-104646699D01*
X204266500Y-104647000D01*
X204141500Y-104647000D01*
X204135374Y-104646699D01*
X204129307Y-104645799D01*
X204123357Y-104644309D01*
X204117582Y-104642242D01*
X204112038Y-104639620D01*
X204106777Y-104636467D01*
X204101850Y-104632813D01*
X204097306Y-104628694D01*
X204093187Y-104624150D01*
X204089533Y-104619223D01*
X204086380Y-104613962D01*
X204083758Y-104608418D01*
X204081691Y-104602643D01*
X204080201Y-104596693D01*
X204079301Y-104590626D01*
X204079000Y-104584500D01*
X204079000Y-103884500D01*
X204079301Y-103878374D01*
X204080201Y-103872307D01*
X204081691Y-103866357D01*
X204083758Y-103860582D01*
X204086380Y-103855038D01*
X204089533Y-103849777D01*
X204093187Y-103844850D01*
X204097306Y-103840306D01*
X204101850Y-103836187D01*
X204106777Y-103832533D01*
X204112038Y-103829380D01*
X204117582Y-103826758D01*
X204123357Y-103824691D01*
X204129307Y-103823201D01*
X204135374Y-103822301D01*
X204141500Y-103822000D01*
X204266500Y-103822000D01*
X204272626Y-103822301D01*
G37*
G36*
X204772626Y-103822301D02*
G01*
X204778693Y-103823201D01*
X204784643Y-103824691D01*
X204790418Y-103826758D01*
X204795962Y-103829380D01*
X204801223Y-103832533D01*
X204806150Y-103836187D01*
X204810694Y-103840306D01*
X204814813Y-103844850D01*
X204818467Y-103849777D01*
X204821620Y-103855038D01*
X204824242Y-103860582D01*
X204826309Y-103866357D01*
X204827799Y-103872307D01*
X204828699Y-103878374D01*
X204829000Y-103884500D01*
X204829000Y-104584500D01*
X204828699Y-104590626D01*
X204827799Y-104596693D01*
X204826309Y-104602643D01*
X204824242Y-104608418D01*
X204821620Y-104613962D01*
X204818467Y-104619223D01*
X204814813Y-104624150D01*
X204810694Y-104628694D01*
X204806150Y-104632813D01*
X204801223Y-104636467D01*
X204795962Y-104639620D01*
X204790418Y-104642242D01*
X204784643Y-104644309D01*
X204778693Y-104645799D01*
X204772626Y-104646699D01*
X204766500Y-104647000D01*
X204641500Y-104647000D01*
X204635374Y-104646699D01*
X204629307Y-104645799D01*
X204623357Y-104644309D01*
X204617582Y-104642242D01*
X204612038Y-104639620D01*
X204606777Y-104636467D01*
X204601850Y-104632813D01*
X204597306Y-104628694D01*
X204593187Y-104624150D01*
X204589533Y-104619223D01*
X204586380Y-104613962D01*
X204583758Y-104608418D01*
X204581691Y-104602643D01*
X204580201Y-104596693D01*
X204579301Y-104590626D01*
X204579000Y-104584500D01*
X204579000Y-103884500D01*
X204579301Y-103878374D01*
X204580201Y-103872307D01*
X204581691Y-103866357D01*
X204583758Y-103860582D01*
X204586380Y-103855038D01*
X204589533Y-103849777D01*
X204593187Y-103844850D01*
X204597306Y-103840306D01*
X204601850Y-103836187D01*
X204606777Y-103832533D01*
X204612038Y-103829380D01*
X204617582Y-103826758D01*
X204623357Y-103824691D01*
X204629307Y-103823201D01*
X204635374Y-103822301D01*
X204641500Y-103822000D01*
X204766500Y-103822000D01*
X204772626Y-103822301D01*
G37*
G36*
X205747626Y-104797301D02*
G01*
X205753693Y-104798201D01*
X205759643Y-104799691D01*
X205765418Y-104801758D01*
X205770962Y-104804380D01*
X205776223Y-104807533D01*
X205781150Y-104811187D01*
X205785694Y-104815306D01*
X205789813Y-104819850D01*
X205793467Y-104824777D01*
X205796620Y-104830038D01*
X205799242Y-104835582D01*
X205801309Y-104841357D01*
X205802799Y-104847307D01*
X205803699Y-104853374D01*
X205804000Y-104859500D01*
X205804000Y-104984500D01*
X205803699Y-104990626D01*
X205802799Y-104996693D01*
X205801309Y-105002643D01*
X205799242Y-105008418D01*
X205796620Y-105013962D01*
X205793467Y-105019223D01*
X205789813Y-105024150D01*
X205785694Y-105028694D01*
X205781150Y-105032813D01*
X205776223Y-105036467D01*
X205770962Y-105039620D01*
X205765418Y-105042242D01*
X205759643Y-105044309D01*
X205753693Y-105045799D01*
X205747626Y-105046699D01*
X205741500Y-105047000D01*
X205041500Y-105047000D01*
X205035374Y-105046699D01*
X205029307Y-105045799D01*
X205023357Y-105044309D01*
X205017582Y-105042242D01*
X205012038Y-105039620D01*
X205006777Y-105036467D01*
X205001850Y-105032813D01*
X204997306Y-105028694D01*
X204993187Y-105024150D01*
X204989533Y-105019223D01*
X204986380Y-105013962D01*
X204983758Y-105008418D01*
X204981691Y-105002643D01*
X204980201Y-104996693D01*
X204979301Y-104990626D01*
X204979000Y-104984500D01*
X204979000Y-104859500D01*
X204979301Y-104853374D01*
X204980201Y-104847307D01*
X204981691Y-104841357D01*
X204983758Y-104835582D01*
X204986380Y-104830038D01*
X204989533Y-104824777D01*
X204993187Y-104819850D01*
X204997306Y-104815306D01*
X205001850Y-104811187D01*
X205006777Y-104807533D01*
X205012038Y-104804380D01*
X205017582Y-104801758D01*
X205023357Y-104799691D01*
X205029307Y-104798201D01*
X205035374Y-104797301D01*
X205041500Y-104797000D01*
X205741500Y-104797000D01*
X205747626Y-104797301D01*
G37*
G36*
X205747626Y-105297301D02*
G01*
X205753693Y-105298201D01*
X205759643Y-105299691D01*
X205765418Y-105301758D01*
X205770962Y-105304380D01*
X205776223Y-105307533D01*
X205781150Y-105311187D01*
X205785694Y-105315306D01*
X205789813Y-105319850D01*
X205793467Y-105324777D01*
X205796620Y-105330038D01*
X205799242Y-105335582D01*
X205801309Y-105341357D01*
X205802799Y-105347307D01*
X205803699Y-105353374D01*
X205804000Y-105359500D01*
X205804000Y-105484500D01*
X205803699Y-105490626D01*
X205802799Y-105496693D01*
X205801309Y-105502643D01*
X205799242Y-105508418D01*
X205796620Y-105513962D01*
X205793467Y-105519223D01*
X205789813Y-105524150D01*
X205785694Y-105528694D01*
X205781150Y-105532813D01*
X205776223Y-105536467D01*
X205770962Y-105539620D01*
X205765418Y-105542242D01*
X205759643Y-105544309D01*
X205753693Y-105545799D01*
X205747626Y-105546699D01*
X205741500Y-105547000D01*
X205041500Y-105547000D01*
X205035374Y-105546699D01*
X205029307Y-105545799D01*
X205023357Y-105544309D01*
X205017582Y-105542242D01*
X205012038Y-105539620D01*
X205006777Y-105536467D01*
X205001850Y-105532813D01*
X204997306Y-105528694D01*
X204993187Y-105524150D01*
X204989533Y-105519223D01*
X204986380Y-105513962D01*
X204983758Y-105508418D01*
X204981691Y-105502643D01*
X204980201Y-105496693D01*
X204979301Y-105490626D01*
X204979000Y-105484500D01*
X204979000Y-105359500D01*
X204979301Y-105353374D01*
X204980201Y-105347307D01*
X204981691Y-105341357D01*
X204983758Y-105335582D01*
X204986380Y-105330038D01*
X204989533Y-105324777D01*
X204993187Y-105319850D01*
X204997306Y-105315306D01*
X205001850Y-105311187D01*
X205006777Y-105307533D01*
X205012038Y-105304380D01*
X205017582Y-105301758D01*
X205023357Y-105299691D01*
X205029307Y-105298201D01*
X205035374Y-105297301D01*
X205041500Y-105297000D01*
X205741500Y-105297000D01*
X205747626Y-105297301D01*
G37*
G36*
X205747626Y-105797301D02*
G01*
X205753693Y-105798201D01*
X205759643Y-105799691D01*
X205765418Y-105801758D01*
X205770962Y-105804380D01*
X205776223Y-105807533D01*
X205781150Y-105811187D01*
X205785694Y-105815306D01*
X205789813Y-105819850D01*
X205793467Y-105824777D01*
X205796620Y-105830038D01*
X205799242Y-105835582D01*
X205801309Y-105841357D01*
X205802799Y-105847307D01*
X205803699Y-105853374D01*
X205804000Y-105859500D01*
X205804000Y-105984500D01*
X205803699Y-105990626D01*
X205802799Y-105996693D01*
X205801309Y-106002643D01*
X205799242Y-106008418D01*
X205796620Y-106013962D01*
X205793467Y-106019223D01*
X205789813Y-106024150D01*
X205785694Y-106028694D01*
X205781150Y-106032813D01*
X205776223Y-106036467D01*
X205770962Y-106039620D01*
X205765418Y-106042242D01*
X205759643Y-106044309D01*
X205753693Y-106045799D01*
X205747626Y-106046699D01*
X205741500Y-106047000D01*
X205041500Y-106047000D01*
X205035374Y-106046699D01*
X205029307Y-106045799D01*
X205023357Y-106044309D01*
X205017582Y-106042242D01*
X205012038Y-106039620D01*
X205006777Y-106036467D01*
X205001850Y-106032813D01*
X204997306Y-106028694D01*
X204993187Y-106024150D01*
X204989533Y-106019223D01*
X204986380Y-106013962D01*
X204983758Y-106008418D01*
X204981691Y-106002643D01*
X204980201Y-105996693D01*
X204979301Y-105990626D01*
X204979000Y-105984500D01*
X204979000Y-105859500D01*
X204979301Y-105853374D01*
X204980201Y-105847307D01*
X204981691Y-105841357D01*
X204983758Y-105835582D01*
X204986380Y-105830038D01*
X204989533Y-105824777D01*
X204993187Y-105819850D01*
X204997306Y-105815306D01*
X205001850Y-105811187D01*
X205006777Y-105807533D01*
X205012038Y-105804380D01*
X205017582Y-105801758D01*
X205023357Y-105799691D01*
X205029307Y-105798201D01*
X205035374Y-105797301D01*
X205041500Y-105797000D01*
X205741500Y-105797000D01*
X205747626Y-105797301D01*
G37*
G36*
X205747626Y-106297301D02*
G01*
X205753693Y-106298201D01*
X205759643Y-106299691D01*
X205765418Y-106301758D01*
X205770962Y-106304380D01*
X205776223Y-106307533D01*
X205781150Y-106311187D01*
X205785694Y-106315306D01*
X205789813Y-106319850D01*
X205793467Y-106324777D01*
X205796620Y-106330038D01*
X205799242Y-106335582D01*
X205801309Y-106341357D01*
X205802799Y-106347307D01*
X205803699Y-106353374D01*
X205804000Y-106359500D01*
X205804000Y-106484500D01*
X205803699Y-106490626D01*
X205802799Y-106496693D01*
X205801309Y-106502643D01*
X205799242Y-106508418D01*
X205796620Y-106513962D01*
X205793467Y-106519223D01*
X205789813Y-106524150D01*
X205785694Y-106528694D01*
X205781150Y-106532813D01*
X205776223Y-106536467D01*
X205770962Y-106539620D01*
X205765418Y-106542242D01*
X205759643Y-106544309D01*
X205753693Y-106545799D01*
X205747626Y-106546699D01*
X205741500Y-106547000D01*
X205041500Y-106547000D01*
X205035374Y-106546699D01*
X205029307Y-106545799D01*
X205023357Y-106544309D01*
X205017582Y-106542242D01*
X205012038Y-106539620D01*
X205006777Y-106536467D01*
X205001850Y-106532813D01*
X204997306Y-106528694D01*
X204993187Y-106524150D01*
X204989533Y-106519223D01*
X204986380Y-106513962D01*
X204983758Y-106508418D01*
X204981691Y-106502643D01*
X204980201Y-106496693D01*
X204979301Y-106490626D01*
X204979000Y-106484500D01*
X204979000Y-106359500D01*
X204979301Y-106353374D01*
X204980201Y-106347307D01*
X204981691Y-106341357D01*
X204983758Y-106335582D01*
X204986380Y-106330038D01*
X204989533Y-106324777D01*
X204993187Y-106319850D01*
X204997306Y-106315306D01*
X205001850Y-106311187D01*
X205006777Y-106307533D01*
X205012038Y-106304380D01*
X205017582Y-106301758D01*
X205023357Y-106299691D01*
X205029307Y-106298201D01*
X205035374Y-106297301D01*
X205041500Y-106297000D01*
X205741500Y-106297000D01*
X205747626Y-106297301D01*
G37*
G36*
X205747626Y-106797301D02*
G01*
X205753693Y-106798201D01*
X205759643Y-106799691D01*
X205765418Y-106801758D01*
X205770962Y-106804380D01*
X205776223Y-106807533D01*
X205781150Y-106811187D01*
X205785694Y-106815306D01*
X205789813Y-106819850D01*
X205793467Y-106824777D01*
X205796620Y-106830038D01*
X205799242Y-106835582D01*
X205801309Y-106841357D01*
X205802799Y-106847307D01*
X205803699Y-106853374D01*
X205804000Y-106859500D01*
X205804000Y-106984500D01*
X205803699Y-106990626D01*
X205802799Y-106996693D01*
X205801309Y-107002643D01*
X205799242Y-107008418D01*
X205796620Y-107013962D01*
X205793467Y-107019223D01*
X205789813Y-107024150D01*
X205785694Y-107028694D01*
X205781150Y-107032813D01*
X205776223Y-107036467D01*
X205770962Y-107039620D01*
X205765418Y-107042242D01*
X205759643Y-107044309D01*
X205753693Y-107045799D01*
X205747626Y-107046699D01*
X205741500Y-107047000D01*
X205041500Y-107047000D01*
X205035374Y-107046699D01*
X205029307Y-107045799D01*
X205023357Y-107044309D01*
X205017582Y-107042242D01*
X205012038Y-107039620D01*
X205006777Y-107036467D01*
X205001850Y-107032813D01*
X204997306Y-107028694D01*
X204993187Y-107024150D01*
X204989533Y-107019223D01*
X204986380Y-107013962D01*
X204983758Y-107008418D01*
X204981691Y-107002643D01*
X204980201Y-106996693D01*
X204979301Y-106990626D01*
X204979000Y-106984500D01*
X204979000Y-106859500D01*
X204979301Y-106853374D01*
X204980201Y-106847307D01*
X204981691Y-106841357D01*
X204983758Y-106835582D01*
X204986380Y-106830038D01*
X204989533Y-106824777D01*
X204993187Y-106819850D01*
X204997306Y-106815306D01*
X205001850Y-106811187D01*
X205006777Y-106807533D01*
X205012038Y-106804380D01*
X205017582Y-106801758D01*
X205023357Y-106799691D01*
X205029307Y-106798201D01*
X205035374Y-106797301D01*
X205041500Y-106797000D01*
X205741500Y-106797000D01*
X205747626Y-106797301D01*
G37*
G36*
X205747626Y-107297301D02*
G01*
X205753693Y-107298201D01*
X205759643Y-107299691D01*
X205765418Y-107301758D01*
X205770962Y-107304380D01*
X205776223Y-107307533D01*
X205781150Y-107311187D01*
X205785694Y-107315306D01*
X205789813Y-107319850D01*
X205793467Y-107324777D01*
X205796620Y-107330038D01*
X205799242Y-107335582D01*
X205801309Y-107341357D01*
X205802799Y-107347307D01*
X205803699Y-107353374D01*
X205804000Y-107359500D01*
X205804000Y-107484500D01*
X205803699Y-107490626D01*
X205802799Y-107496693D01*
X205801309Y-107502643D01*
X205799242Y-107508418D01*
X205796620Y-107513962D01*
X205793467Y-107519223D01*
X205789813Y-107524150D01*
X205785694Y-107528694D01*
X205781150Y-107532813D01*
X205776223Y-107536467D01*
X205770962Y-107539620D01*
X205765418Y-107542242D01*
X205759643Y-107544309D01*
X205753693Y-107545799D01*
X205747626Y-107546699D01*
X205741500Y-107547000D01*
X205041500Y-107547000D01*
X205035374Y-107546699D01*
X205029307Y-107545799D01*
X205023357Y-107544309D01*
X205017582Y-107542242D01*
X205012038Y-107539620D01*
X205006777Y-107536467D01*
X205001850Y-107532813D01*
X204997306Y-107528694D01*
X204993187Y-107524150D01*
X204989533Y-107519223D01*
X204986380Y-107513962D01*
X204983758Y-107508418D01*
X204981691Y-107502643D01*
X204980201Y-107496693D01*
X204979301Y-107490626D01*
X204979000Y-107484500D01*
X204979000Y-107359500D01*
X204979301Y-107353374D01*
X204980201Y-107347307D01*
X204981691Y-107341357D01*
X204983758Y-107335582D01*
X204986380Y-107330038D01*
X204989533Y-107324777D01*
X204993187Y-107319850D01*
X204997306Y-107315306D01*
X205001850Y-107311187D01*
X205006777Y-107307533D01*
X205012038Y-107304380D01*
X205017582Y-107301758D01*
X205023357Y-107299691D01*
X205029307Y-107298201D01*
X205035374Y-107297301D01*
X205041500Y-107297000D01*
X205741500Y-107297000D01*
X205747626Y-107297301D01*
G37*
G36*
X204772626Y-107697301D02*
G01*
X204778693Y-107698201D01*
X204784643Y-107699691D01*
X204790418Y-107701758D01*
X204795962Y-107704380D01*
X204801223Y-107707533D01*
X204806150Y-107711187D01*
X204810694Y-107715306D01*
X204814813Y-107719850D01*
X204818467Y-107724777D01*
X204821620Y-107730038D01*
X204824242Y-107735582D01*
X204826309Y-107741357D01*
X204827799Y-107747307D01*
X204828699Y-107753374D01*
X204829000Y-107759500D01*
X204829000Y-108459500D01*
X204828699Y-108465626D01*
X204827799Y-108471693D01*
X204826309Y-108477643D01*
X204824242Y-108483418D01*
X204821620Y-108488962D01*
X204818467Y-108494223D01*
X204814813Y-108499150D01*
X204810694Y-108503694D01*
X204806150Y-108507813D01*
X204801223Y-108511467D01*
X204795962Y-108514620D01*
X204790418Y-108517242D01*
X204784643Y-108519309D01*
X204778693Y-108520799D01*
X204772626Y-108521699D01*
X204766500Y-108522000D01*
X204641500Y-108522000D01*
X204635374Y-108521699D01*
X204629307Y-108520799D01*
X204623357Y-108519309D01*
X204617582Y-108517242D01*
X204612038Y-108514620D01*
X204606777Y-108511467D01*
X204601850Y-108507813D01*
X204597306Y-108503694D01*
X204593187Y-108499150D01*
X204589533Y-108494223D01*
X204586380Y-108488962D01*
X204583758Y-108483418D01*
X204581691Y-108477643D01*
X204580201Y-108471693D01*
X204579301Y-108465626D01*
X204579000Y-108459500D01*
X204579000Y-107759500D01*
X204579301Y-107753374D01*
X204580201Y-107747307D01*
X204581691Y-107741357D01*
X204583758Y-107735582D01*
X204586380Y-107730038D01*
X204589533Y-107724777D01*
X204593187Y-107719850D01*
X204597306Y-107715306D01*
X204601850Y-107711187D01*
X204606777Y-107707533D01*
X204612038Y-107704380D01*
X204617582Y-107701758D01*
X204623357Y-107699691D01*
X204629307Y-107698201D01*
X204635374Y-107697301D01*
X204641500Y-107697000D01*
X204766500Y-107697000D01*
X204772626Y-107697301D01*
G37*
G36*
X204272626Y-107697301D02*
G01*
X204278693Y-107698201D01*
X204284643Y-107699691D01*
X204290418Y-107701758D01*
X204295962Y-107704380D01*
X204301223Y-107707533D01*
X204306150Y-107711187D01*
X204310694Y-107715306D01*
X204314813Y-107719850D01*
X204318467Y-107724777D01*
X204321620Y-107730038D01*
X204324242Y-107735582D01*
X204326309Y-107741357D01*
X204327799Y-107747307D01*
X204328699Y-107753374D01*
X204329000Y-107759500D01*
X204329000Y-108459500D01*
X204328699Y-108465626D01*
X204327799Y-108471693D01*
X204326309Y-108477643D01*
X204324242Y-108483418D01*
X204321620Y-108488962D01*
X204318467Y-108494223D01*
X204314813Y-108499150D01*
X204310694Y-108503694D01*
X204306150Y-108507813D01*
X204301223Y-108511467D01*
X204295962Y-108514620D01*
X204290418Y-108517242D01*
X204284643Y-108519309D01*
X204278693Y-108520799D01*
X204272626Y-108521699D01*
X204266500Y-108522000D01*
X204141500Y-108522000D01*
X204135374Y-108521699D01*
X204129307Y-108520799D01*
X204123357Y-108519309D01*
X204117582Y-108517242D01*
X204112038Y-108514620D01*
X204106777Y-108511467D01*
X204101850Y-108507813D01*
X204097306Y-108503694D01*
X204093187Y-108499150D01*
X204089533Y-108494223D01*
X204086380Y-108488962D01*
X204083758Y-108483418D01*
X204081691Y-108477643D01*
X204080201Y-108471693D01*
X204079301Y-108465626D01*
X204079000Y-108459500D01*
X204079000Y-107759500D01*
X204079301Y-107753374D01*
X204080201Y-107747307D01*
X204081691Y-107741357D01*
X204083758Y-107735582D01*
X204086380Y-107730038D01*
X204089533Y-107724777D01*
X204093187Y-107719850D01*
X204097306Y-107715306D01*
X204101850Y-107711187D01*
X204106777Y-107707533D01*
X204112038Y-107704380D01*
X204117582Y-107701758D01*
X204123357Y-107699691D01*
X204129307Y-107698201D01*
X204135374Y-107697301D01*
X204141500Y-107697000D01*
X204266500Y-107697000D01*
X204272626Y-107697301D01*
G37*
G36*
X203772626Y-107697301D02*
G01*
X203778693Y-107698201D01*
X203784643Y-107699691D01*
X203790418Y-107701758D01*
X203795962Y-107704380D01*
X203801223Y-107707533D01*
X203806150Y-107711187D01*
X203810694Y-107715306D01*
X203814813Y-107719850D01*
X203818467Y-107724777D01*
X203821620Y-107730038D01*
X203824242Y-107735582D01*
X203826309Y-107741357D01*
X203827799Y-107747307D01*
X203828699Y-107753374D01*
X203829000Y-107759500D01*
X203829000Y-108459500D01*
X203828699Y-108465626D01*
X203827799Y-108471693D01*
X203826309Y-108477643D01*
X203824242Y-108483418D01*
X203821620Y-108488962D01*
X203818467Y-108494223D01*
X203814813Y-108499150D01*
X203810694Y-108503694D01*
X203806150Y-108507813D01*
X203801223Y-108511467D01*
X203795962Y-108514620D01*
X203790418Y-108517242D01*
X203784643Y-108519309D01*
X203778693Y-108520799D01*
X203772626Y-108521699D01*
X203766500Y-108522000D01*
X203641500Y-108522000D01*
X203635374Y-108521699D01*
X203629307Y-108520799D01*
X203623357Y-108519309D01*
X203617582Y-108517242D01*
X203612038Y-108514620D01*
X203606777Y-108511467D01*
X203601850Y-108507813D01*
X203597306Y-108503694D01*
X203593187Y-108499150D01*
X203589533Y-108494223D01*
X203586380Y-108488962D01*
X203583758Y-108483418D01*
X203581691Y-108477643D01*
X203580201Y-108471693D01*
X203579301Y-108465626D01*
X203579000Y-108459500D01*
X203579000Y-107759500D01*
X203579301Y-107753374D01*
X203580201Y-107747307D01*
X203581691Y-107741357D01*
X203583758Y-107735582D01*
X203586380Y-107730038D01*
X203589533Y-107724777D01*
X203593187Y-107719850D01*
X203597306Y-107715306D01*
X203601850Y-107711187D01*
X203606777Y-107707533D01*
X203612038Y-107704380D01*
X203617582Y-107701758D01*
X203623357Y-107699691D01*
X203629307Y-107698201D01*
X203635374Y-107697301D01*
X203641500Y-107697000D01*
X203766500Y-107697000D01*
X203772626Y-107697301D01*
G37*
G36*
X203272626Y-107697301D02*
G01*
X203278693Y-107698201D01*
X203284643Y-107699691D01*
X203290418Y-107701758D01*
X203295962Y-107704380D01*
X203301223Y-107707533D01*
X203306150Y-107711187D01*
X203310694Y-107715306D01*
X203314813Y-107719850D01*
X203318467Y-107724777D01*
X203321620Y-107730038D01*
X203324242Y-107735582D01*
X203326309Y-107741357D01*
X203327799Y-107747307D01*
X203328699Y-107753374D01*
X203329000Y-107759500D01*
X203329000Y-108459500D01*
X203328699Y-108465626D01*
X203327799Y-108471693D01*
X203326309Y-108477643D01*
X203324242Y-108483418D01*
X203321620Y-108488962D01*
X203318467Y-108494223D01*
X203314813Y-108499150D01*
X203310694Y-108503694D01*
X203306150Y-108507813D01*
X203301223Y-108511467D01*
X203295962Y-108514620D01*
X203290418Y-108517242D01*
X203284643Y-108519309D01*
X203278693Y-108520799D01*
X203272626Y-108521699D01*
X203266500Y-108522000D01*
X203141500Y-108522000D01*
X203135374Y-108521699D01*
X203129307Y-108520799D01*
X203123357Y-108519309D01*
X203117582Y-108517242D01*
X203112038Y-108514620D01*
X203106777Y-108511467D01*
X203101850Y-108507813D01*
X203097306Y-108503694D01*
X203093187Y-108499150D01*
X203089533Y-108494223D01*
X203086380Y-108488962D01*
X203083758Y-108483418D01*
X203081691Y-108477643D01*
X203080201Y-108471693D01*
X203079301Y-108465626D01*
X203079000Y-108459500D01*
X203079000Y-107759500D01*
X203079301Y-107753374D01*
X203080201Y-107747307D01*
X203081691Y-107741357D01*
X203083758Y-107735582D01*
X203086380Y-107730038D01*
X203089533Y-107724777D01*
X203093187Y-107719850D01*
X203097306Y-107715306D01*
X203101850Y-107711187D01*
X203106777Y-107707533D01*
X203112038Y-107704380D01*
X203117582Y-107701758D01*
X203123357Y-107699691D01*
X203129307Y-107698201D01*
X203135374Y-107697301D01*
X203141500Y-107697000D01*
X203266500Y-107697000D01*
X203272626Y-107697301D01*
G37*
G36*
X202772626Y-107697301D02*
G01*
X202778693Y-107698201D01*
X202784643Y-107699691D01*
X202790418Y-107701758D01*
X202795962Y-107704380D01*
X202801223Y-107707533D01*
X202806150Y-107711187D01*
X202810694Y-107715306D01*
X202814813Y-107719850D01*
X202818467Y-107724777D01*
X202821620Y-107730038D01*
X202824242Y-107735582D01*
X202826309Y-107741357D01*
X202827799Y-107747307D01*
X202828699Y-107753374D01*
X202829000Y-107759500D01*
X202829000Y-108459500D01*
X202828699Y-108465626D01*
X202827799Y-108471693D01*
X202826309Y-108477643D01*
X202824242Y-108483418D01*
X202821620Y-108488962D01*
X202818467Y-108494223D01*
X202814813Y-108499150D01*
X202810694Y-108503694D01*
X202806150Y-108507813D01*
X202801223Y-108511467D01*
X202795962Y-108514620D01*
X202790418Y-108517242D01*
X202784643Y-108519309D01*
X202778693Y-108520799D01*
X202772626Y-108521699D01*
X202766500Y-108522000D01*
X202641500Y-108522000D01*
X202635374Y-108521699D01*
X202629307Y-108520799D01*
X202623357Y-108519309D01*
X202617582Y-108517242D01*
X202612038Y-108514620D01*
X202606777Y-108511467D01*
X202601850Y-108507813D01*
X202597306Y-108503694D01*
X202593187Y-108499150D01*
X202589533Y-108494223D01*
X202586380Y-108488962D01*
X202583758Y-108483418D01*
X202581691Y-108477643D01*
X202580201Y-108471693D01*
X202579301Y-108465626D01*
X202579000Y-108459500D01*
X202579000Y-107759500D01*
X202579301Y-107753374D01*
X202580201Y-107747307D01*
X202581691Y-107741357D01*
X202583758Y-107735582D01*
X202586380Y-107730038D01*
X202589533Y-107724777D01*
X202593187Y-107719850D01*
X202597306Y-107715306D01*
X202601850Y-107711187D01*
X202606777Y-107707533D01*
X202612038Y-107704380D01*
X202617582Y-107701758D01*
X202623357Y-107699691D01*
X202629307Y-107698201D01*
X202635374Y-107697301D01*
X202641500Y-107697000D01*
X202766500Y-107697000D01*
X202772626Y-107697301D01*
G37*
G36*
X202272626Y-107697301D02*
G01*
X202278693Y-107698201D01*
X202284643Y-107699691D01*
X202290418Y-107701758D01*
X202295962Y-107704380D01*
X202301223Y-107707533D01*
X202306150Y-107711187D01*
X202310694Y-107715306D01*
X202314813Y-107719850D01*
X202318467Y-107724777D01*
X202321620Y-107730038D01*
X202324242Y-107735582D01*
X202326309Y-107741357D01*
X202327799Y-107747307D01*
X202328699Y-107753374D01*
X202329000Y-107759500D01*
X202329000Y-108459500D01*
X202328699Y-108465626D01*
X202327799Y-108471693D01*
X202326309Y-108477643D01*
X202324242Y-108483418D01*
X202321620Y-108488962D01*
X202318467Y-108494223D01*
X202314813Y-108499150D01*
X202310694Y-108503694D01*
X202306150Y-108507813D01*
X202301223Y-108511467D01*
X202295962Y-108514620D01*
X202290418Y-108517242D01*
X202284643Y-108519309D01*
X202278693Y-108520799D01*
X202272626Y-108521699D01*
X202266500Y-108522000D01*
X202141500Y-108522000D01*
X202135374Y-108521699D01*
X202129307Y-108520799D01*
X202123357Y-108519309D01*
X202117582Y-108517242D01*
X202112038Y-108514620D01*
X202106777Y-108511467D01*
X202101850Y-108507813D01*
X202097306Y-108503694D01*
X202093187Y-108499150D01*
X202089533Y-108494223D01*
X202086380Y-108488962D01*
X202083758Y-108483418D01*
X202081691Y-108477643D01*
X202080201Y-108471693D01*
X202079301Y-108465626D01*
X202079000Y-108459500D01*
X202079000Y-107759500D01*
X202079301Y-107753374D01*
X202080201Y-107747307D01*
X202081691Y-107741357D01*
X202083758Y-107735582D01*
X202086380Y-107730038D01*
X202089533Y-107724777D01*
X202093187Y-107719850D01*
X202097306Y-107715306D01*
X202101850Y-107711187D01*
X202106777Y-107707533D01*
X202112038Y-107704380D01*
X202117582Y-107701758D01*
X202123357Y-107699691D01*
X202129307Y-107698201D01*
X202135374Y-107697301D01*
X202141500Y-107697000D01*
X202266500Y-107697000D01*
X202272626Y-107697301D01*
G37*
G36*
X204528504Y-104873204D02*
G01*
X204552773Y-104876804D01*
X204576571Y-104882765D01*
X204599671Y-104891030D01*
X204621849Y-104901520D01*
X204642893Y-104914133D01*
X204662598Y-104928747D01*
X204680777Y-104945223D01*
X204697253Y-104963402D01*
X204711867Y-104983107D01*
X204724480Y-105004151D01*
X204734970Y-105026329D01*
X204743235Y-105049429D01*
X204749196Y-105073227D01*
X204752796Y-105097496D01*
X204754000Y-105122000D01*
X204754000Y-107222000D01*
X204752796Y-107246504D01*
X204749196Y-107270773D01*
X204743235Y-107294571D01*
X204734970Y-107317671D01*
X204724480Y-107339849D01*
X204711867Y-107360893D01*
X204697253Y-107380598D01*
X204680777Y-107398777D01*
X204662598Y-107415253D01*
X204642893Y-107429867D01*
X204621849Y-107442480D01*
X204599671Y-107452970D01*
X204576571Y-107461235D01*
X204552773Y-107467196D01*
X204528504Y-107470796D01*
X204504000Y-107472000D01*
X202404000Y-107472000D01*
X202379496Y-107470796D01*
X202355227Y-107467196D01*
X202331429Y-107461235D01*
X202308329Y-107452970D01*
X202286151Y-107442480D01*
X202265107Y-107429867D01*
X202245402Y-107415253D01*
X202227223Y-107398777D01*
X202210747Y-107380598D01*
X202196133Y-107360893D01*
X202183520Y-107339849D01*
X202173030Y-107317671D01*
X202164765Y-107294571D01*
X202158804Y-107270773D01*
X202155204Y-107246504D01*
X202154000Y-107222000D01*
X202154000Y-105122000D01*
X202155204Y-105097496D01*
X202158804Y-105073227D01*
X202164765Y-105049429D01*
X202173030Y-105026329D01*
X202183520Y-105004151D01*
X202196133Y-104983107D01*
X202210747Y-104963402D01*
X202227223Y-104945223D01*
X202245402Y-104928747D01*
X202265107Y-104914133D01*
X202286151Y-104901520D01*
X202308329Y-104891030D01*
X202331429Y-104882765D01*
X202355227Y-104876804D01*
X202379496Y-104873204D01*
X202404000Y-104872000D01*
X204504000Y-104872000D01*
X204528504Y-104873204D01*
G37*
D14*
X196807001Y-95721001D03*
X197557001Y-95721001D03*
X198307001Y-95721001D03*
X199057001Y-95721001D03*
X199807001Y-95721001D03*
X200557001Y-95721001D03*
X201307001Y-95721001D03*
X202057001Y-95721001D03*
X202807001Y-95721001D03*
X203557001Y-95721001D03*
X204307001Y-95721001D03*
X205057001Y-95721001D03*
D15*
X205507001Y-94571001D03*
X205507001Y-93821001D03*
X205507001Y-93071001D03*
X205507001Y-92321001D03*
X205507001Y-91571001D03*
X205507001Y-90821001D03*
X205507001Y-90071001D03*
X205507001Y-89321001D03*
X205507001Y-88571001D03*
X205507001Y-87821001D03*
X205507001Y-87071001D03*
D14*
X205057001Y-85921001D03*
X204307001Y-85921001D03*
X203557001Y-85921001D03*
X202807001Y-85921001D03*
X202057001Y-85921001D03*
X201307001Y-85921001D03*
X200557001Y-85921001D03*
X199807001Y-85921001D03*
X199057001Y-85921001D03*
X198307001Y-85921001D03*
X197557001Y-85921001D03*
X196807001Y-85921001D03*
X196057001Y-85921001D03*
X195307001Y-85921001D03*
X194557001Y-85921001D03*
X193807001Y-85921001D03*
D16*
X241638000Y-101666000D03*
X241638000Y-103566000D03*
X239438000Y-103566000D03*
X239438000Y-102616000D03*
X239438000Y-101666000D03*
D17*
X235003000Y-90862000D03*
X234353000Y-90862000D03*
X233703000Y-90862000D03*
X233703000Y-92662000D03*
X234353000Y-92662000D03*
X235003000Y-92662000D03*
D18*
X234353000Y-91762000D03*
D16*
X213444000Y-104968000D03*
X213444000Y-106868000D03*
X211244000Y-106868000D03*
X211244000Y-105918000D03*
X211244000Y-104968000D03*
D19*
X222254999Y-102239001D03*
X220354999Y-102239001D03*
X220354999Y-100039001D03*
X221304999Y-100039001D03*
X222254999Y-100039001D03*
D10*
G36*
X196480958Y-69784710D02*
G01*
X196495276Y-69786834D01*
X196509317Y-69790351D01*
X196522946Y-69795228D01*
X196536031Y-69801417D01*
X196548447Y-69808858D01*
X196560073Y-69817481D01*
X196570798Y-69827202D01*
X196580519Y-69837927D01*
X196589142Y-69849553D01*
X196596583Y-69861969D01*
X196602772Y-69875054D01*
X196607649Y-69888683D01*
X196611166Y-69902724D01*
X196613290Y-69917042D01*
X196614000Y-69931500D01*
X196614000Y-70276500D01*
X196613290Y-70290958D01*
X196611166Y-70305276D01*
X196607649Y-70319317D01*
X196602772Y-70332946D01*
X196596583Y-70346031D01*
X196589142Y-70358447D01*
X196580519Y-70370073D01*
X196570798Y-70380798D01*
X196560073Y-70390519D01*
X196548447Y-70399142D01*
X196536031Y-70406583D01*
X196522946Y-70412772D01*
X196509317Y-70417649D01*
X196495276Y-70421166D01*
X196480958Y-70423290D01*
X196466500Y-70424000D01*
X196171500Y-70424000D01*
X196157042Y-70423290D01*
X196142724Y-70421166D01*
X196128683Y-70417649D01*
X196115054Y-70412772D01*
X196101969Y-70406583D01*
X196089553Y-70399142D01*
X196077927Y-70390519D01*
X196067202Y-70380798D01*
X196057481Y-70370073D01*
X196048858Y-70358447D01*
X196041417Y-70346031D01*
X196035228Y-70332946D01*
X196030351Y-70319317D01*
X196026834Y-70305276D01*
X196024710Y-70290958D01*
X196024000Y-70276500D01*
X196024000Y-69931500D01*
X196024710Y-69917042D01*
X196026834Y-69902724D01*
X196030351Y-69888683D01*
X196035228Y-69875054D01*
X196041417Y-69861969D01*
X196048858Y-69849553D01*
X196057481Y-69837927D01*
X196067202Y-69827202D01*
X196077927Y-69817481D01*
X196089553Y-69808858D01*
X196101969Y-69801417D01*
X196115054Y-69795228D01*
X196128683Y-69790351D01*
X196142724Y-69786834D01*
X196157042Y-69784710D01*
X196171500Y-69784000D01*
X196466500Y-69784000D01*
X196480958Y-69784710D01*
G37*
G36*
X195510958Y-69784710D02*
G01*
X195525276Y-69786834D01*
X195539317Y-69790351D01*
X195552946Y-69795228D01*
X195566031Y-69801417D01*
X195578447Y-69808858D01*
X195590073Y-69817481D01*
X195600798Y-69827202D01*
X195610519Y-69837927D01*
X195619142Y-69849553D01*
X195626583Y-69861969D01*
X195632772Y-69875054D01*
X195637649Y-69888683D01*
X195641166Y-69902724D01*
X195643290Y-69917042D01*
X195644000Y-69931500D01*
X195644000Y-70276500D01*
X195643290Y-70290958D01*
X195641166Y-70305276D01*
X195637649Y-70319317D01*
X195632772Y-70332946D01*
X195626583Y-70346031D01*
X195619142Y-70358447D01*
X195610519Y-70370073D01*
X195600798Y-70380798D01*
X195590073Y-70390519D01*
X195578447Y-70399142D01*
X195566031Y-70406583D01*
X195552946Y-70412772D01*
X195539317Y-70417649D01*
X195525276Y-70421166D01*
X195510958Y-70423290D01*
X195496500Y-70424000D01*
X195201500Y-70424000D01*
X195187042Y-70423290D01*
X195172724Y-70421166D01*
X195158683Y-70417649D01*
X195145054Y-70412772D01*
X195131969Y-70406583D01*
X195119553Y-70399142D01*
X195107927Y-70390519D01*
X195097202Y-70380798D01*
X195087481Y-70370073D01*
X195078858Y-70358447D01*
X195071417Y-70346031D01*
X195065228Y-70332946D01*
X195060351Y-70319317D01*
X195056834Y-70305276D01*
X195054710Y-70290958D01*
X195054000Y-70276500D01*
X195054000Y-69931500D01*
X195054710Y-69917042D01*
X195056834Y-69902724D01*
X195060351Y-69888683D01*
X195065228Y-69875054D01*
X195071417Y-69861969D01*
X195078858Y-69849553D01*
X195087481Y-69837927D01*
X195097202Y-69827202D01*
X195107927Y-69817481D01*
X195119553Y-69808858D01*
X195131969Y-69801417D01*
X195145054Y-69795228D01*
X195158683Y-69790351D01*
X195172724Y-69786834D01*
X195187042Y-69784710D01*
X195201500Y-69784000D01*
X195496500Y-69784000D01*
X195510958Y-69784710D01*
G37*
G36*
X213244958Y-53528710D02*
G01*
X213259276Y-53530834D01*
X213273317Y-53534351D01*
X213286946Y-53539228D01*
X213300031Y-53545417D01*
X213312447Y-53552858D01*
X213324073Y-53561481D01*
X213334798Y-53571202D01*
X213344519Y-53581927D01*
X213353142Y-53593553D01*
X213360583Y-53605969D01*
X213366772Y-53619054D01*
X213371649Y-53632683D01*
X213375166Y-53646724D01*
X213377290Y-53661042D01*
X213378000Y-53675500D01*
X213378000Y-54020500D01*
X213377290Y-54034958D01*
X213375166Y-54049276D01*
X213371649Y-54063317D01*
X213366772Y-54076946D01*
X213360583Y-54090031D01*
X213353142Y-54102447D01*
X213344519Y-54114073D01*
X213334798Y-54124798D01*
X213324073Y-54134519D01*
X213312447Y-54143142D01*
X213300031Y-54150583D01*
X213286946Y-54156772D01*
X213273317Y-54161649D01*
X213259276Y-54165166D01*
X213244958Y-54167290D01*
X213230500Y-54168000D01*
X212935500Y-54168000D01*
X212921042Y-54167290D01*
X212906724Y-54165166D01*
X212892683Y-54161649D01*
X212879054Y-54156772D01*
X212865969Y-54150583D01*
X212853553Y-54143142D01*
X212841927Y-54134519D01*
X212831202Y-54124798D01*
X212821481Y-54114073D01*
X212812858Y-54102447D01*
X212805417Y-54090031D01*
X212799228Y-54076946D01*
X212794351Y-54063317D01*
X212790834Y-54049276D01*
X212788710Y-54034958D01*
X212788000Y-54020500D01*
X212788000Y-53675500D01*
X212788710Y-53661042D01*
X212790834Y-53646724D01*
X212794351Y-53632683D01*
X212799228Y-53619054D01*
X212805417Y-53605969D01*
X212812858Y-53593553D01*
X212821481Y-53581927D01*
X212831202Y-53571202D01*
X212841927Y-53561481D01*
X212853553Y-53552858D01*
X212865969Y-53545417D01*
X212879054Y-53539228D01*
X212892683Y-53534351D01*
X212906724Y-53530834D01*
X212921042Y-53528710D01*
X212935500Y-53528000D01*
X213230500Y-53528000D01*
X213244958Y-53528710D01*
G37*
G36*
X212274958Y-53528710D02*
G01*
X212289276Y-53530834D01*
X212303317Y-53534351D01*
X212316946Y-53539228D01*
X212330031Y-53545417D01*
X212342447Y-53552858D01*
X212354073Y-53561481D01*
X212364798Y-53571202D01*
X212374519Y-53581927D01*
X212383142Y-53593553D01*
X212390583Y-53605969D01*
X212396772Y-53619054D01*
X212401649Y-53632683D01*
X212405166Y-53646724D01*
X212407290Y-53661042D01*
X212408000Y-53675500D01*
X212408000Y-54020500D01*
X212407290Y-54034958D01*
X212405166Y-54049276D01*
X212401649Y-54063317D01*
X212396772Y-54076946D01*
X212390583Y-54090031D01*
X212383142Y-54102447D01*
X212374519Y-54114073D01*
X212364798Y-54124798D01*
X212354073Y-54134519D01*
X212342447Y-54143142D01*
X212330031Y-54150583D01*
X212316946Y-54156772D01*
X212303317Y-54161649D01*
X212289276Y-54165166D01*
X212274958Y-54167290D01*
X212260500Y-54168000D01*
X211965500Y-54168000D01*
X211951042Y-54167290D01*
X211936724Y-54165166D01*
X211922683Y-54161649D01*
X211909054Y-54156772D01*
X211895969Y-54150583D01*
X211883553Y-54143142D01*
X211871927Y-54134519D01*
X211861202Y-54124798D01*
X211851481Y-54114073D01*
X211842858Y-54102447D01*
X211835417Y-54090031D01*
X211829228Y-54076946D01*
X211824351Y-54063317D01*
X211820834Y-54049276D01*
X211818710Y-54034958D01*
X211818000Y-54020500D01*
X211818000Y-53675500D01*
X211818710Y-53661042D01*
X211820834Y-53646724D01*
X211824351Y-53632683D01*
X211829228Y-53619054D01*
X211835417Y-53605969D01*
X211842858Y-53593553D01*
X211851481Y-53581927D01*
X211861202Y-53571202D01*
X211871927Y-53561481D01*
X211883553Y-53552858D01*
X211895969Y-53545417D01*
X211909054Y-53539228D01*
X211922683Y-53534351D01*
X211936724Y-53530834D01*
X211951042Y-53528710D01*
X211965500Y-53528000D01*
X212260500Y-53528000D01*
X212274958Y-53528710D01*
G37*
G36*
X214514958Y-69022710D02*
G01*
X214529276Y-69024834D01*
X214543317Y-69028351D01*
X214556946Y-69033228D01*
X214570031Y-69039417D01*
X214582447Y-69046858D01*
X214594073Y-69055481D01*
X214604798Y-69065202D01*
X214614519Y-69075927D01*
X214623142Y-69087553D01*
X214630583Y-69099969D01*
X214636772Y-69113054D01*
X214641649Y-69126683D01*
X214645166Y-69140724D01*
X214647290Y-69155042D01*
X214648000Y-69169500D01*
X214648000Y-69514500D01*
X214647290Y-69528958D01*
X214645166Y-69543276D01*
X214641649Y-69557317D01*
X214636772Y-69570946D01*
X214630583Y-69584031D01*
X214623142Y-69596447D01*
X214614519Y-69608073D01*
X214604798Y-69618798D01*
X214594073Y-69628519D01*
X214582447Y-69637142D01*
X214570031Y-69644583D01*
X214556946Y-69650772D01*
X214543317Y-69655649D01*
X214529276Y-69659166D01*
X214514958Y-69661290D01*
X214500500Y-69662000D01*
X214205500Y-69662000D01*
X214191042Y-69661290D01*
X214176724Y-69659166D01*
X214162683Y-69655649D01*
X214149054Y-69650772D01*
X214135969Y-69644583D01*
X214123553Y-69637142D01*
X214111927Y-69628519D01*
X214101202Y-69618798D01*
X214091481Y-69608073D01*
X214082858Y-69596447D01*
X214075417Y-69584031D01*
X214069228Y-69570946D01*
X214064351Y-69557317D01*
X214060834Y-69543276D01*
X214058710Y-69528958D01*
X214058000Y-69514500D01*
X214058000Y-69169500D01*
X214058710Y-69155042D01*
X214060834Y-69140724D01*
X214064351Y-69126683D01*
X214069228Y-69113054D01*
X214075417Y-69099969D01*
X214082858Y-69087553D01*
X214091481Y-69075927D01*
X214101202Y-69065202D01*
X214111927Y-69055481D01*
X214123553Y-69046858D01*
X214135969Y-69039417D01*
X214149054Y-69033228D01*
X214162683Y-69028351D01*
X214176724Y-69024834D01*
X214191042Y-69022710D01*
X214205500Y-69022000D01*
X214500500Y-69022000D01*
X214514958Y-69022710D01*
G37*
G36*
X213544958Y-69022710D02*
G01*
X213559276Y-69024834D01*
X213573317Y-69028351D01*
X213586946Y-69033228D01*
X213600031Y-69039417D01*
X213612447Y-69046858D01*
X213624073Y-69055481D01*
X213634798Y-69065202D01*
X213644519Y-69075927D01*
X213653142Y-69087553D01*
X213660583Y-69099969D01*
X213666772Y-69113054D01*
X213671649Y-69126683D01*
X213675166Y-69140724D01*
X213677290Y-69155042D01*
X213678000Y-69169500D01*
X213678000Y-69514500D01*
X213677290Y-69528958D01*
X213675166Y-69543276D01*
X213671649Y-69557317D01*
X213666772Y-69570946D01*
X213660583Y-69584031D01*
X213653142Y-69596447D01*
X213644519Y-69608073D01*
X213634798Y-69618798D01*
X213624073Y-69628519D01*
X213612447Y-69637142D01*
X213600031Y-69644583D01*
X213586946Y-69650772D01*
X213573317Y-69655649D01*
X213559276Y-69659166D01*
X213544958Y-69661290D01*
X213530500Y-69662000D01*
X213235500Y-69662000D01*
X213221042Y-69661290D01*
X213206724Y-69659166D01*
X213192683Y-69655649D01*
X213179054Y-69650772D01*
X213165969Y-69644583D01*
X213153553Y-69637142D01*
X213141927Y-69628519D01*
X213131202Y-69618798D01*
X213121481Y-69608073D01*
X213112858Y-69596447D01*
X213105417Y-69584031D01*
X213099228Y-69570946D01*
X213094351Y-69557317D01*
X213090834Y-69543276D01*
X213088710Y-69528958D01*
X213088000Y-69514500D01*
X213088000Y-69169500D01*
X213088710Y-69155042D01*
X213090834Y-69140724D01*
X213094351Y-69126683D01*
X213099228Y-69113054D01*
X213105417Y-69099969D01*
X213112858Y-69087553D01*
X213121481Y-69075927D01*
X213131202Y-69065202D01*
X213141927Y-69055481D01*
X213153553Y-69046858D01*
X213165969Y-69039417D01*
X213179054Y-69033228D01*
X213192683Y-69028351D01*
X213206724Y-69024834D01*
X213221042Y-69022710D01*
X213235500Y-69022000D01*
X213530500Y-69022000D01*
X213544958Y-69022710D01*
G37*
G36*
X195464958Y-54036710D02*
G01*
X195479276Y-54038834D01*
X195493317Y-54042351D01*
X195506946Y-54047228D01*
X195520031Y-54053417D01*
X195532447Y-54060858D01*
X195544073Y-54069481D01*
X195554798Y-54079202D01*
X195564519Y-54089927D01*
X195573142Y-54101553D01*
X195580583Y-54113969D01*
X195586772Y-54127054D01*
X195591649Y-54140683D01*
X195595166Y-54154724D01*
X195597290Y-54169042D01*
X195598000Y-54183500D01*
X195598000Y-54528500D01*
X195597290Y-54542958D01*
X195595166Y-54557276D01*
X195591649Y-54571317D01*
X195586772Y-54584946D01*
X195580583Y-54598031D01*
X195573142Y-54610447D01*
X195564519Y-54622073D01*
X195554798Y-54632798D01*
X195544073Y-54642519D01*
X195532447Y-54651142D01*
X195520031Y-54658583D01*
X195506946Y-54664772D01*
X195493317Y-54669649D01*
X195479276Y-54673166D01*
X195464958Y-54675290D01*
X195450500Y-54676000D01*
X195155500Y-54676000D01*
X195141042Y-54675290D01*
X195126724Y-54673166D01*
X195112683Y-54669649D01*
X195099054Y-54664772D01*
X195085969Y-54658583D01*
X195073553Y-54651142D01*
X195061927Y-54642519D01*
X195051202Y-54632798D01*
X195041481Y-54622073D01*
X195032858Y-54610447D01*
X195025417Y-54598031D01*
X195019228Y-54584946D01*
X195014351Y-54571317D01*
X195010834Y-54557276D01*
X195008710Y-54542958D01*
X195008000Y-54528500D01*
X195008000Y-54183500D01*
X195008710Y-54169042D01*
X195010834Y-54154724D01*
X195014351Y-54140683D01*
X195019228Y-54127054D01*
X195025417Y-54113969D01*
X195032858Y-54101553D01*
X195041481Y-54089927D01*
X195051202Y-54079202D01*
X195061927Y-54069481D01*
X195073553Y-54060858D01*
X195085969Y-54053417D01*
X195099054Y-54047228D01*
X195112683Y-54042351D01*
X195126724Y-54038834D01*
X195141042Y-54036710D01*
X195155500Y-54036000D01*
X195450500Y-54036000D01*
X195464958Y-54036710D01*
G37*
G36*
X194494958Y-54036710D02*
G01*
X194509276Y-54038834D01*
X194523317Y-54042351D01*
X194536946Y-54047228D01*
X194550031Y-54053417D01*
X194562447Y-54060858D01*
X194574073Y-54069481D01*
X194584798Y-54079202D01*
X194594519Y-54089927D01*
X194603142Y-54101553D01*
X194610583Y-54113969D01*
X194616772Y-54127054D01*
X194621649Y-54140683D01*
X194625166Y-54154724D01*
X194627290Y-54169042D01*
X194628000Y-54183500D01*
X194628000Y-54528500D01*
X194627290Y-54542958D01*
X194625166Y-54557276D01*
X194621649Y-54571317D01*
X194616772Y-54584946D01*
X194610583Y-54598031D01*
X194603142Y-54610447D01*
X194594519Y-54622073D01*
X194584798Y-54632798D01*
X194574073Y-54642519D01*
X194562447Y-54651142D01*
X194550031Y-54658583D01*
X194536946Y-54664772D01*
X194523317Y-54669649D01*
X194509276Y-54673166D01*
X194494958Y-54675290D01*
X194480500Y-54676000D01*
X194185500Y-54676000D01*
X194171042Y-54675290D01*
X194156724Y-54673166D01*
X194142683Y-54669649D01*
X194129054Y-54664772D01*
X194115969Y-54658583D01*
X194103553Y-54651142D01*
X194091927Y-54642519D01*
X194081202Y-54632798D01*
X194071481Y-54622073D01*
X194062858Y-54610447D01*
X194055417Y-54598031D01*
X194049228Y-54584946D01*
X194044351Y-54571317D01*
X194040834Y-54557276D01*
X194038710Y-54542958D01*
X194038000Y-54528500D01*
X194038000Y-54183500D01*
X194038710Y-54169042D01*
X194040834Y-54154724D01*
X194044351Y-54140683D01*
X194049228Y-54127054D01*
X194055417Y-54113969D01*
X194062858Y-54101553D01*
X194071481Y-54089927D01*
X194081202Y-54079202D01*
X194091927Y-54069481D01*
X194103553Y-54060858D01*
X194115969Y-54053417D01*
X194129054Y-54047228D01*
X194142683Y-54042351D01*
X194156724Y-54038834D01*
X194171042Y-54036710D01*
X194185500Y-54036000D01*
X194480500Y-54036000D01*
X194494958Y-54036710D01*
G37*
G36*
X241457959Y-99479711D02*
G01*
X241472277Y-99481835D01*
X241486318Y-99485352D01*
X241499947Y-99490229D01*
X241513032Y-99496418D01*
X241525448Y-99503859D01*
X241537074Y-99512482D01*
X241547799Y-99522203D01*
X241557520Y-99532928D01*
X241566143Y-99544554D01*
X241573584Y-99556970D01*
X241579773Y-99570055D01*
X241584650Y-99583684D01*
X241588167Y-99597725D01*
X241590291Y-99612043D01*
X241591001Y-99626501D01*
X241591001Y-99971501D01*
X241590291Y-99985959D01*
X241588167Y-100000277D01*
X241584650Y-100014318D01*
X241579773Y-100027947D01*
X241573584Y-100041032D01*
X241566143Y-100053448D01*
X241557520Y-100065074D01*
X241547799Y-100075799D01*
X241537074Y-100085520D01*
X241525448Y-100094143D01*
X241513032Y-100101584D01*
X241499947Y-100107773D01*
X241486318Y-100112650D01*
X241472277Y-100116167D01*
X241457959Y-100118291D01*
X241443501Y-100119001D01*
X241148501Y-100119001D01*
X241134043Y-100118291D01*
X241119725Y-100116167D01*
X241105684Y-100112650D01*
X241092055Y-100107773D01*
X241078970Y-100101584D01*
X241066554Y-100094143D01*
X241054928Y-100085520D01*
X241044203Y-100075799D01*
X241034482Y-100065074D01*
X241025859Y-100053448D01*
X241018418Y-100041032D01*
X241012229Y-100027947D01*
X241007352Y-100014318D01*
X241003835Y-100000277D01*
X241001711Y-99985959D01*
X241001001Y-99971501D01*
X241001001Y-99626501D01*
X241001711Y-99612043D01*
X241003835Y-99597725D01*
X241007352Y-99583684D01*
X241012229Y-99570055D01*
X241018418Y-99556970D01*
X241025859Y-99544554D01*
X241034482Y-99532928D01*
X241044203Y-99522203D01*
X241054928Y-99512482D01*
X241066554Y-99503859D01*
X241078970Y-99496418D01*
X241092055Y-99490229D01*
X241105684Y-99485352D01*
X241119725Y-99481835D01*
X241134043Y-99479711D01*
X241148501Y-99479001D01*
X241443501Y-99479001D01*
X241457959Y-99479711D01*
G37*
G36*
X240487959Y-99479711D02*
G01*
X240502277Y-99481835D01*
X240516318Y-99485352D01*
X240529947Y-99490229D01*
X240543032Y-99496418D01*
X240555448Y-99503859D01*
X240567074Y-99512482D01*
X240577799Y-99522203D01*
X240587520Y-99532928D01*
X240596143Y-99544554D01*
X240603584Y-99556970D01*
X240609773Y-99570055D01*
X240614650Y-99583684D01*
X240618167Y-99597725D01*
X240620291Y-99612043D01*
X240621001Y-99626501D01*
X240621001Y-99971501D01*
X240620291Y-99985959D01*
X240618167Y-100000277D01*
X240614650Y-100014318D01*
X240609773Y-100027947D01*
X240603584Y-100041032D01*
X240596143Y-100053448D01*
X240587520Y-100065074D01*
X240577799Y-100075799D01*
X240567074Y-100085520D01*
X240555448Y-100094143D01*
X240543032Y-100101584D01*
X240529947Y-100107773D01*
X240516318Y-100112650D01*
X240502277Y-100116167D01*
X240487959Y-100118291D01*
X240473501Y-100119001D01*
X240178501Y-100119001D01*
X240164043Y-100118291D01*
X240149725Y-100116167D01*
X240135684Y-100112650D01*
X240122055Y-100107773D01*
X240108970Y-100101584D01*
X240096554Y-100094143D01*
X240084928Y-100085520D01*
X240074203Y-100075799D01*
X240064482Y-100065074D01*
X240055859Y-100053448D01*
X240048418Y-100041032D01*
X240042229Y-100027947D01*
X240037352Y-100014318D01*
X240033835Y-100000277D01*
X240031711Y-99985959D01*
X240031001Y-99971501D01*
X240031001Y-99626501D01*
X240031711Y-99612043D01*
X240033835Y-99597725D01*
X240037352Y-99583684D01*
X240042229Y-99570055D01*
X240048418Y-99556970D01*
X240055859Y-99544554D01*
X240064482Y-99532928D01*
X240074203Y-99522203D01*
X240084928Y-99512482D01*
X240096554Y-99503859D01*
X240108970Y-99496418D01*
X240122055Y-99490229D01*
X240135684Y-99485352D01*
X240149725Y-99481835D01*
X240164043Y-99479711D01*
X240178501Y-99479001D01*
X240473501Y-99479001D01*
X240487959Y-99479711D01*
G37*
G36*
X239516958Y-99470710D02*
G01*
X239531276Y-99472834D01*
X239545317Y-99476351D01*
X239558946Y-99481228D01*
X239572031Y-99487417D01*
X239584447Y-99494858D01*
X239596073Y-99503481D01*
X239606798Y-99513202D01*
X239616519Y-99523927D01*
X239625142Y-99535553D01*
X239632583Y-99547969D01*
X239638772Y-99561054D01*
X239643649Y-99574683D01*
X239647166Y-99588724D01*
X239649290Y-99603042D01*
X239650000Y-99617500D01*
X239650000Y-99962500D01*
X239649290Y-99976958D01*
X239647166Y-99991276D01*
X239643649Y-100005317D01*
X239638772Y-100018946D01*
X239632583Y-100032031D01*
X239625142Y-100044447D01*
X239616519Y-100056073D01*
X239606798Y-100066798D01*
X239596073Y-100076519D01*
X239584447Y-100085142D01*
X239572031Y-100092583D01*
X239558946Y-100098772D01*
X239545317Y-100103649D01*
X239531276Y-100107166D01*
X239516958Y-100109290D01*
X239502500Y-100110000D01*
X239207500Y-100110000D01*
X239193042Y-100109290D01*
X239178724Y-100107166D01*
X239164683Y-100103649D01*
X239151054Y-100098772D01*
X239137969Y-100092583D01*
X239125553Y-100085142D01*
X239113927Y-100076519D01*
X239103202Y-100066798D01*
X239093481Y-100056073D01*
X239084858Y-100044447D01*
X239077417Y-100032031D01*
X239071228Y-100018946D01*
X239066351Y-100005317D01*
X239062834Y-99991276D01*
X239060710Y-99976958D01*
X239060000Y-99962500D01*
X239060000Y-99617500D01*
X239060710Y-99603042D01*
X239062834Y-99588724D01*
X239066351Y-99574683D01*
X239071228Y-99561054D01*
X239077417Y-99547969D01*
X239084858Y-99535553D01*
X239093481Y-99523927D01*
X239103202Y-99513202D01*
X239113927Y-99503481D01*
X239125553Y-99494858D01*
X239137969Y-99487417D01*
X239151054Y-99481228D01*
X239164683Y-99476351D01*
X239178724Y-99472834D01*
X239193042Y-99470710D01*
X239207500Y-99470000D01*
X239502500Y-99470000D01*
X239516958Y-99470710D01*
G37*
G36*
X238546958Y-99470710D02*
G01*
X238561276Y-99472834D01*
X238575317Y-99476351D01*
X238588946Y-99481228D01*
X238602031Y-99487417D01*
X238614447Y-99494858D01*
X238626073Y-99503481D01*
X238636798Y-99513202D01*
X238646519Y-99523927D01*
X238655142Y-99535553D01*
X238662583Y-99547969D01*
X238668772Y-99561054D01*
X238673649Y-99574683D01*
X238677166Y-99588724D01*
X238679290Y-99603042D01*
X238680000Y-99617500D01*
X238680000Y-99962500D01*
X238679290Y-99976958D01*
X238677166Y-99991276D01*
X238673649Y-100005317D01*
X238668772Y-100018946D01*
X238662583Y-100032031D01*
X238655142Y-100044447D01*
X238646519Y-100056073D01*
X238636798Y-100066798D01*
X238626073Y-100076519D01*
X238614447Y-100085142D01*
X238602031Y-100092583D01*
X238588946Y-100098772D01*
X238575317Y-100103649D01*
X238561276Y-100107166D01*
X238546958Y-100109290D01*
X238532500Y-100110000D01*
X238237500Y-100110000D01*
X238223042Y-100109290D01*
X238208724Y-100107166D01*
X238194683Y-100103649D01*
X238181054Y-100098772D01*
X238167969Y-100092583D01*
X238155553Y-100085142D01*
X238143927Y-100076519D01*
X238133202Y-100066798D01*
X238123481Y-100056073D01*
X238114858Y-100044447D01*
X238107417Y-100032031D01*
X238101228Y-100018946D01*
X238096351Y-100005317D01*
X238092834Y-99991276D01*
X238090710Y-99976958D01*
X238090000Y-99962500D01*
X238090000Y-99617500D01*
X238090710Y-99603042D01*
X238092834Y-99588724D01*
X238096351Y-99574683D01*
X238101228Y-99561054D01*
X238107417Y-99547969D01*
X238114858Y-99535553D01*
X238123481Y-99523927D01*
X238133202Y-99513202D01*
X238143927Y-99503481D01*
X238155553Y-99494858D01*
X238167969Y-99487417D01*
X238181054Y-99481228D01*
X238194683Y-99476351D01*
X238208724Y-99472834D01*
X238223042Y-99470710D01*
X238237500Y-99470000D01*
X238532500Y-99470000D01*
X238546958Y-99470710D01*
G37*
G36*
X239200958Y-110172710D02*
G01*
X239215276Y-110174834D01*
X239229317Y-110178351D01*
X239242946Y-110183228D01*
X239256031Y-110189417D01*
X239268447Y-110196858D01*
X239280073Y-110205481D01*
X239290798Y-110215202D01*
X239300519Y-110225927D01*
X239309142Y-110237553D01*
X239316583Y-110249969D01*
X239322772Y-110263054D01*
X239327649Y-110276683D01*
X239331166Y-110290724D01*
X239333290Y-110305042D01*
X239334000Y-110319500D01*
X239334000Y-110614500D01*
X239333290Y-110628958D01*
X239331166Y-110643276D01*
X239327649Y-110657317D01*
X239322772Y-110670946D01*
X239316583Y-110684031D01*
X239309142Y-110696447D01*
X239300519Y-110708073D01*
X239290798Y-110718798D01*
X239280073Y-110728519D01*
X239268447Y-110737142D01*
X239256031Y-110744583D01*
X239242946Y-110750772D01*
X239229317Y-110755649D01*
X239215276Y-110759166D01*
X239200958Y-110761290D01*
X239186500Y-110762000D01*
X238841500Y-110762000D01*
X238827042Y-110761290D01*
X238812724Y-110759166D01*
X238798683Y-110755649D01*
X238785054Y-110750772D01*
X238771969Y-110744583D01*
X238759553Y-110737142D01*
X238747927Y-110728519D01*
X238737202Y-110718798D01*
X238727481Y-110708073D01*
X238718858Y-110696447D01*
X238711417Y-110684031D01*
X238705228Y-110670946D01*
X238700351Y-110657317D01*
X238696834Y-110643276D01*
X238694710Y-110628958D01*
X238694000Y-110614500D01*
X238694000Y-110319500D01*
X238694710Y-110305042D01*
X238696834Y-110290724D01*
X238700351Y-110276683D01*
X238705228Y-110263054D01*
X238711417Y-110249969D01*
X238718858Y-110237553D01*
X238727481Y-110225927D01*
X238737202Y-110215202D01*
X238747927Y-110205481D01*
X238759553Y-110196858D01*
X238771969Y-110189417D01*
X238785054Y-110183228D01*
X238798683Y-110178351D01*
X238812724Y-110174834D01*
X238827042Y-110172710D01*
X238841500Y-110172000D01*
X239186500Y-110172000D01*
X239200958Y-110172710D01*
G37*
G36*
X239200958Y-109202710D02*
G01*
X239215276Y-109204834D01*
X239229317Y-109208351D01*
X239242946Y-109213228D01*
X239256031Y-109219417D01*
X239268447Y-109226858D01*
X239280073Y-109235481D01*
X239290798Y-109245202D01*
X239300519Y-109255927D01*
X239309142Y-109267553D01*
X239316583Y-109279969D01*
X239322772Y-109293054D01*
X239327649Y-109306683D01*
X239331166Y-109320724D01*
X239333290Y-109335042D01*
X239334000Y-109349500D01*
X239334000Y-109644500D01*
X239333290Y-109658958D01*
X239331166Y-109673276D01*
X239327649Y-109687317D01*
X239322772Y-109700946D01*
X239316583Y-109714031D01*
X239309142Y-109726447D01*
X239300519Y-109738073D01*
X239290798Y-109748798D01*
X239280073Y-109758519D01*
X239268447Y-109767142D01*
X239256031Y-109774583D01*
X239242946Y-109780772D01*
X239229317Y-109785649D01*
X239215276Y-109789166D01*
X239200958Y-109791290D01*
X239186500Y-109792000D01*
X238841500Y-109792000D01*
X238827042Y-109791290D01*
X238812724Y-109789166D01*
X238798683Y-109785649D01*
X238785054Y-109780772D01*
X238771969Y-109774583D01*
X238759553Y-109767142D01*
X238747927Y-109758519D01*
X238737202Y-109748798D01*
X238727481Y-109738073D01*
X238718858Y-109726447D01*
X238711417Y-109714031D01*
X238705228Y-109700946D01*
X238700351Y-109687317D01*
X238696834Y-109673276D01*
X238694710Y-109658958D01*
X238694000Y-109644500D01*
X238694000Y-109349500D01*
X238694710Y-109335042D01*
X238696834Y-109320724D01*
X238700351Y-109306683D01*
X238705228Y-109293054D01*
X238711417Y-109279969D01*
X238718858Y-109267553D01*
X238727481Y-109255927D01*
X238737202Y-109245202D01*
X238747927Y-109235481D01*
X238759553Y-109226858D01*
X238771969Y-109219417D01*
X238785054Y-109213228D01*
X238798683Y-109208351D01*
X238812724Y-109204834D01*
X238827042Y-109202710D01*
X238841500Y-109202000D01*
X239186500Y-109202000D01*
X239200958Y-109202710D01*
G37*
G36*
X239200958Y-108140710D02*
G01*
X239215276Y-108142834D01*
X239229317Y-108146351D01*
X239242946Y-108151228D01*
X239256031Y-108157417D01*
X239268447Y-108164858D01*
X239280073Y-108173481D01*
X239290798Y-108183202D01*
X239300519Y-108193927D01*
X239309142Y-108205553D01*
X239316583Y-108217969D01*
X239322772Y-108231054D01*
X239327649Y-108244683D01*
X239331166Y-108258724D01*
X239333290Y-108273042D01*
X239334000Y-108287500D01*
X239334000Y-108582500D01*
X239333290Y-108596958D01*
X239331166Y-108611276D01*
X239327649Y-108625317D01*
X239322772Y-108638946D01*
X239316583Y-108652031D01*
X239309142Y-108664447D01*
X239300519Y-108676073D01*
X239290798Y-108686798D01*
X239280073Y-108696519D01*
X239268447Y-108705142D01*
X239256031Y-108712583D01*
X239242946Y-108718772D01*
X239229317Y-108723649D01*
X239215276Y-108727166D01*
X239200958Y-108729290D01*
X239186500Y-108730000D01*
X238841500Y-108730000D01*
X238827042Y-108729290D01*
X238812724Y-108727166D01*
X238798683Y-108723649D01*
X238785054Y-108718772D01*
X238771969Y-108712583D01*
X238759553Y-108705142D01*
X238747927Y-108696519D01*
X238737202Y-108686798D01*
X238727481Y-108676073D01*
X238718858Y-108664447D01*
X238711417Y-108652031D01*
X238705228Y-108638946D01*
X238700351Y-108625317D01*
X238696834Y-108611276D01*
X238694710Y-108596958D01*
X238694000Y-108582500D01*
X238694000Y-108287500D01*
X238694710Y-108273042D01*
X238696834Y-108258724D01*
X238700351Y-108244683D01*
X238705228Y-108231054D01*
X238711417Y-108217969D01*
X238718858Y-108205553D01*
X238727481Y-108193927D01*
X238737202Y-108183202D01*
X238747927Y-108173481D01*
X238759553Y-108164858D01*
X238771969Y-108157417D01*
X238785054Y-108151228D01*
X238798683Y-108146351D01*
X238812724Y-108142834D01*
X238827042Y-108140710D01*
X238841500Y-108140000D01*
X239186500Y-108140000D01*
X239200958Y-108140710D01*
G37*
G36*
X239200958Y-107170710D02*
G01*
X239215276Y-107172834D01*
X239229317Y-107176351D01*
X239242946Y-107181228D01*
X239256031Y-107187417D01*
X239268447Y-107194858D01*
X239280073Y-107203481D01*
X239290798Y-107213202D01*
X239300519Y-107223927D01*
X239309142Y-107235553D01*
X239316583Y-107247969D01*
X239322772Y-107261054D01*
X239327649Y-107274683D01*
X239331166Y-107288724D01*
X239333290Y-107303042D01*
X239334000Y-107317500D01*
X239334000Y-107612500D01*
X239333290Y-107626958D01*
X239331166Y-107641276D01*
X239327649Y-107655317D01*
X239322772Y-107668946D01*
X239316583Y-107682031D01*
X239309142Y-107694447D01*
X239300519Y-107706073D01*
X239290798Y-107716798D01*
X239280073Y-107726519D01*
X239268447Y-107735142D01*
X239256031Y-107742583D01*
X239242946Y-107748772D01*
X239229317Y-107753649D01*
X239215276Y-107757166D01*
X239200958Y-107759290D01*
X239186500Y-107760000D01*
X238841500Y-107760000D01*
X238827042Y-107759290D01*
X238812724Y-107757166D01*
X238798683Y-107753649D01*
X238785054Y-107748772D01*
X238771969Y-107742583D01*
X238759553Y-107735142D01*
X238747927Y-107726519D01*
X238737202Y-107716798D01*
X238727481Y-107706073D01*
X238718858Y-107694447D01*
X238711417Y-107682031D01*
X238705228Y-107668946D01*
X238700351Y-107655317D01*
X238696834Y-107641276D01*
X238694710Y-107626958D01*
X238694000Y-107612500D01*
X238694000Y-107317500D01*
X238694710Y-107303042D01*
X238696834Y-107288724D01*
X238700351Y-107274683D01*
X238705228Y-107261054D01*
X238711417Y-107247969D01*
X238718858Y-107235553D01*
X238727481Y-107223927D01*
X238737202Y-107213202D01*
X238747927Y-107203481D01*
X238759553Y-107194858D01*
X238771969Y-107187417D01*
X238785054Y-107181228D01*
X238798683Y-107176351D01*
X238812724Y-107172834D01*
X238827042Y-107170710D01*
X238841500Y-107170000D01*
X239186500Y-107170000D01*
X239200958Y-107170710D01*
G37*
G36*
X235998958Y-92430710D02*
G01*
X236013276Y-92432834D01*
X236027317Y-92436351D01*
X236040946Y-92441228D01*
X236054031Y-92447417D01*
X236066447Y-92454858D01*
X236078073Y-92463481D01*
X236088798Y-92473202D01*
X236098519Y-92483927D01*
X236107142Y-92495553D01*
X236114583Y-92507969D01*
X236120772Y-92521054D01*
X236125649Y-92534683D01*
X236129166Y-92548724D01*
X236131290Y-92563042D01*
X236132000Y-92577500D01*
X236132000Y-92922500D01*
X236131290Y-92936958D01*
X236129166Y-92951276D01*
X236125649Y-92965317D01*
X236120772Y-92978946D01*
X236114583Y-92992031D01*
X236107142Y-93004447D01*
X236098519Y-93016073D01*
X236088798Y-93026798D01*
X236078073Y-93036519D01*
X236066447Y-93045142D01*
X236054031Y-93052583D01*
X236040946Y-93058772D01*
X236027317Y-93063649D01*
X236013276Y-93067166D01*
X235998958Y-93069290D01*
X235984500Y-93070000D01*
X235689500Y-93070000D01*
X235675042Y-93069290D01*
X235660724Y-93067166D01*
X235646683Y-93063649D01*
X235633054Y-93058772D01*
X235619969Y-93052583D01*
X235607553Y-93045142D01*
X235595927Y-93036519D01*
X235585202Y-93026798D01*
X235575481Y-93016073D01*
X235566858Y-93004447D01*
X235559417Y-92992031D01*
X235553228Y-92978946D01*
X235548351Y-92965317D01*
X235544834Y-92951276D01*
X235542710Y-92936958D01*
X235542000Y-92922500D01*
X235542000Y-92577500D01*
X235542710Y-92563042D01*
X235544834Y-92548724D01*
X235548351Y-92534683D01*
X235553228Y-92521054D01*
X235559417Y-92507969D01*
X235566858Y-92495553D01*
X235575481Y-92483927D01*
X235585202Y-92473202D01*
X235595927Y-92463481D01*
X235607553Y-92454858D01*
X235619969Y-92447417D01*
X235633054Y-92441228D01*
X235646683Y-92436351D01*
X235660724Y-92432834D01*
X235675042Y-92430710D01*
X235689500Y-92430000D01*
X235984500Y-92430000D01*
X235998958Y-92430710D01*
G37*
G36*
X236968958Y-92430710D02*
G01*
X236983276Y-92432834D01*
X236997317Y-92436351D01*
X237010946Y-92441228D01*
X237024031Y-92447417D01*
X237036447Y-92454858D01*
X237048073Y-92463481D01*
X237058798Y-92473202D01*
X237068519Y-92483927D01*
X237077142Y-92495553D01*
X237084583Y-92507969D01*
X237090772Y-92521054D01*
X237095649Y-92534683D01*
X237099166Y-92548724D01*
X237101290Y-92563042D01*
X237102000Y-92577500D01*
X237102000Y-92922500D01*
X237101290Y-92936958D01*
X237099166Y-92951276D01*
X237095649Y-92965317D01*
X237090772Y-92978946D01*
X237084583Y-92992031D01*
X237077142Y-93004447D01*
X237068519Y-93016073D01*
X237058798Y-93026798D01*
X237048073Y-93036519D01*
X237036447Y-93045142D01*
X237024031Y-93052583D01*
X237010946Y-93058772D01*
X236997317Y-93063649D01*
X236983276Y-93067166D01*
X236968958Y-93069290D01*
X236954500Y-93070000D01*
X236659500Y-93070000D01*
X236645042Y-93069290D01*
X236630724Y-93067166D01*
X236616683Y-93063649D01*
X236603054Y-93058772D01*
X236589969Y-93052583D01*
X236577553Y-93045142D01*
X236565927Y-93036519D01*
X236555202Y-93026798D01*
X236545481Y-93016073D01*
X236536858Y-93004447D01*
X236529417Y-92992031D01*
X236523228Y-92978946D01*
X236518351Y-92965317D01*
X236514834Y-92951276D01*
X236512710Y-92936958D01*
X236512000Y-92922500D01*
X236512000Y-92577500D01*
X236512710Y-92563042D01*
X236514834Y-92548724D01*
X236518351Y-92534683D01*
X236523228Y-92521054D01*
X236529417Y-92507969D01*
X236536858Y-92495553D01*
X236545481Y-92483927D01*
X236555202Y-92473202D01*
X236565927Y-92463481D01*
X236577553Y-92454858D01*
X236589969Y-92447417D01*
X236603054Y-92441228D01*
X236616683Y-92436351D01*
X236630724Y-92432834D01*
X236645042Y-92430710D01*
X236659500Y-92430000D01*
X236954500Y-92430000D01*
X236968958Y-92430710D01*
G37*
G36*
X209990958Y-106662710D02*
G01*
X210005276Y-106664834D01*
X210019317Y-106668351D01*
X210032946Y-106673228D01*
X210046031Y-106679417D01*
X210058447Y-106686858D01*
X210070073Y-106695481D01*
X210080798Y-106705202D01*
X210090519Y-106715927D01*
X210099142Y-106727553D01*
X210106583Y-106739969D01*
X210112772Y-106753054D01*
X210117649Y-106766683D01*
X210121166Y-106780724D01*
X210123290Y-106795042D01*
X210124000Y-106809500D01*
X210124000Y-107104500D01*
X210123290Y-107118958D01*
X210121166Y-107133276D01*
X210117649Y-107147317D01*
X210112772Y-107160946D01*
X210106583Y-107174031D01*
X210099142Y-107186447D01*
X210090519Y-107198073D01*
X210080798Y-107208798D01*
X210070073Y-107218519D01*
X210058447Y-107227142D01*
X210046031Y-107234583D01*
X210032946Y-107240772D01*
X210019317Y-107245649D01*
X210005276Y-107249166D01*
X209990958Y-107251290D01*
X209976500Y-107252000D01*
X209631500Y-107252000D01*
X209617042Y-107251290D01*
X209602724Y-107249166D01*
X209588683Y-107245649D01*
X209575054Y-107240772D01*
X209561969Y-107234583D01*
X209549553Y-107227142D01*
X209537927Y-107218519D01*
X209527202Y-107208798D01*
X209517481Y-107198073D01*
X209508858Y-107186447D01*
X209501417Y-107174031D01*
X209495228Y-107160946D01*
X209490351Y-107147317D01*
X209486834Y-107133276D01*
X209484710Y-107118958D01*
X209484000Y-107104500D01*
X209484000Y-106809500D01*
X209484710Y-106795042D01*
X209486834Y-106780724D01*
X209490351Y-106766683D01*
X209495228Y-106753054D01*
X209501417Y-106739969D01*
X209508858Y-106727553D01*
X209517481Y-106715927D01*
X209527202Y-106705202D01*
X209537927Y-106695481D01*
X209549553Y-106686858D01*
X209561969Y-106679417D01*
X209575054Y-106673228D01*
X209588683Y-106668351D01*
X209602724Y-106664834D01*
X209617042Y-106662710D01*
X209631500Y-106662000D01*
X209976500Y-106662000D01*
X209990958Y-106662710D01*
G37*
G36*
X209990958Y-107632710D02*
G01*
X210005276Y-107634834D01*
X210019317Y-107638351D01*
X210032946Y-107643228D01*
X210046031Y-107649417D01*
X210058447Y-107656858D01*
X210070073Y-107665481D01*
X210080798Y-107675202D01*
X210090519Y-107685927D01*
X210099142Y-107697553D01*
X210106583Y-107709969D01*
X210112772Y-107723054D01*
X210117649Y-107736683D01*
X210121166Y-107750724D01*
X210123290Y-107765042D01*
X210124000Y-107779500D01*
X210124000Y-108074500D01*
X210123290Y-108088958D01*
X210121166Y-108103276D01*
X210117649Y-108117317D01*
X210112772Y-108130946D01*
X210106583Y-108144031D01*
X210099142Y-108156447D01*
X210090519Y-108168073D01*
X210080798Y-108178798D01*
X210070073Y-108188519D01*
X210058447Y-108197142D01*
X210046031Y-108204583D01*
X210032946Y-108210772D01*
X210019317Y-108215649D01*
X210005276Y-108219166D01*
X209990958Y-108221290D01*
X209976500Y-108222000D01*
X209631500Y-108222000D01*
X209617042Y-108221290D01*
X209602724Y-108219166D01*
X209588683Y-108215649D01*
X209575054Y-108210772D01*
X209561969Y-108204583D01*
X209549553Y-108197142D01*
X209537927Y-108188519D01*
X209527202Y-108178798D01*
X209517481Y-108168073D01*
X209508858Y-108156447D01*
X209501417Y-108144031D01*
X209495228Y-108130946D01*
X209490351Y-108117317D01*
X209486834Y-108103276D01*
X209484710Y-108088958D01*
X209484000Y-108074500D01*
X209484000Y-107779500D01*
X209484710Y-107765042D01*
X209486834Y-107750724D01*
X209490351Y-107736683D01*
X209495228Y-107723054D01*
X209501417Y-107709969D01*
X209508858Y-107697553D01*
X209517481Y-107685927D01*
X209527202Y-107675202D01*
X209537927Y-107665481D01*
X209549553Y-107656858D01*
X209561969Y-107649417D01*
X209575054Y-107643228D01*
X209588683Y-107638351D01*
X209602724Y-107634834D01*
X209617042Y-107632710D01*
X209631500Y-107632000D01*
X209976500Y-107632000D01*
X209990958Y-107632710D01*
G37*
G36*
X224214958Y-102298710D02*
G01*
X224229276Y-102300834D01*
X224243317Y-102304351D01*
X224256946Y-102309228D01*
X224270031Y-102315417D01*
X224282447Y-102322858D01*
X224294073Y-102331481D01*
X224304798Y-102341202D01*
X224314519Y-102351927D01*
X224323142Y-102363553D01*
X224330583Y-102375969D01*
X224336772Y-102389054D01*
X224341649Y-102402683D01*
X224345166Y-102416724D01*
X224347290Y-102431042D01*
X224348000Y-102445500D01*
X224348000Y-102740500D01*
X224347290Y-102754958D01*
X224345166Y-102769276D01*
X224341649Y-102783317D01*
X224336772Y-102796946D01*
X224330583Y-102810031D01*
X224323142Y-102822447D01*
X224314519Y-102834073D01*
X224304798Y-102844798D01*
X224294073Y-102854519D01*
X224282447Y-102863142D01*
X224270031Y-102870583D01*
X224256946Y-102876772D01*
X224243317Y-102881649D01*
X224229276Y-102885166D01*
X224214958Y-102887290D01*
X224200500Y-102888000D01*
X223855500Y-102888000D01*
X223841042Y-102887290D01*
X223826724Y-102885166D01*
X223812683Y-102881649D01*
X223799054Y-102876772D01*
X223785969Y-102870583D01*
X223773553Y-102863142D01*
X223761927Y-102854519D01*
X223751202Y-102844798D01*
X223741481Y-102834073D01*
X223732858Y-102822447D01*
X223725417Y-102810031D01*
X223719228Y-102796946D01*
X223714351Y-102783317D01*
X223710834Y-102769276D01*
X223708710Y-102754958D01*
X223708000Y-102740500D01*
X223708000Y-102445500D01*
X223708710Y-102431042D01*
X223710834Y-102416724D01*
X223714351Y-102402683D01*
X223719228Y-102389054D01*
X223725417Y-102375969D01*
X223732858Y-102363553D01*
X223741481Y-102351927D01*
X223751202Y-102341202D01*
X223761927Y-102331481D01*
X223773553Y-102322858D01*
X223785969Y-102315417D01*
X223799054Y-102309228D01*
X223812683Y-102304351D01*
X223826724Y-102300834D01*
X223841042Y-102298710D01*
X223855500Y-102298000D01*
X224200500Y-102298000D01*
X224214958Y-102298710D01*
G37*
G36*
X224214958Y-101328710D02*
G01*
X224229276Y-101330834D01*
X224243317Y-101334351D01*
X224256946Y-101339228D01*
X224270031Y-101345417D01*
X224282447Y-101352858D01*
X224294073Y-101361481D01*
X224304798Y-101371202D01*
X224314519Y-101381927D01*
X224323142Y-101393553D01*
X224330583Y-101405969D01*
X224336772Y-101419054D01*
X224341649Y-101432683D01*
X224345166Y-101446724D01*
X224347290Y-101461042D01*
X224348000Y-101475500D01*
X224348000Y-101770500D01*
X224347290Y-101784958D01*
X224345166Y-101799276D01*
X224341649Y-101813317D01*
X224336772Y-101826946D01*
X224330583Y-101840031D01*
X224323142Y-101852447D01*
X224314519Y-101864073D01*
X224304798Y-101874798D01*
X224294073Y-101884519D01*
X224282447Y-101893142D01*
X224270031Y-101900583D01*
X224256946Y-101906772D01*
X224243317Y-101911649D01*
X224229276Y-101915166D01*
X224214958Y-101917290D01*
X224200500Y-101918000D01*
X223855500Y-101918000D01*
X223841042Y-101917290D01*
X223826724Y-101915166D01*
X223812683Y-101911649D01*
X223799054Y-101906772D01*
X223785969Y-101900583D01*
X223773553Y-101893142D01*
X223761927Y-101884519D01*
X223751202Y-101874798D01*
X223741481Y-101864073D01*
X223732858Y-101852447D01*
X223725417Y-101840031D01*
X223719228Y-101826946D01*
X223714351Y-101813317D01*
X223710834Y-101799276D01*
X223708710Y-101784958D01*
X223708000Y-101770500D01*
X223708000Y-101475500D01*
X223708710Y-101461042D01*
X223710834Y-101446724D01*
X223714351Y-101432683D01*
X223719228Y-101419054D01*
X223725417Y-101405969D01*
X223732858Y-101393553D01*
X223741481Y-101381927D01*
X223751202Y-101371202D01*
X223761927Y-101361481D01*
X223773553Y-101352858D01*
X223785969Y-101345417D01*
X223799054Y-101339228D01*
X223812683Y-101334351D01*
X223826724Y-101330834D01*
X223841042Y-101328710D01*
X223855500Y-101328000D01*
X224200500Y-101328000D01*
X224214958Y-101328710D01*
G37*
G36*
X224214958Y-100266710D02*
G01*
X224229276Y-100268834D01*
X224243317Y-100272351D01*
X224256946Y-100277228D01*
X224270031Y-100283417D01*
X224282447Y-100290858D01*
X224294073Y-100299481D01*
X224304798Y-100309202D01*
X224314519Y-100319927D01*
X224323142Y-100331553D01*
X224330583Y-100343969D01*
X224336772Y-100357054D01*
X224341649Y-100370683D01*
X224345166Y-100384724D01*
X224347290Y-100399042D01*
X224348000Y-100413500D01*
X224348000Y-100708500D01*
X224347290Y-100722958D01*
X224345166Y-100737276D01*
X224341649Y-100751317D01*
X224336772Y-100764946D01*
X224330583Y-100778031D01*
X224323142Y-100790447D01*
X224314519Y-100802073D01*
X224304798Y-100812798D01*
X224294073Y-100822519D01*
X224282447Y-100831142D01*
X224270031Y-100838583D01*
X224256946Y-100844772D01*
X224243317Y-100849649D01*
X224229276Y-100853166D01*
X224214958Y-100855290D01*
X224200500Y-100856000D01*
X223855500Y-100856000D01*
X223841042Y-100855290D01*
X223826724Y-100853166D01*
X223812683Y-100849649D01*
X223799054Y-100844772D01*
X223785969Y-100838583D01*
X223773553Y-100831142D01*
X223761927Y-100822519D01*
X223751202Y-100812798D01*
X223741481Y-100802073D01*
X223732858Y-100790447D01*
X223725417Y-100778031D01*
X223719228Y-100764946D01*
X223714351Y-100751317D01*
X223710834Y-100737276D01*
X223708710Y-100722958D01*
X223708000Y-100708500D01*
X223708000Y-100413500D01*
X223708710Y-100399042D01*
X223710834Y-100384724D01*
X223714351Y-100370683D01*
X223719228Y-100357054D01*
X223725417Y-100343969D01*
X223732858Y-100331553D01*
X223741481Y-100319927D01*
X223751202Y-100309202D01*
X223761927Y-100299481D01*
X223773553Y-100290858D01*
X223785969Y-100283417D01*
X223799054Y-100277228D01*
X223812683Y-100272351D01*
X223826724Y-100268834D01*
X223841042Y-100266710D01*
X223855500Y-100266000D01*
X224200500Y-100266000D01*
X224214958Y-100266710D01*
G37*
G36*
X224214958Y-99296710D02*
G01*
X224229276Y-99298834D01*
X224243317Y-99302351D01*
X224256946Y-99307228D01*
X224270031Y-99313417D01*
X224282447Y-99320858D01*
X224294073Y-99329481D01*
X224304798Y-99339202D01*
X224314519Y-99349927D01*
X224323142Y-99361553D01*
X224330583Y-99373969D01*
X224336772Y-99387054D01*
X224341649Y-99400683D01*
X224345166Y-99414724D01*
X224347290Y-99429042D01*
X224348000Y-99443500D01*
X224348000Y-99738500D01*
X224347290Y-99752958D01*
X224345166Y-99767276D01*
X224341649Y-99781317D01*
X224336772Y-99794946D01*
X224330583Y-99808031D01*
X224323142Y-99820447D01*
X224314519Y-99832073D01*
X224304798Y-99842798D01*
X224294073Y-99852519D01*
X224282447Y-99861142D01*
X224270031Y-99868583D01*
X224256946Y-99874772D01*
X224243317Y-99879649D01*
X224229276Y-99883166D01*
X224214958Y-99885290D01*
X224200500Y-99886000D01*
X223855500Y-99886000D01*
X223841042Y-99885290D01*
X223826724Y-99883166D01*
X223812683Y-99879649D01*
X223799054Y-99874772D01*
X223785969Y-99868583D01*
X223773553Y-99861142D01*
X223761927Y-99852519D01*
X223751202Y-99842798D01*
X223741481Y-99832073D01*
X223732858Y-99820447D01*
X223725417Y-99808031D01*
X223719228Y-99794946D01*
X223714351Y-99781317D01*
X223710834Y-99767276D01*
X223708710Y-99752958D01*
X223708000Y-99738500D01*
X223708000Y-99443500D01*
X223708710Y-99429042D01*
X223710834Y-99414724D01*
X223714351Y-99400683D01*
X223719228Y-99387054D01*
X223725417Y-99373969D01*
X223732858Y-99361553D01*
X223741481Y-99349927D01*
X223751202Y-99339202D01*
X223761927Y-99329481D01*
X223773553Y-99320858D01*
X223785969Y-99313417D01*
X223799054Y-99307228D01*
X223812683Y-99302351D01*
X223826724Y-99298834D01*
X223841042Y-99296710D01*
X223855500Y-99296000D01*
X224200500Y-99296000D01*
X224214958Y-99296710D01*
G37*
G36*
X238616642Y-104711174D02*
G01*
X238640303Y-104714684D01*
X238663507Y-104720496D01*
X238686029Y-104728554D01*
X238707653Y-104738782D01*
X238728170Y-104751079D01*
X238747383Y-104765329D01*
X238765107Y-104781393D01*
X238781171Y-104799117D01*
X238795421Y-104818330D01*
X238807718Y-104838847D01*
X238817946Y-104860471D01*
X238826004Y-104882993D01*
X238831816Y-104906197D01*
X238835326Y-104929858D01*
X238836500Y-104953750D01*
X238836500Y-105866250D01*
X238835326Y-105890142D01*
X238831816Y-105913803D01*
X238826004Y-105937007D01*
X238817946Y-105959529D01*
X238807718Y-105981153D01*
X238795421Y-106001670D01*
X238781171Y-106020883D01*
X238765107Y-106038607D01*
X238747383Y-106054671D01*
X238728170Y-106068921D01*
X238707653Y-106081218D01*
X238686029Y-106091446D01*
X238663507Y-106099504D01*
X238640303Y-106105316D01*
X238616642Y-106108826D01*
X238592750Y-106110000D01*
X238105250Y-106110000D01*
X238081358Y-106108826D01*
X238057697Y-106105316D01*
X238034493Y-106099504D01*
X238011971Y-106091446D01*
X237990347Y-106081218D01*
X237969830Y-106068921D01*
X237950617Y-106054671D01*
X237932893Y-106038607D01*
X237916829Y-106020883D01*
X237902579Y-106001670D01*
X237890282Y-105981153D01*
X237880054Y-105959529D01*
X237871996Y-105937007D01*
X237866184Y-105913803D01*
X237862674Y-105890142D01*
X237861500Y-105866250D01*
X237861500Y-104953750D01*
X237862674Y-104929858D01*
X237866184Y-104906197D01*
X237871996Y-104882993D01*
X237880054Y-104860471D01*
X237890282Y-104838847D01*
X237902579Y-104818330D01*
X237916829Y-104799117D01*
X237932893Y-104781393D01*
X237950617Y-104765329D01*
X237969830Y-104751079D01*
X237990347Y-104738782D01*
X238011971Y-104728554D01*
X238034493Y-104720496D01*
X238057697Y-104714684D01*
X238081358Y-104711174D01*
X238105250Y-104710000D01*
X238592750Y-104710000D01*
X238616642Y-104711174D01*
G37*
G36*
X236741642Y-104711174D02*
G01*
X236765303Y-104714684D01*
X236788507Y-104720496D01*
X236811029Y-104728554D01*
X236832653Y-104738782D01*
X236853170Y-104751079D01*
X236872383Y-104765329D01*
X236890107Y-104781393D01*
X236906171Y-104799117D01*
X236920421Y-104818330D01*
X236932718Y-104838847D01*
X236942946Y-104860471D01*
X236951004Y-104882993D01*
X236956816Y-104906197D01*
X236960326Y-104929858D01*
X236961500Y-104953750D01*
X236961500Y-105866250D01*
X236960326Y-105890142D01*
X236956816Y-105913803D01*
X236951004Y-105937007D01*
X236942946Y-105959529D01*
X236932718Y-105981153D01*
X236920421Y-106001670D01*
X236906171Y-106020883D01*
X236890107Y-106038607D01*
X236872383Y-106054671D01*
X236853170Y-106068921D01*
X236832653Y-106081218D01*
X236811029Y-106091446D01*
X236788507Y-106099504D01*
X236765303Y-106105316D01*
X236741642Y-106108826D01*
X236717750Y-106110000D01*
X236230250Y-106110000D01*
X236206358Y-106108826D01*
X236182697Y-106105316D01*
X236159493Y-106099504D01*
X236136971Y-106091446D01*
X236115347Y-106081218D01*
X236094830Y-106068921D01*
X236075617Y-106054671D01*
X236057893Y-106038607D01*
X236041829Y-106020883D01*
X236027579Y-106001670D01*
X236015282Y-105981153D01*
X236005054Y-105959529D01*
X235996996Y-105937007D01*
X235991184Y-105913803D01*
X235987674Y-105890142D01*
X235986500Y-105866250D01*
X235986500Y-104953750D01*
X235987674Y-104929858D01*
X235991184Y-104906197D01*
X235996996Y-104882993D01*
X236005054Y-104860471D01*
X236015282Y-104838847D01*
X236027579Y-104818330D01*
X236041829Y-104799117D01*
X236057893Y-104781393D01*
X236075617Y-104765329D01*
X236094830Y-104751079D01*
X236115347Y-104738782D01*
X236136971Y-104728554D01*
X236159493Y-104720496D01*
X236182697Y-104714684D01*
X236206358Y-104711174D01*
X236230250Y-104710000D01*
X236717750Y-104710000D01*
X236741642Y-104711174D01*
G37*
G36*
X233536642Y-93535174D02*
G01*
X233560303Y-93538684D01*
X233583507Y-93544496D01*
X233606029Y-93552554D01*
X233627653Y-93562782D01*
X233648170Y-93575079D01*
X233667383Y-93589329D01*
X233685107Y-93605393D01*
X233701171Y-93623117D01*
X233715421Y-93642330D01*
X233727718Y-93662847D01*
X233737946Y-93684471D01*
X233746004Y-93706993D01*
X233751816Y-93730197D01*
X233755326Y-93753858D01*
X233756500Y-93777750D01*
X233756500Y-94690250D01*
X233755326Y-94714142D01*
X233751816Y-94737803D01*
X233746004Y-94761007D01*
X233737946Y-94783529D01*
X233727718Y-94805153D01*
X233715421Y-94825670D01*
X233701171Y-94844883D01*
X233685107Y-94862607D01*
X233667383Y-94878671D01*
X233648170Y-94892921D01*
X233627653Y-94905218D01*
X233606029Y-94915446D01*
X233583507Y-94923504D01*
X233560303Y-94929316D01*
X233536642Y-94932826D01*
X233512750Y-94934000D01*
X233025250Y-94934000D01*
X233001358Y-94932826D01*
X232977697Y-94929316D01*
X232954493Y-94923504D01*
X232931971Y-94915446D01*
X232910347Y-94905218D01*
X232889830Y-94892921D01*
X232870617Y-94878671D01*
X232852893Y-94862607D01*
X232836829Y-94844883D01*
X232822579Y-94825670D01*
X232810282Y-94805153D01*
X232800054Y-94783529D01*
X232791996Y-94761007D01*
X232786184Y-94737803D01*
X232782674Y-94714142D01*
X232781500Y-94690250D01*
X232781500Y-93777750D01*
X232782674Y-93753858D01*
X232786184Y-93730197D01*
X232791996Y-93706993D01*
X232800054Y-93684471D01*
X232810282Y-93662847D01*
X232822579Y-93642330D01*
X232836829Y-93623117D01*
X232852893Y-93605393D01*
X232870617Y-93589329D01*
X232889830Y-93575079D01*
X232910347Y-93562782D01*
X232931971Y-93552554D01*
X232954493Y-93544496D01*
X232977697Y-93538684D01*
X233001358Y-93535174D01*
X233025250Y-93534000D01*
X233512750Y-93534000D01*
X233536642Y-93535174D01*
G37*
G36*
X231661642Y-93535174D02*
G01*
X231685303Y-93538684D01*
X231708507Y-93544496D01*
X231731029Y-93552554D01*
X231752653Y-93562782D01*
X231773170Y-93575079D01*
X231792383Y-93589329D01*
X231810107Y-93605393D01*
X231826171Y-93623117D01*
X231840421Y-93642330D01*
X231852718Y-93662847D01*
X231862946Y-93684471D01*
X231871004Y-93706993D01*
X231876816Y-93730197D01*
X231880326Y-93753858D01*
X231881500Y-93777750D01*
X231881500Y-94690250D01*
X231880326Y-94714142D01*
X231876816Y-94737803D01*
X231871004Y-94761007D01*
X231862946Y-94783529D01*
X231852718Y-94805153D01*
X231840421Y-94825670D01*
X231826171Y-94844883D01*
X231810107Y-94862607D01*
X231792383Y-94878671D01*
X231773170Y-94892921D01*
X231752653Y-94905218D01*
X231731029Y-94915446D01*
X231708507Y-94923504D01*
X231685303Y-94929316D01*
X231661642Y-94932826D01*
X231637750Y-94934000D01*
X231150250Y-94934000D01*
X231126358Y-94932826D01*
X231102697Y-94929316D01*
X231079493Y-94923504D01*
X231056971Y-94915446D01*
X231035347Y-94905218D01*
X231014830Y-94892921D01*
X230995617Y-94878671D01*
X230977893Y-94862607D01*
X230961829Y-94844883D01*
X230947579Y-94825670D01*
X230935282Y-94805153D01*
X230925054Y-94783529D01*
X230916996Y-94761007D01*
X230911184Y-94737803D01*
X230907674Y-94714142D01*
X230906500Y-94690250D01*
X230906500Y-93777750D01*
X230907674Y-93753858D01*
X230911184Y-93730197D01*
X230916996Y-93706993D01*
X230925054Y-93684471D01*
X230935282Y-93662847D01*
X230947579Y-93642330D01*
X230961829Y-93623117D01*
X230977893Y-93605393D01*
X230995617Y-93589329D01*
X231014830Y-93575079D01*
X231035347Y-93562782D01*
X231056971Y-93552554D01*
X231079493Y-93544496D01*
X231102697Y-93538684D01*
X231126358Y-93535174D01*
X231150250Y-93534000D01*
X231637750Y-93534000D01*
X231661642Y-93535174D01*
G37*
G36*
X220564142Y-96837174D02*
G01*
X220587803Y-96840684D01*
X220611007Y-96846496D01*
X220633529Y-96854554D01*
X220655153Y-96864782D01*
X220675670Y-96877079D01*
X220694883Y-96891329D01*
X220712607Y-96907393D01*
X220728671Y-96925117D01*
X220742921Y-96944330D01*
X220755218Y-96964847D01*
X220765446Y-96986471D01*
X220773504Y-97008993D01*
X220779316Y-97032197D01*
X220782826Y-97055858D01*
X220784000Y-97079750D01*
X220784000Y-97992250D01*
X220782826Y-98016142D01*
X220779316Y-98039803D01*
X220773504Y-98063007D01*
X220765446Y-98085529D01*
X220755218Y-98107153D01*
X220742921Y-98127670D01*
X220728671Y-98146883D01*
X220712607Y-98164607D01*
X220694883Y-98180671D01*
X220675670Y-98194921D01*
X220655153Y-98207218D01*
X220633529Y-98217446D01*
X220611007Y-98225504D01*
X220587803Y-98231316D01*
X220564142Y-98234826D01*
X220540250Y-98236000D01*
X220052750Y-98236000D01*
X220028858Y-98234826D01*
X220005197Y-98231316D01*
X219981993Y-98225504D01*
X219959471Y-98217446D01*
X219937847Y-98207218D01*
X219917330Y-98194921D01*
X219898117Y-98180671D01*
X219880393Y-98164607D01*
X219864329Y-98146883D01*
X219850079Y-98127670D01*
X219837782Y-98107153D01*
X219827554Y-98085529D01*
X219819496Y-98063007D01*
X219813684Y-98039803D01*
X219810174Y-98016142D01*
X219809000Y-97992250D01*
X219809000Y-97079750D01*
X219810174Y-97055858D01*
X219813684Y-97032197D01*
X219819496Y-97008993D01*
X219827554Y-96986471D01*
X219837782Y-96964847D01*
X219850079Y-96944330D01*
X219864329Y-96925117D01*
X219880393Y-96907393D01*
X219898117Y-96891329D01*
X219917330Y-96877079D01*
X219937847Y-96864782D01*
X219959471Y-96854554D01*
X219981993Y-96846496D01*
X220005197Y-96840684D01*
X220028858Y-96837174D01*
X220052750Y-96836000D01*
X220540250Y-96836000D01*
X220564142Y-96837174D01*
G37*
G36*
X222439142Y-96837174D02*
G01*
X222462803Y-96840684D01*
X222486007Y-96846496D01*
X222508529Y-96854554D01*
X222530153Y-96864782D01*
X222550670Y-96877079D01*
X222569883Y-96891329D01*
X222587607Y-96907393D01*
X222603671Y-96925117D01*
X222617921Y-96944330D01*
X222630218Y-96964847D01*
X222640446Y-96986471D01*
X222648504Y-97008993D01*
X222654316Y-97032197D01*
X222657826Y-97055858D01*
X222659000Y-97079750D01*
X222659000Y-97992250D01*
X222657826Y-98016142D01*
X222654316Y-98039803D01*
X222648504Y-98063007D01*
X222640446Y-98085529D01*
X222630218Y-98107153D01*
X222617921Y-98127670D01*
X222603671Y-98146883D01*
X222587607Y-98164607D01*
X222569883Y-98180671D01*
X222550670Y-98194921D01*
X222530153Y-98207218D01*
X222508529Y-98217446D01*
X222486007Y-98225504D01*
X222462803Y-98231316D01*
X222439142Y-98234826D01*
X222415250Y-98236000D01*
X221927750Y-98236000D01*
X221903858Y-98234826D01*
X221880197Y-98231316D01*
X221856993Y-98225504D01*
X221834471Y-98217446D01*
X221812847Y-98207218D01*
X221792330Y-98194921D01*
X221773117Y-98180671D01*
X221755393Y-98164607D01*
X221739329Y-98146883D01*
X221725079Y-98127670D01*
X221712782Y-98107153D01*
X221702554Y-98085529D01*
X221694496Y-98063007D01*
X221688684Y-98039803D01*
X221685174Y-98016142D01*
X221684000Y-97992250D01*
X221684000Y-97079750D01*
X221685174Y-97055858D01*
X221688684Y-97032197D01*
X221694496Y-97008993D01*
X221702554Y-96986471D01*
X221712782Y-96964847D01*
X221725079Y-96944330D01*
X221739329Y-96925117D01*
X221755393Y-96907393D01*
X221773117Y-96891329D01*
X221792330Y-96877079D01*
X221812847Y-96864782D01*
X221834471Y-96854554D01*
X221856993Y-96846496D01*
X221880197Y-96840684D01*
X221903858Y-96837174D01*
X221927750Y-96836000D01*
X222415250Y-96836000D01*
X222439142Y-96837174D01*
G37*
D11*
X216662000Y-94742000D03*
X216662000Y-92202000D03*
X216662000Y-89662000D03*
X216662000Y-87122000D03*
X216662000Y-84582000D03*
X216662000Y-82042000D03*
X216662000Y-79502000D03*
D12*
X216662000Y-76962000D03*
D11*
X201937001Y-77766999D03*
X199397001Y-77766999D03*
X196857001Y-77766999D03*
D12*
X194317001Y-77766999D03*
D20*
X199644000Y-73660000D03*
X199644000Y-72390000D03*
X198374000Y-73660000D03*
X198374000Y-72390000D03*
X197104000Y-73660000D03*
X197104000Y-72390000D03*
X195834000Y-73660000D03*
X195834000Y-72390000D03*
X194564000Y-73660000D03*
D21*
X194564000Y-72390000D03*
D10*
G36*
X242337504Y-92344204D02*
G01*
X242361773Y-92347804D01*
X242385571Y-92353765D01*
X242408671Y-92362030D01*
X242430849Y-92372520D01*
X242451893Y-92385133D01*
X242471598Y-92399747D01*
X242489777Y-92416223D01*
X242506253Y-92434402D01*
X242520867Y-92454107D01*
X242533480Y-92475151D01*
X242543970Y-92497329D01*
X242552235Y-92520429D01*
X242558196Y-92544227D01*
X242561796Y-92568496D01*
X242563000Y-92593000D01*
X242563000Y-93843000D01*
X242561796Y-93867504D01*
X242558196Y-93891773D01*
X242552235Y-93915571D01*
X242543970Y-93938671D01*
X242533480Y-93960849D01*
X242520867Y-93981893D01*
X242506253Y-94001598D01*
X242489777Y-94019777D01*
X242471598Y-94036253D01*
X242451893Y-94050867D01*
X242430849Y-94063480D01*
X242408671Y-94073970D01*
X242385571Y-94082235D01*
X242361773Y-94088196D01*
X242337504Y-94091796D01*
X242313000Y-94093000D01*
X241563000Y-94093000D01*
X241538496Y-94091796D01*
X241514227Y-94088196D01*
X241490429Y-94082235D01*
X241467329Y-94073970D01*
X241445151Y-94063480D01*
X241424107Y-94050867D01*
X241404402Y-94036253D01*
X241386223Y-94019777D01*
X241369747Y-94001598D01*
X241355133Y-93981893D01*
X241342520Y-93960849D01*
X241332030Y-93938671D01*
X241323765Y-93915571D01*
X241317804Y-93891773D01*
X241314204Y-93867504D01*
X241313000Y-93843000D01*
X241313000Y-92593000D01*
X241314204Y-92568496D01*
X241317804Y-92544227D01*
X241323765Y-92520429D01*
X241332030Y-92497329D01*
X241342520Y-92475151D01*
X241355133Y-92454107D01*
X241369747Y-92434402D01*
X241386223Y-92416223D01*
X241404402Y-92399747D01*
X241424107Y-92385133D01*
X241445151Y-92372520D01*
X241467329Y-92362030D01*
X241490429Y-92353765D01*
X241514227Y-92347804D01*
X241538496Y-92344204D01*
X241563000Y-92343000D01*
X242313000Y-92343000D01*
X242337504Y-92344204D01*
G37*
G36*
X239537504Y-92344204D02*
G01*
X239561773Y-92347804D01*
X239585571Y-92353765D01*
X239608671Y-92362030D01*
X239630849Y-92372520D01*
X239651893Y-92385133D01*
X239671598Y-92399747D01*
X239689777Y-92416223D01*
X239706253Y-92434402D01*
X239720867Y-92454107D01*
X239733480Y-92475151D01*
X239743970Y-92497329D01*
X239752235Y-92520429D01*
X239758196Y-92544227D01*
X239761796Y-92568496D01*
X239763000Y-92593000D01*
X239763000Y-93843000D01*
X239761796Y-93867504D01*
X239758196Y-93891773D01*
X239752235Y-93915571D01*
X239743970Y-93938671D01*
X239733480Y-93960849D01*
X239720867Y-93981893D01*
X239706253Y-94001598D01*
X239689777Y-94019777D01*
X239671598Y-94036253D01*
X239651893Y-94050867D01*
X239630849Y-94063480D01*
X239608671Y-94073970D01*
X239585571Y-94082235D01*
X239561773Y-94088196D01*
X239537504Y-94091796D01*
X239513000Y-94093000D01*
X238763000Y-94093000D01*
X238738496Y-94091796D01*
X238714227Y-94088196D01*
X238690429Y-94082235D01*
X238667329Y-94073970D01*
X238645151Y-94063480D01*
X238624107Y-94050867D01*
X238604402Y-94036253D01*
X238586223Y-94019777D01*
X238569747Y-94001598D01*
X238555133Y-93981893D01*
X238542520Y-93960849D01*
X238532030Y-93938671D01*
X238523765Y-93915571D01*
X238517804Y-93891773D01*
X238514204Y-93867504D01*
X238513000Y-93843000D01*
X238513000Y-92593000D01*
X238514204Y-92568496D01*
X238517804Y-92544227D01*
X238523765Y-92520429D01*
X238532030Y-92497329D01*
X238542520Y-92475151D01*
X238555133Y-92454107D01*
X238569747Y-92434402D01*
X238586223Y-92416223D01*
X238604402Y-92399747D01*
X238624107Y-92385133D01*
X238645151Y-92372520D01*
X238667329Y-92362030D01*
X238690429Y-92353765D01*
X238714227Y-92347804D01*
X238738496Y-92344204D01*
X238763000Y-92343000D01*
X239513000Y-92343000D01*
X239537504Y-92344204D01*
G37*
G36*
X248179504Y-92344204D02*
G01*
X248203773Y-92347804D01*
X248227571Y-92353765D01*
X248250671Y-92362030D01*
X248272849Y-92372520D01*
X248293893Y-92385133D01*
X248313598Y-92399747D01*
X248331777Y-92416223D01*
X248348253Y-92434402D01*
X248362867Y-92454107D01*
X248375480Y-92475151D01*
X248385970Y-92497329D01*
X248394235Y-92520429D01*
X248400196Y-92544227D01*
X248403796Y-92568496D01*
X248405000Y-92593000D01*
X248405000Y-93843000D01*
X248403796Y-93867504D01*
X248400196Y-93891773D01*
X248394235Y-93915571D01*
X248385970Y-93938671D01*
X248375480Y-93960849D01*
X248362867Y-93981893D01*
X248348253Y-94001598D01*
X248331777Y-94019777D01*
X248313598Y-94036253D01*
X248293893Y-94050867D01*
X248272849Y-94063480D01*
X248250671Y-94073970D01*
X248227571Y-94082235D01*
X248203773Y-94088196D01*
X248179504Y-94091796D01*
X248155000Y-94093000D01*
X247405000Y-94093000D01*
X247380496Y-94091796D01*
X247356227Y-94088196D01*
X247332429Y-94082235D01*
X247309329Y-94073970D01*
X247287151Y-94063480D01*
X247266107Y-94050867D01*
X247246402Y-94036253D01*
X247228223Y-94019777D01*
X247211747Y-94001598D01*
X247197133Y-93981893D01*
X247184520Y-93960849D01*
X247174030Y-93938671D01*
X247165765Y-93915571D01*
X247159804Y-93891773D01*
X247156204Y-93867504D01*
X247155000Y-93843000D01*
X247155000Y-92593000D01*
X247156204Y-92568496D01*
X247159804Y-92544227D01*
X247165765Y-92520429D01*
X247174030Y-92497329D01*
X247184520Y-92475151D01*
X247197133Y-92454107D01*
X247211747Y-92434402D01*
X247228223Y-92416223D01*
X247246402Y-92399747D01*
X247266107Y-92385133D01*
X247287151Y-92372520D01*
X247309329Y-92362030D01*
X247332429Y-92353765D01*
X247356227Y-92347804D01*
X247380496Y-92344204D01*
X247405000Y-92343000D01*
X248155000Y-92343000D01*
X248179504Y-92344204D01*
G37*
G36*
X245379504Y-92344204D02*
G01*
X245403773Y-92347804D01*
X245427571Y-92353765D01*
X245450671Y-92362030D01*
X245472849Y-92372520D01*
X245493893Y-92385133D01*
X245513598Y-92399747D01*
X245531777Y-92416223D01*
X245548253Y-92434402D01*
X245562867Y-92454107D01*
X245575480Y-92475151D01*
X245585970Y-92497329D01*
X245594235Y-92520429D01*
X245600196Y-92544227D01*
X245603796Y-92568496D01*
X245605000Y-92593000D01*
X245605000Y-93843000D01*
X245603796Y-93867504D01*
X245600196Y-93891773D01*
X245594235Y-93915571D01*
X245585970Y-93938671D01*
X245575480Y-93960849D01*
X245562867Y-93981893D01*
X245548253Y-94001598D01*
X245531777Y-94019777D01*
X245513598Y-94036253D01*
X245493893Y-94050867D01*
X245472849Y-94063480D01*
X245450671Y-94073970D01*
X245427571Y-94082235D01*
X245403773Y-94088196D01*
X245379504Y-94091796D01*
X245355000Y-94093000D01*
X244605000Y-94093000D01*
X244580496Y-94091796D01*
X244556227Y-94088196D01*
X244532429Y-94082235D01*
X244509329Y-94073970D01*
X244487151Y-94063480D01*
X244466107Y-94050867D01*
X244446402Y-94036253D01*
X244428223Y-94019777D01*
X244411747Y-94001598D01*
X244397133Y-93981893D01*
X244384520Y-93960849D01*
X244374030Y-93938671D01*
X244365765Y-93915571D01*
X244359804Y-93891773D01*
X244356204Y-93867504D01*
X244355000Y-93843000D01*
X244355000Y-92593000D01*
X244356204Y-92568496D01*
X244359804Y-92544227D01*
X244365765Y-92520429D01*
X244374030Y-92497329D01*
X244384520Y-92475151D01*
X244397133Y-92454107D01*
X244411747Y-92434402D01*
X244428223Y-92416223D01*
X244446402Y-92399747D01*
X244466107Y-92385133D01*
X244487151Y-92372520D01*
X244509329Y-92362030D01*
X244532429Y-92353765D01*
X244556227Y-92347804D01*
X244580496Y-92344204D01*
X244605000Y-92343000D01*
X245355000Y-92343000D01*
X245379504Y-92344204D01*
G37*
G36*
X250839504Y-89416204D02*
G01*
X250863773Y-89419804D01*
X250887571Y-89425765D01*
X250910671Y-89434030D01*
X250932849Y-89444520D01*
X250953893Y-89457133D01*
X250973598Y-89471747D01*
X250991777Y-89488223D01*
X251008253Y-89506402D01*
X251022867Y-89526107D01*
X251035480Y-89547151D01*
X251045970Y-89569329D01*
X251054235Y-89592429D01*
X251060196Y-89616227D01*
X251063796Y-89640496D01*
X251065000Y-89665000D01*
X251065000Y-90415000D01*
X251063796Y-90439504D01*
X251060196Y-90463773D01*
X251054235Y-90487571D01*
X251045970Y-90510671D01*
X251035480Y-90532849D01*
X251022867Y-90553893D01*
X251008253Y-90573598D01*
X250991777Y-90591777D01*
X250973598Y-90608253D01*
X250953893Y-90622867D01*
X250932849Y-90635480D01*
X250910671Y-90645970D01*
X250887571Y-90654235D01*
X250863773Y-90660196D01*
X250839504Y-90663796D01*
X250815000Y-90665000D01*
X249565000Y-90665000D01*
X249540496Y-90663796D01*
X249516227Y-90660196D01*
X249492429Y-90654235D01*
X249469329Y-90645970D01*
X249447151Y-90635480D01*
X249426107Y-90622867D01*
X249406402Y-90608253D01*
X249388223Y-90591777D01*
X249371747Y-90573598D01*
X249357133Y-90553893D01*
X249344520Y-90532849D01*
X249334030Y-90510671D01*
X249325765Y-90487571D01*
X249319804Y-90463773D01*
X249316204Y-90439504D01*
X249315000Y-90415000D01*
X249315000Y-89665000D01*
X249316204Y-89640496D01*
X249319804Y-89616227D01*
X249325765Y-89592429D01*
X249334030Y-89569329D01*
X249344520Y-89547151D01*
X249357133Y-89526107D01*
X249371747Y-89506402D01*
X249388223Y-89488223D01*
X249406402Y-89471747D01*
X249426107Y-89457133D01*
X249447151Y-89444520D01*
X249469329Y-89434030D01*
X249492429Y-89425765D01*
X249516227Y-89419804D01*
X249540496Y-89416204D01*
X249565000Y-89415000D01*
X250815000Y-89415000D01*
X250839504Y-89416204D01*
G37*
G36*
X250839504Y-92216204D02*
G01*
X250863773Y-92219804D01*
X250887571Y-92225765D01*
X250910671Y-92234030D01*
X250932849Y-92244520D01*
X250953893Y-92257133D01*
X250973598Y-92271747D01*
X250991777Y-92288223D01*
X251008253Y-92306402D01*
X251022867Y-92326107D01*
X251035480Y-92347151D01*
X251045970Y-92369329D01*
X251054235Y-92392429D01*
X251060196Y-92416227D01*
X251063796Y-92440496D01*
X251065000Y-92465000D01*
X251065000Y-93215000D01*
X251063796Y-93239504D01*
X251060196Y-93263773D01*
X251054235Y-93287571D01*
X251045970Y-93310671D01*
X251035480Y-93332849D01*
X251022867Y-93353893D01*
X251008253Y-93373598D01*
X250991777Y-93391777D01*
X250973598Y-93408253D01*
X250953893Y-93422867D01*
X250932849Y-93435480D01*
X250910671Y-93445970D01*
X250887571Y-93454235D01*
X250863773Y-93460196D01*
X250839504Y-93463796D01*
X250815000Y-93465000D01*
X249565000Y-93465000D01*
X249540496Y-93463796D01*
X249516227Y-93460196D01*
X249492429Y-93454235D01*
X249469329Y-93445970D01*
X249447151Y-93435480D01*
X249426107Y-93422867D01*
X249406402Y-93408253D01*
X249388223Y-93391777D01*
X249371747Y-93373598D01*
X249357133Y-93353893D01*
X249344520Y-93332849D01*
X249334030Y-93310671D01*
X249325765Y-93287571D01*
X249319804Y-93263773D01*
X249316204Y-93239504D01*
X249315000Y-93215000D01*
X249315000Y-92465000D01*
X249316204Y-92440496D01*
X249319804Y-92416227D01*
X249325765Y-92392429D01*
X249334030Y-92369329D01*
X249344520Y-92347151D01*
X249357133Y-92326107D01*
X249371747Y-92306402D01*
X249388223Y-92288223D01*
X249406402Y-92271747D01*
X249426107Y-92257133D01*
X249447151Y-92244520D01*
X249469329Y-92234030D01*
X249492429Y-92225765D01*
X249516227Y-92219804D01*
X249540496Y-92216204D01*
X249565000Y-92215000D01*
X250815000Y-92215000D01*
X250839504Y-92216204D01*
G37*
G36*
X245210503Y-89127203D02*
G01*
X245234772Y-89130803D01*
X245258570Y-89136764D01*
X245281670Y-89145029D01*
X245303848Y-89155519D01*
X245324892Y-89168132D01*
X245344597Y-89182746D01*
X245362776Y-89199222D01*
X245379252Y-89217401D01*
X245393866Y-89237106D01*
X245406479Y-89258150D01*
X245416969Y-89280328D01*
X245425234Y-89303428D01*
X245431195Y-89327226D01*
X245434795Y-89351495D01*
X245435999Y-89375999D01*
X245435999Y-90625999D01*
X245434795Y-90650503D01*
X245431195Y-90674772D01*
X245425234Y-90698570D01*
X245416969Y-90721670D01*
X245406479Y-90743848D01*
X245393866Y-90764892D01*
X245379252Y-90784597D01*
X245362776Y-90802776D01*
X245344597Y-90819252D01*
X245324892Y-90833866D01*
X245303848Y-90846479D01*
X245281670Y-90856969D01*
X245258570Y-90865234D01*
X245234772Y-90871195D01*
X245210503Y-90874795D01*
X245185999Y-90875999D01*
X244435999Y-90875999D01*
X244411495Y-90874795D01*
X244387226Y-90871195D01*
X244363428Y-90865234D01*
X244340328Y-90856969D01*
X244318150Y-90846479D01*
X244297106Y-90833866D01*
X244277401Y-90819252D01*
X244259222Y-90802776D01*
X244242746Y-90784597D01*
X244228132Y-90764892D01*
X244215519Y-90743848D01*
X244205029Y-90721670D01*
X244196764Y-90698570D01*
X244190803Y-90674772D01*
X244187203Y-90650503D01*
X244185999Y-90625999D01*
X244185999Y-89375999D01*
X244187203Y-89351495D01*
X244190803Y-89327226D01*
X244196764Y-89303428D01*
X244205029Y-89280328D01*
X244215519Y-89258150D01*
X244228132Y-89237106D01*
X244242746Y-89217401D01*
X244259222Y-89199222D01*
X244277401Y-89182746D01*
X244297106Y-89168132D01*
X244318150Y-89155519D01*
X244340328Y-89145029D01*
X244363428Y-89136764D01*
X244387226Y-89130803D01*
X244411495Y-89127203D01*
X244435999Y-89125999D01*
X245185999Y-89125999D01*
X245210503Y-89127203D01*
G37*
G36*
X248010503Y-89127203D02*
G01*
X248034772Y-89130803D01*
X248058570Y-89136764D01*
X248081670Y-89145029D01*
X248103848Y-89155519D01*
X248124892Y-89168132D01*
X248144597Y-89182746D01*
X248162776Y-89199222D01*
X248179252Y-89217401D01*
X248193866Y-89237106D01*
X248206479Y-89258150D01*
X248216969Y-89280328D01*
X248225234Y-89303428D01*
X248231195Y-89327226D01*
X248234795Y-89351495D01*
X248235999Y-89375999D01*
X248235999Y-90625999D01*
X248234795Y-90650503D01*
X248231195Y-90674772D01*
X248225234Y-90698570D01*
X248216969Y-90721670D01*
X248206479Y-90743848D01*
X248193866Y-90764892D01*
X248179252Y-90784597D01*
X248162776Y-90802776D01*
X248144597Y-90819252D01*
X248124892Y-90833866D01*
X248103848Y-90846479D01*
X248081670Y-90856969D01*
X248058570Y-90865234D01*
X248034772Y-90871195D01*
X248010503Y-90874795D01*
X247985999Y-90875999D01*
X247235999Y-90875999D01*
X247211495Y-90874795D01*
X247187226Y-90871195D01*
X247163428Y-90865234D01*
X247140328Y-90856969D01*
X247118150Y-90846479D01*
X247097106Y-90833866D01*
X247077401Y-90819252D01*
X247059222Y-90802776D01*
X247042746Y-90784597D01*
X247028132Y-90764892D01*
X247015519Y-90743848D01*
X247005029Y-90721670D01*
X246996764Y-90698570D01*
X246990803Y-90674772D01*
X246987203Y-90650503D01*
X246985999Y-90625999D01*
X246985999Y-89375999D01*
X246987203Y-89351495D01*
X246990803Y-89327226D01*
X246996764Y-89303428D01*
X247005029Y-89280328D01*
X247015519Y-89258150D01*
X247028132Y-89237106D01*
X247042746Y-89217401D01*
X247059222Y-89199222D01*
X247077401Y-89182746D01*
X247097106Y-89168132D01*
X247118150Y-89155519D01*
X247140328Y-89145029D01*
X247163428Y-89136764D01*
X247187226Y-89130803D01*
X247211495Y-89127203D01*
X247235999Y-89125999D01*
X247985999Y-89125999D01*
X248010503Y-89127203D01*
G37*
G36*
X239560503Y-89127203D02*
G01*
X239584772Y-89130803D01*
X239608570Y-89136764D01*
X239631670Y-89145029D01*
X239653848Y-89155519D01*
X239674892Y-89168132D01*
X239694597Y-89182746D01*
X239712776Y-89199222D01*
X239729252Y-89217401D01*
X239743866Y-89237106D01*
X239756479Y-89258150D01*
X239766969Y-89280328D01*
X239775234Y-89303428D01*
X239781195Y-89327226D01*
X239784795Y-89351495D01*
X239785999Y-89375999D01*
X239785999Y-90625999D01*
X239784795Y-90650503D01*
X239781195Y-90674772D01*
X239775234Y-90698570D01*
X239766969Y-90721670D01*
X239756479Y-90743848D01*
X239743866Y-90764892D01*
X239729252Y-90784597D01*
X239712776Y-90802776D01*
X239694597Y-90819252D01*
X239674892Y-90833866D01*
X239653848Y-90846479D01*
X239631670Y-90856969D01*
X239608570Y-90865234D01*
X239584772Y-90871195D01*
X239560503Y-90874795D01*
X239535999Y-90875999D01*
X238785999Y-90875999D01*
X238761495Y-90874795D01*
X238737226Y-90871195D01*
X238713428Y-90865234D01*
X238690328Y-90856969D01*
X238668150Y-90846479D01*
X238647106Y-90833866D01*
X238627401Y-90819252D01*
X238609222Y-90802776D01*
X238592746Y-90784597D01*
X238578132Y-90764892D01*
X238565519Y-90743848D01*
X238555029Y-90721670D01*
X238546764Y-90698570D01*
X238540803Y-90674772D01*
X238537203Y-90650503D01*
X238535999Y-90625999D01*
X238535999Y-89375999D01*
X238537203Y-89351495D01*
X238540803Y-89327226D01*
X238546764Y-89303428D01*
X238555029Y-89280328D01*
X238565519Y-89258150D01*
X238578132Y-89237106D01*
X238592746Y-89217401D01*
X238609222Y-89199222D01*
X238627401Y-89182746D01*
X238647106Y-89168132D01*
X238668150Y-89155519D01*
X238690328Y-89145029D01*
X238713428Y-89136764D01*
X238737226Y-89130803D01*
X238761495Y-89127203D01*
X238785999Y-89125999D01*
X239535999Y-89125999D01*
X239560503Y-89127203D01*
G37*
G36*
X242360503Y-89127203D02*
G01*
X242384772Y-89130803D01*
X242408570Y-89136764D01*
X242431670Y-89145029D01*
X242453848Y-89155519D01*
X242474892Y-89168132D01*
X242494597Y-89182746D01*
X242512776Y-89199222D01*
X242529252Y-89217401D01*
X242543866Y-89237106D01*
X242556479Y-89258150D01*
X242566969Y-89280328D01*
X242575234Y-89303428D01*
X242581195Y-89327226D01*
X242584795Y-89351495D01*
X242585999Y-89375999D01*
X242585999Y-90625999D01*
X242584795Y-90650503D01*
X242581195Y-90674772D01*
X242575234Y-90698570D01*
X242566969Y-90721670D01*
X242556479Y-90743848D01*
X242543866Y-90764892D01*
X242529252Y-90784597D01*
X242512776Y-90802776D01*
X242494597Y-90819252D01*
X242474892Y-90833866D01*
X242453848Y-90846479D01*
X242431670Y-90856969D01*
X242408570Y-90865234D01*
X242384772Y-90871195D01*
X242360503Y-90874795D01*
X242335999Y-90875999D01*
X241585999Y-90875999D01*
X241561495Y-90874795D01*
X241537226Y-90871195D01*
X241513428Y-90865234D01*
X241490328Y-90856969D01*
X241468150Y-90846479D01*
X241447106Y-90833866D01*
X241427401Y-90819252D01*
X241409222Y-90802776D01*
X241392746Y-90784597D01*
X241378132Y-90764892D01*
X241365519Y-90743848D01*
X241355029Y-90721670D01*
X241346764Y-90698570D01*
X241340803Y-90674772D01*
X241337203Y-90650503D01*
X241335999Y-90625999D01*
X241335999Y-89375999D01*
X241337203Y-89351495D01*
X241340803Y-89327226D01*
X241346764Y-89303428D01*
X241355029Y-89280328D01*
X241365519Y-89258150D01*
X241378132Y-89237106D01*
X241392746Y-89217401D01*
X241409222Y-89199222D01*
X241427401Y-89182746D01*
X241447106Y-89168132D01*
X241468150Y-89155519D01*
X241490328Y-89145029D01*
X241513428Y-89136764D01*
X241537226Y-89130803D01*
X241561495Y-89127203D01*
X241585999Y-89125999D01*
X242335999Y-89125999D01*
X242360503Y-89127203D01*
G37*
G36*
X198512958Y-69784710D02*
G01*
X198527276Y-69786834D01*
X198541317Y-69790351D01*
X198554946Y-69795228D01*
X198568031Y-69801417D01*
X198580447Y-69808858D01*
X198592073Y-69817481D01*
X198602798Y-69827202D01*
X198612519Y-69837927D01*
X198621142Y-69849553D01*
X198628583Y-69861969D01*
X198634772Y-69875054D01*
X198639649Y-69888683D01*
X198643166Y-69902724D01*
X198645290Y-69917042D01*
X198646000Y-69931500D01*
X198646000Y-70276500D01*
X198645290Y-70290958D01*
X198643166Y-70305276D01*
X198639649Y-70319317D01*
X198634772Y-70332946D01*
X198628583Y-70346031D01*
X198621142Y-70358447D01*
X198612519Y-70370073D01*
X198602798Y-70380798D01*
X198592073Y-70390519D01*
X198580447Y-70399142D01*
X198568031Y-70406583D01*
X198554946Y-70412772D01*
X198541317Y-70417649D01*
X198527276Y-70421166D01*
X198512958Y-70423290D01*
X198498500Y-70424000D01*
X198203500Y-70424000D01*
X198189042Y-70423290D01*
X198174724Y-70421166D01*
X198160683Y-70417649D01*
X198147054Y-70412772D01*
X198133969Y-70406583D01*
X198121553Y-70399142D01*
X198109927Y-70390519D01*
X198099202Y-70380798D01*
X198089481Y-70370073D01*
X198080858Y-70358447D01*
X198073417Y-70346031D01*
X198067228Y-70332946D01*
X198062351Y-70319317D01*
X198058834Y-70305276D01*
X198056710Y-70290958D01*
X198056000Y-70276500D01*
X198056000Y-69931500D01*
X198056710Y-69917042D01*
X198058834Y-69902724D01*
X198062351Y-69888683D01*
X198067228Y-69875054D01*
X198073417Y-69861969D01*
X198080858Y-69849553D01*
X198089481Y-69837927D01*
X198099202Y-69827202D01*
X198109927Y-69817481D01*
X198121553Y-69808858D01*
X198133969Y-69801417D01*
X198147054Y-69795228D01*
X198160683Y-69790351D01*
X198174724Y-69786834D01*
X198189042Y-69784710D01*
X198203500Y-69784000D01*
X198498500Y-69784000D01*
X198512958Y-69784710D01*
G37*
G36*
X197542958Y-69784710D02*
G01*
X197557276Y-69786834D01*
X197571317Y-69790351D01*
X197584946Y-69795228D01*
X197598031Y-69801417D01*
X197610447Y-69808858D01*
X197622073Y-69817481D01*
X197632798Y-69827202D01*
X197642519Y-69837927D01*
X197651142Y-69849553D01*
X197658583Y-69861969D01*
X197664772Y-69875054D01*
X197669649Y-69888683D01*
X197673166Y-69902724D01*
X197675290Y-69917042D01*
X197676000Y-69931500D01*
X197676000Y-70276500D01*
X197675290Y-70290958D01*
X197673166Y-70305276D01*
X197669649Y-70319317D01*
X197664772Y-70332946D01*
X197658583Y-70346031D01*
X197651142Y-70358447D01*
X197642519Y-70370073D01*
X197632798Y-70380798D01*
X197622073Y-70390519D01*
X197610447Y-70399142D01*
X197598031Y-70406583D01*
X197584946Y-70412772D01*
X197571317Y-70417649D01*
X197557276Y-70421166D01*
X197542958Y-70423290D01*
X197528500Y-70424000D01*
X197233500Y-70424000D01*
X197219042Y-70423290D01*
X197204724Y-70421166D01*
X197190683Y-70417649D01*
X197177054Y-70412772D01*
X197163969Y-70406583D01*
X197151553Y-70399142D01*
X197139927Y-70390519D01*
X197129202Y-70380798D01*
X197119481Y-70370073D01*
X197110858Y-70358447D01*
X197103417Y-70346031D01*
X197097228Y-70332946D01*
X197092351Y-70319317D01*
X197088834Y-70305276D01*
X197086710Y-70290958D01*
X197086000Y-70276500D01*
X197086000Y-69931500D01*
X197086710Y-69917042D01*
X197088834Y-69902724D01*
X197092351Y-69888683D01*
X197097228Y-69875054D01*
X197103417Y-69861969D01*
X197110858Y-69849553D01*
X197119481Y-69837927D01*
X197129202Y-69827202D01*
X197139927Y-69817481D01*
X197151553Y-69808858D01*
X197163969Y-69801417D01*
X197177054Y-69795228D01*
X197190683Y-69790351D01*
X197204724Y-69786834D01*
X197219042Y-69784710D01*
X197233500Y-69784000D01*
X197528500Y-69784000D01*
X197542958Y-69784710D01*
G37*
G36*
X214363959Y-54577711D02*
G01*
X214378277Y-54579835D01*
X214392318Y-54583352D01*
X214405947Y-54588229D01*
X214419032Y-54594418D01*
X214431448Y-54601859D01*
X214443074Y-54610482D01*
X214453799Y-54620203D01*
X214463520Y-54630928D01*
X214472143Y-54642554D01*
X214479584Y-54654970D01*
X214485773Y-54668055D01*
X214490650Y-54681684D01*
X214494167Y-54695725D01*
X214496291Y-54710043D01*
X214497001Y-54724501D01*
X214497001Y-55069501D01*
X214496291Y-55083959D01*
X214494167Y-55098277D01*
X214490650Y-55112318D01*
X214485773Y-55125947D01*
X214479584Y-55139032D01*
X214472143Y-55151448D01*
X214463520Y-55163074D01*
X214453799Y-55173799D01*
X214443074Y-55183520D01*
X214431448Y-55192143D01*
X214419032Y-55199584D01*
X214405947Y-55205773D01*
X214392318Y-55210650D01*
X214378277Y-55214167D01*
X214363959Y-55216291D01*
X214349501Y-55217001D01*
X214054501Y-55217001D01*
X214040043Y-55216291D01*
X214025725Y-55214167D01*
X214011684Y-55210650D01*
X213998055Y-55205773D01*
X213984970Y-55199584D01*
X213972554Y-55192143D01*
X213960928Y-55183520D01*
X213950203Y-55173799D01*
X213940482Y-55163074D01*
X213931859Y-55151448D01*
X213924418Y-55139032D01*
X213918229Y-55125947D01*
X213913352Y-55112318D01*
X213909835Y-55098277D01*
X213907711Y-55083959D01*
X213907001Y-55069501D01*
X213907001Y-54724501D01*
X213907711Y-54710043D01*
X213909835Y-54695725D01*
X213913352Y-54681684D01*
X213918229Y-54668055D01*
X213924418Y-54654970D01*
X213931859Y-54642554D01*
X213940482Y-54630928D01*
X213950203Y-54620203D01*
X213960928Y-54610482D01*
X213972554Y-54601859D01*
X213984970Y-54594418D01*
X213998055Y-54588229D01*
X214011684Y-54583352D01*
X214025725Y-54579835D01*
X214040043Y-54577711D01*
X214054501Y-54577001D01*
X214349501Y-54577001D01*
X214363959Y-54577711D01*
G37*
G36*
X213393959Y-54577711D02*
G01*
X213408277Y-54579835D01*
X213422318Y-54583352D01*
X213435947Y-54588229D01*
X213449032Y-54594418D01*
X213461448Y-54601859D01*
X213473074Y-54610482D01*
X213483799Y-54620203D01*
X213493520Y-54630928D01*
X213502143Y-54642554D01*
X213509584Y-54654970D01*
X213515773Y-54668055D01*
X213520650Y-54681684D01*
X213524167Y-54695725D01*
X213526291Y-54710043D01*
X213527001Y-54724501D01*
X213527001Y-55069501D01*
X213526291Y-55083959D01*
X213524167Y-55098277D01*
X213520650Y-55112318D01*
X213515773Y-55125947D01*
X213509584Y-55139032D01*
X213502143Y-55151448D01*
X213493520Y-55163074D01*
X213483799Y-55173799D01*
X213473074Y-55183520D01*
X213461448Y-55192143D01*
X213449032Y-55199584D01*
X213435947Y-55205773D01*
X213422318Y-55210650D01*
X213408277Y-55214167D01*
X213393959Y-55216291D01*
X213379501Y-55217001D01*
X213084501Y-55217001D01*
X213070043Y-55216291D01*
X213055725Y-55214167D01*
X213041684Y-55210650D01*
X213028055Y-55205773D01*
X213014970Y-55199584D01*
X213002554Y-55192143D01*
X212990928Y-55183520D01*
X212980203Y-55173799D01*
X212970482Y-55163074D01*
X212961859Y-55151448D01*
X212954418Y-55139032D01*
X212948229Y-55125947D01*
X212943352Y-55112318D01*
X212939835Y-55098277D01*
X212937711Y-55083959D01*
X212937001Y-55069501D01*
X212937001Y-54724501D01*
X212937711Y-54710043D01*
X212939835Y-54695725D01*
X212943352Y-54681684D01*
X212948229Y-54668055D01*
X212954418Y-54654970D01*
X212961859Y-54642554D01*
X212970482Y-54630928D01*
X212980203Y-54620203D01*
X212990928Y-54610482D01*
X213002554Y-54601859D01*
X213014970Y-54594418D01*
X213028055Y-54588229D01*
X213041684Y-54583352D01*
X213055725Y-54579835D01*
X213070043Y-54577711D01*
X213084501Y-54577001D01*
X213379501Y-54577001D01*
X213393959Y-54577711D01*
G37*
G36*
X214562958Y-71056710D02*
G01*
X214577276Y-71058834D01*
X214591317Y-71062351D01*
X214604946Y-71067228D01*
X214618031Y-71073417D01*
X214630447Y-71080858D01*
X214642073Y-71089481D01*
X214652798Y-71099202D01*
X214662519Y-71109927D01*
X214671142Y-71121553D01*
X214678583Y-71133969D01*
X214684772Y-71147054D01*
X214689649Y-71160683D01*
X214693166Y-71174724D01*
X214695290Y-71189042D01*
X214696000Y-71203500D01*
X214696000Y-71498500D01*
X214695290Y-71512958D01*
X214693166Y-71527276D01*
X214689649Y-71541317D01*
X214684772Y-71554946D01*
X214678583Y-71568031D01*
X214671142Y-71580447D01*
X214662519Y-71592073D01*
X214652798Y-71602798D01*
X214642073Y-71612519D01*
X214630447Y-71621142D01*
X214618031Y-71628583D01*
X214604946Y-71634772D01*
X214591317Y-71639649D01*
X214577276Y-71643166D01*
X214562958Y-71645290D01*
X214548500Y-71646000D01*
X214203500Y-71646000D01*
X214189042Y-71645290D01*
X214174724Y-71643166D01*
X214160683Y-71639649D01*
X214147054Y-71634772D01*
X214133969Y-71628583D01*
X214121553Y-71621142D01*
X214109927Y-71612519D01*
X214099202Y-71602798D01*
X214089481Y-71592073D01*
X214080858Y-71580447D01*
X214073417Y-71568031D01*
X214067228Y-71554946D01*
X214062351Y-71541317D01*
X214058834Y-71527276D01*
X214056710Y-71512958D01*
X214056000Y-71498500D01*
X214056000Y-71203500D01*
X214056710Y-71189042D01*
X214058834Y-71174724D01*
X214062351Y-71160683D01*
X214067228Y-71147054D01*
X214073417Y-71133969D01*
X214080858Y-71121553D01*
X214089481Y-71109927D01*
X214099202Y-71099202D01*
X214109927Y-71089481D01*
X214121553Y-71080858D01*
X214133969Y-71073417D01*
X214147054Y-71067228D01*
X214160683Y-71062351D01*
X214174724Y-71058834D01*
X214189042Y-71056710D01*
X214203500Y-71056000D01*
X214548500Y-71056000D01*
X214562958Y-71056710D01*
G37*
G36*
X214562958Y-70086710D02*
G01*
X214577276Y-70088834D01*
X214591317Y-70092351D01*
X214604946Y-70097228D01*
X214618031Y-70103417D01*
X214630447Y-70110858D01*
X214642073Y-70119481D01*
X214652798Y-70129202D01*
X214662519Y-70139927D01*
X214671142Y-70151553D01*
X214678583Y-70163969D01*
X214684772Y-70177054D01*
X214689649Y-70190683D01*
X214693166Y-70204724D01*
X214695290Y-70219042D01*
X214696000Y-70233500D01*
X214696000Y-70528500D01*
X214695290Y-70542958D01*
X214693166Y-70557276D01*
X214689649Y-70571317D01*
X214684772Y-70584946D01*
X214678583Y-70598031D01*
X214671142Y-70610447D01*
X214662519Y-70622073D01*
X214652798Y-70632798D01*
X214642073Y-70642519D01*
X214630447Y-70651142D01*
X214618031Y-70658583D01*
X214604946Y-70664772D01*
X214591317Y-70669649D01*
X214577276Y-70673166D01*
X214562958Y-70675290D01*
X214548500Y-70676000D01*
X214203500Y-70676000D01*
X214189042Y-70675290D01*
X214174724Y-70673166D01*
X214160683Y-70669649D01*
X214147054Y-70664772D01*
X214133969Y-70658583D01*
X214121553Y-70651142D01*
X214109927Y-70642519D01*
X214099202Y-70632798D01*
X214089481Y-70622073D01*
X214080858Y-70610447D01*
X214073417Y-70598031D01*
X214067228Y-70584946D01*
X214062351Y-70571317D01*
X214058834Y-70557276D01*
X214056710Y-70542958D01*
X214056000Y-70528500D01*
X214056000Y-70233500D01*
X214056710Y-70219042D01*
X214058834Y-70204724D01*
X214062351Y-70190683D01*
X214067228Y-70177054D01*
X214073417Y-70163969D01*
X214080858Y-70151553D01*
X214089481Y-70139927D01*
X214099202Y-70129202D01*
X214109927Y-70119481D01*
X214121553Y-70110858D01*
X214133969Y-70103417D01*
X214147054Y-70097228D01*
X214160683Y-70092351D01*
X214174724Y-70088834D01*
X214189042Y-70086710D01*
X214203500Y-70086000D01*
X214548500Y-70086000D01*
X214562958Y-70086710D01*
G37*
G36*
X207891958Y-107920710D02*
G01*
X207906276Y-107922834D01*
X207920317Y-107926351D01*
X207933946Y-107931228D01*
X207947031Y-107937417D01*
X207959447Y-107944858D01*
X207971073Y-107953481D01*
X207981798Y-107963202D01*
X207991519Y-107973927D01*
X208000142Y-107985553D01*
X208007583Y-107997969D01*
X208013772Y-108011054D01*
X208018649Y-108024683D01*
X208022166Y-108038724D01*
X208024290Y-108053042D01*
X208025000Y-108067500D01*
X208025000Y-108412500D01*
X208024290Y-108426958D01*
X208022166Y-108441276D01*
X208018649Y-108455317D01*
X208013772Y-108468946D01*
X208007583Y-108482031D01*
X208000142Y-108494447D01*
X207991519Y-108506073D01*
X207981798Y-108516798D01*
X207971073Y-108526519D01*
X207959447Y-108535142D01*
X207947031Y-108542583D01*
X207933946Y-108548772D01*
X207920317Y-108553649D01*
X207906276Y-108557166D01*
X207891958Y-108559290D01*
X207877500Y-108560000D01*
X207582500Y-108560000D01*
X207568042Y-108559290D01*
X207553724Y-108557166D01*
X207539683Y-108553649D01*
X207526054Y-108548772D01*
X207512969Y-108542583D01*
X207500553Y-108535142D01*
X207488927Y-108526519D01*
X207478202Y-108516798D01*
X207468481Y-108506073D01*
X207459858Y-108494447D01*
X207452417Y-108482031D01*
X207446228Y-108468946D01*
X207441351Y-108455317D01*
X207437834Y-108441276D01*
X207435710Y-108426958D01*
X207435000Y-108412500D01*
X207435000Y-108067500D01*
X207435710Y-108053042D01*
X207437834Y-108038724D01*
X207441351Y-108024683D01*
X207446228Y-108011054D01*
X207452417Y-107997969D01*
X207459858Y-107985553D01*
X207468481Y-107973927D01*
X207478202Y-107963202D01*
X207488927Y-107953481D01*
X207500553Y-107944858D01*
X207512969Y-107937417D01*
X207526054Y-107931228D01*
X207539683Y-107926351D01*
X207553724Y-107922834D01*
X207568042Y-107920710D01*
X207582500Y-107920000D01*
X207877500Y-107920000D01*
X207891958Y-107920710D01*
G37*
G36*
X206921958Y-107920710D02*
G01*
X206936276Y-107922834D01*
X206950317Y-107926351D01*
X206963946Y-107931228D01*
X206977031Y-107937417D01*
X206989447Y-107944858D01*
X207001073Y-107953481D01*
X207011798Y-107963202D01*
X207021519Y-107973927D01*
X207030142Y-107985553D01*
X207037583Y-107997969D01*
X207043772Y-108011054D01*
X207048649Y-108024683D01*
X207052166Y-108038724D01*
X207054290Y-108053042D01*
X207055000Y-108067500D01*
X207055000Y-108412500D01*
X207054290Y-108426958D01*
X207052166Y-108441276D01*
X207048649Y-108455317D01*
X207043772Y-108468946D01*
X207037583Y-108482031D01*
X207030142Y-108494447D01*
X207021519Y-108506073D01*
X207011798Y-108516798D01*
X207001073Y-108526519D01*
X206989447Y-108535142D01*
X206977031Y-108542583D01*
X206963946Y-108548772D01*
X206950317Y-108553649D01*
X206936276Y-108557166D01*
X206921958Y-108559290D01*
X206907500Y-108560000D01*
X206612500Y-108560000D01*
X206598042Y-108559290D01*
X206583724Y-108557166D01*
X206569683Y-108553649D01*
X206556054Y-108548772D01*
X206542969Y-108542583D01*
X206530553Y-108535142D01*
X206518927Y-108526519D01*
X206508202Y-108516798D01*
X206498481Y-108506073D01*
X206489858Y-108494447D01*
X206482417Y-108482031D01*
X206476228Y-108468946D01*
X206471351Y-108455317D01*
X206467834Y-108441276D01*
X206465710Y-108426958D01*
X206465000Y-108412500D01*
X206465000Y-108067500D01*
X206465710Y-108053042D01*
X206467834Y-108038724D01*
X206471351Y-108024683D01*
X206476228Y-108011054D01*
X206482417Y-107997969D01*
X206489858Y-107985553D01*
X206498481Y-107973927D01*
X206508202Y-107963202D01*
X206518927Y-107953481D01*
X206530553Y-107944858D01*
X206542969Y-107937417D01*
X206556054Y-107931228D01*
X206569683Y-107926351D01*
X206583724Y-107922834D01*
X206598042Y-107920710D01*
X206612500Y-107920000D01*
X206907500Y-107920000D01*
X206921958Y-107920710D01*
G37*
G36*
X236028958Y-91530710D02*
G01*
X236043276Y-91532834D01*
X236057317Y-91536351D01*
X236070946Y-91541228D01*
X236084031Y-91547417D01*
X236096447Y-91554858D01*
X236108073Y-91563481D01*
X236118798Y-91573202D01*
X236128519Y-91583927D01*
X236137142Y-91595553D01*
X236144583Y-91607969D01*
X236150772Y-91621054D01*
X236155649Y-91634683D01*
X236159166Y-91648724D01*
X236161290Y-91663042D01*
X236162000Y-91677500D01*
X236162000Y-91972500D01*
X236161290Y-91986958D01*
X236159166Y-92001276D01*
X236155649Y-92015317D01*
X236150772Y-92028946D01*
X236144583Y-92042031D01*
X236137142Y-92054447D01*
X236128519Y-92066073D01*
X236118798Y-92076798D01*
X236108073Y-92086519D01*
X236096447Y-92095142D01*
X236084031Y-92102583D01*
X236070946Y-92108772D01*
X236057317Y-92113649D01*
X236043276Y-92117166D01*
X236028958Y-92119290D01*
X236014500Y-92120000D01*
X235669500Y-92120000D01*
X235655042Y-92119290D01*
X235640724Y-92117166D01*
X235626683Y-92113649D01*
X235613054Y-92108772D01*
X235599969Y-92102583D01*
X235587553Y-92095142D01*
X235575927Y-92086519D01*
X235565202Y-92076798D01*
X235555481Y-92066073D01*
X235546858Y-92054447D01*
X235539417Y-92042031D01*
X235533228Y-92028946D01*
X235528351Y-92015317D01*
X235524834Y-92001276D01*
X235522710Y-91986958D01*
X235522000Y-91972500D01*
X235522000Y-91677500D01*
X235522710Y-91663042D01*
X235524834Y-91648724D01*
X235528351Y-91634683D01*
X235533228Y-91621054D01*
X235539417Y-91607969D01*
X235546858Y-91595553D01*
X235555481Y-91583927D01*
X235565202Y-91573202D01*
X235575927Y-91563481D01*
X235587553Y-91554858D01*
X235599969Y-91547417D01*
X235613054Y-91541228D01*
X235626683Y-91536351D01*
X235640724Y-91532834D01*
X235655042Y-91530710D01*
X235669500Y-91530000D01*
X236014500Y-91530000D01*
X236028958Y-91530710D01*
G37*
G36*
X236028958Y-90560710D02*
G01*
X236043276Y-90562834D01*
X236057317Y-90566351D01*
X236070946Y-90571228D01*
X236084031Y-90577417D01*
X236096447Y-90584858D01*
X236108073Y-90593481D01*
X236118798Y-90603202D01*
X236128519Y-90613927D01*
X236137142Y-90625553D01*
X236144583Y-90637969D01*
X236150772Y-90651054D01*
X236155649Y-90664683D01*
X236159166Y-90678724D01*
X236161290Y-90693042D01*
X236162000Y-90707500D01*
X236162000Y-91002500D01*
X236161290Y-91016958D01*
X236159166Y-91031276D01*
X236155649Y-91045317D01*
X236150772Y-91058946D01*
X236144583Y-91072031D01*
X236137142Y-91084447D01*
X236128519Y-91096073D01*
X236118798Y-91106798D01*
X236108073Y-91116519D01*
X236096447Y-91125142D01*
X236084031Y-91132583D01*
X236070946Y-91138772D01*
X236057317Y-91143649D01*
X236043276Y-91147166D01*
X236028958Y-91149290D01*
X236014500Y-91150000D01*
X235669500Y-91150000D01*
X235655042Y-91149290D01*
X235640724Y-91147166D01*
X235626683Y-91143649D01*
X235613054Y-91138772D01*
X235599969Y-91132583D01*
X235587553Y-91125142D01*
X235575927Y-91116519D01*
X235565202Y-91106798D01*
X235555481Y-91096073D01*
X235546858Y-91084447D01*
X235539417Y-91072031D01*
X235533228Y-91058946D01*
X235528351Y-91045317D01*
X235524834Y-91031276D01*
X235522710Y-91016958D01*
X235522000Y-91002500D01*
X235522000Y-90707500D01*
X235522710Y-90693042D01*
X235524834Y-90678724D01*
X235528351Y-90664683D01*
X235533228Y-90651054D01*
X235539417Y-90637969D01*
X235546858Y-90625553D01*
X235555481Y-90613927D01*
X235565202Y-90603202D01*
X235575927Y-90593481D01*
X235587553Y-90584858D01*
X235599969Y-90577417D01*
X235613054Y-90571228D01*
X235626683Y-90566351D01*
X235640724Y-90562834D01*
X235655042Y-90560710D01*
X235669500Y-90560000D01*
X236014500Y-90560000D01*
X236028958Y-90560710D01*
G37*
G36*
X232433691Y-91537053D02*
G01*
X232454926Y-91540203D01*
X232475750Y-91545419D01*
X232495962Y-91552651D01*
X232515368Y-91561830D01*
X232533781Y-91572866D01*
X232551024Y-91585654D01*
X232566930Y-91600070D01*
X232581346Y-91615976D01*
X232594134Y-91633219D01*
X232605170Y-91651632D01*
X232614349Y-91671038D01*
X232621581Y-91691250D01*
X232626797Y-91712074D01*
X232629947Y-91733309D01*
X232631000Y-91754750D01*
X232631000Y-92192250D01*
X232629947Y-92213691D01*
X232626797Y-92234926D01*
X232621581Y-92255750D01*
X232614349Y-92275962D01*
X232605170Y-92295368D01*
X232594134Y-92313781D01*
X232581346Y-92331024D01*
X232566930Y-92346930D01*
X232551024Y-92361346D01*
X232533781Y-92374134D01*
X232515368Y-92385170D01*
X232495962Y-92394349D01*
X232475750Y-92401581D01*
X232454926Y-92406797D01*
X232433691Y-92409947D01*
X232412250Y-92411000D01*
X231899750Y-92411000D01*
X231878309Y-92409947D01*
X231857074Y-92406797D01*
X231836250Y-92401581D01*
X231816038Y-92394349D01*
X231796632Y-92385170D01*
X231778219Y-92374134D01*
X231760976Y-92361346D01*
X231745070Y-92346930D01*
X231730654Y-92331024D01*
X231717866Y-92313781D01*
X231706830Y-92295368D01*
X231697651Y-92275962D01*
X231690419Y-92255750D01*
X231685203Y-92234926D01*
X231682053Y-92213691D01*
X231681000Y-92192250D01*
X231681000Y-91754750D01*
X231682053Y-91733309D01*
X231685203Y-91712074D01*
X231690419Y-91691250D01*
X231697651Y-91671038D01*
X231706830Y-91651632D01*
X231717866Y-91633219D01*
X231730654Y-91615976D01*
X231745070Y-91600070D01*
X231760976Y-91585654D01*
X231778219Y-91572866D01*
X231796632Y-91561830D01*
X231816038Y-91552651D01*
X231836250Y-91545419D01*
X231857074Y-91540203D01*
X231878309Y-91537053D01*
X231899750Y-91536000D01*
X232412250Y-91536000D01*
X232433691Y-91537053D01*
G37*
G36*
X232433691Y-89962053D02*
G01*
X232454926Y-89965203D01*
X232475750Y-89970419D01*
X232495962Y-89977651D01*
X232515368Y-89986830D01*
X232533781Y-89997866D01*
X232551024Y-90010654D01*
X232566930Y-90025070D01*
X232581346Y-90040976D01*
X232594134Y-90058219D01*
X232605170Y-90076632D01*
X232614349Y-90096038D01*
X232621581Y-90116250D01*
X232626797Y-90137074D01*
X232629947Y-90158309D01*
X232631000Y-90179750D01*
X232631000Y-90617250D01*
X232629947Y-90638691D01*
X232626797Y-90659926D01*
X232621581Y-90680750D01*
X232614349Y-90700962D01*
X232605170Y-90720368D01*
X232594134Y-90738781D01*
X232581346Y-90756024D01*
X232566930Y-90771930D01*
X232551024Y-90786346D01*
X232533781Y-90799134D01*
X232515368Y-90810170D01*
X232495962Y-90819349D01*
X232475750Y-90826581D01*
X232454926Y-90831797D01*
X232433691Y-90834947D01*
X232412250Y-90836000D01*
X231899750Y-90836000D01*
X231878309Y-90834947D01*
X231857074Y-90831797D01*
X231836250Y-90826581D01*
X231816038Y-90819349D01*
X231796632Y-90810170D01*
X231778219Y-90799134D01*
X231760976Y-90786346D01*
X231745070Y-90771930D01*
X231730654Y-90756024D01*
X231717866Y-90738781D01*
X231706830Y-90720368D01*
X231697651Y-90700962D01*
X231690419Y-90680750D01*
X231685203Y-90659926D01*
X231682053Y-90638691D01*
X231681000Y-90617250D01*
X231681000Y-90179750D01*
X231682053Y-90158309D01*
X231685203Y-90137074D01*
X231690419Y-90116250D01*
X231697651Y-90096038D01*
X231706830Y-90076632D01*
X231717866Y-90058219D01*
X231730654Y-90040976D01*
X231745070Y-90025070D01*
X231760976Y-90010654D01*
X231778219Y-89997866D01*
X231796632Y-89986830D01*
X231816038Y-89977651D01*
X231836250Y-89970419D01*
X231857074Y-89965203D01*
X231878309Y-89962053D01*
X231899750Y-89961000D01*
X232412250Y-89961000D01*
X232433691Y-89962053D01*
G37*
G36*
X195512958Y-56578710D02*
G01*
X195527276Y-56580834D01*
X195541317Y-56584351D01*
X195554946Y-56589228D01*
X195568031Y-56595417D01*
X195580447Y-56602858D01*
X195592073Y-56611481D01*
X195602798Y-56621202D01*
X195612519Y-56631927D01*
X195621142Y-56643553D01*
X195628583Y-56655969D01*
X195634772Y-56669054D01*
X195639649Y-56682683D01*
X195643166Y-56696724D01*
X195645290Y-56711042D01*
X195646000Y-56725500D01*
X195646000Y-57020500D01*
X195645290Y-57034958D01*
X195643166Y-57049276D01*
X195639649Y-57063317D01*
X195634772Y-57076946D01*
X195628583Y-57090031D01*
X195621142Y-57102447D01*
X195612519Y-57114073D01*
X195602798Y-57124798D01*
X195592073Y-57134519D01*
X195580447Y-57143142D01*
X195568031Y-57150583D01*
X195554946Y-57156772D01*
X195541317Y-57161649D01*
X195527276Y-57165166D01*
X195512958Y-57167290D01*
X195498500Y-57168000D01*
X195153500Y-57168000D01*
X195139042Y-57167290D01*
X195124724Y-57165166D01*
X195110683Y-57161649D01*
X195097054Y-57156772D01*
X195083969Y-57150583D01*
X195071553Y-57143142D01*
X195059927Y-57134519D01*
X195049202Y-57124798D01*
X195039481Y-57114073D01*
X195030858Y-57102447D01*
X195023417Y-57090031D01*
X195017228Y-57076946D01*
X195012351Y-57063317D01*
X195008834Y-57049276D01*
X195006710Y-57034958D01*
X195006000Y-57020500D01*
X195006000Y-56725500D01*
X195006710Y-56711042D01*
X195008834Y-56696724D01*
X195012351Y-56682683D01*
X195017228Y-56669054D01*
X195023417Y-56655969D01*
X195030858Y-56643553D01*
X195039481Y-56631927D01*
X195049202Y-56621202D01*
X195059927Y-56611481D01*
X195071553Y-56602858D01*
X195083969Y-56595417D01*
X195097054Y-56589228D01*
X195110683Y-56584351D01*
X195124724Y-56580834D01*
X195139042Y-56578710D01*
X195153500Y-56578000D01*
X195498500Y-56578000D01*
X195512958Y-56578710D01*
G37*
G36*
X195512958Y-55608710D02*
G01*
X195527276Y-55610834D01*
X195541317Y-55614351D01*
X195554946Y-55619228D01*
X195568031Y-55625417D01*
X195580447Y-55632858D01*
X195592073Y-55641481D01*
X195602798Y-55651202D01*
X195612519Y-55661927D01*
X195621142Y-55673553D01*
X195628583Y-55685969D01*
X195634772Y-55699054D01*
X195639649Y-55712683D01*
X195643166Y-55726724D01*
X195645290Y-55741042D01*
X195646000Y-55755500D01*
X195646000Y-56050500D01*
X195645290Y-56064958D01*
X195643166Y-56079276D01*
X195639649Y-56093317D01*
X195634772Y-56106946D01*
X195628583Y-56120031D01*
X195621142Y-56132447D01*
X195612519Y-56144073D01*
X195602798Y-56154798D01*
X195592073Y-56164519D01*
X195580447Y-56173142D01*
X195568031Y-56180583D01*
X195554946Y-56186772D01*
X195541317Y-56191649D01*
X195527276Y-56195166D01*
X195512958Y-56197290D01*
X195498500Y-56198000D01*
X195153500Y-56198000D01*
X195139042Y-56197290D01*
X195124724Y-56195166D01*
X195110683Y-56191649D01*
X195097054Y-56186772D01*
X195083969Y-56180583D01*
X195071553Y-56173142D01*
X195059927Y-56164519D01*
X195049202Y-56154798D01*
X195039481Y-56144073D01*
X195030858Y-56132447D01*
X195023417Y-56120031D01*
X195017228Y-56106946D01*
X195012351Y-56093317D01*
X195008834Y-56079276D01*
X195006710Y-56064958D01*
X195006000Y-56050500D01*
X195006000Y-55755500D01*
X195006710Y-55741042D01*
X195008834Y-55726724D01*
X195012351Y-55712683D01*
X195017228Y-55699054D01*
X195023417Y-55685969D01*
X195030858Y-55673553D01*
X195039481Y-55661927D01*
X195049202Y-55651202D01*
X195059927Y-55641481D01*
X195071553Y-55632858D01*
X195083969Y-55625417D01*
X195097054Y-55619228D01*
X195110683Y-55614351D01*
X195124724Y-55610834D01*
X195139042Y-55608710D01*
X195153500Y-55608000D01*
X195498500Y-55608000D01*
X195512958Y-55608710D01*
G37*
G36*
X237998692Y-102904053D02*
G01*
X238019927Y-102907203D01*
X238040751Y-102912419D01*
X238060963Y-102919651D01*
X238080369Y-102928830D01*
X238098782Y-102939866D01*
X238116025Y-102952654D01*
X238131931Y-102967070D01*
X238146347Y-102982976D01*
X238159135Y-103000219D01*
X238170171Y-103018632D01*
X238179350Y-103038038D01*
X238186582Y-103058250D01*
X238191798Y-103079074D01*
X238194948Y-103100309D01*
X238196001Y-103121750D01*
X238196001Y-103634250D01*
X238194948Y-103655691D01*
X238191798Y-103676926D01*
X238186582Y-103697750D01*
X238179350Y-103717962D01*
X238170171Y-103737368D01*
X238159135Y-103755781D01*
X238146347Y-103773024D01*
X238131931Y-103788930D01*
X238116025Y-103803346D01*
X238098782Y-103816134D01*
X238080369Y-103827170D01*
X238060963Y-103836349D01*
X238040751Y-103843581D01*
X238019927Y-103848797D01*
X237998692Y-103851947D01*
X237977251Y-103853000D01*
X237539751Y-103853000D01*
X237518310Y-103851947D01*
X237497075Y-103848797D01*
X237476251Y-103843581D01*
X237456039Y-103836349D01*
X237436633Y-103827170D01*
X237418220Y-103816134D01*
X237400977Y-103803346D01*
X237385071Y-103788930D01*
X237370655Y-103773024D01*
X237357867Y-103755781D01*
X237346831Y-103737368D01*
X237337652Y-103717962D01*
X237330420Y-103697750D01*
X237325204Y-103676926D01*
X237322054Y-103655691D01*
X237321001Y-103634250D01*
X237321001Y-103121750D01*
X237322054Y-103100309D01*
X237325204Y-103079074D01*
X237330420Y-103058250D01*
X237337652Y-103038038D01*
X237346831Y-103018632D01*
X237357867Y-103000219D01*
X237370655Y-102982976D01*
X237385071Y-102967070D01*
X237400977Y-102952654D01*
X237418220Y-102939866D01*
X237436633Y-102928830D01*
X237456039Y-102919651D01*
X237476251Y-102912419D01*
X237497075Y-102907203D01*
X237518310Y-102904053D01*
X237539751Y-102903000D01*
X237977251Y-102903000D01*
X237998692Y-102904053D01*
G37*
G36*
X236423692Y-102904053D02*
G01*
X236444927Y-102907203D01*
X236465751Y-102912419D01*
X236485963Y-102919651D01*
X236505369Y-102928830D01*
X236523782Y-102939866D01*
X236541025Y-102952654D01*
X236556931Y-102967070D01*
X236571347Y-102982976D01*
X236584135Y-103000219D01*
X236595171Y-103018632D01*
X236604350Y-103038038D01*
X236611582Y-103058250D01*
X236616798Y-103079074D01*
X236619948Y-103100309D01*
X236621001Y-103121750D01*
X236621001Y-103634250D01*
X236619948Y-103655691D01*
X236616798Y-103676926D01*
X236611582Y-103697750D01*
X236604350Y-103717962D01*
X236595171Y-103737368D01*
X236584135Y-103755781D01*
X236571347Y-103773024D01*
X236556931Y-103788930D01*
X236541025Y-103803346D01*
X236523782Y-103816134D01*
X236505369Y-103827170D01*
X236485963Y-103836349D01*
X236465751Y-103843581D01*
X236444927Y-103848797D01*
X236423692Y-103851947D01*
X236402251Y-103853000D01*
X235964751Y-103853000D01*
X235943310Y-103851947D01*
X235922075Y-103848797D01*
X235901251Y-103843581D01*
X235881039Y-103836349D01*
X235861633Y-103827170D01*
X235843220Y-103816134D01*
X235825977Y-103803346D01*
X235810071Y-103788930D01*
X235795655Y-103773024D01*
X235782867Y-103755781D01*
X235771831Y-103737368D01*
X235762652Y-103717962D01*
X235755420Y-103697750D01*
X235750204Y-103676926D01*
X235747054Y-103655691D01*
X235746001Y-103634250D01*
X235746001Y-103121750D01*
X235747054Y-103100309D01*
X235750204Y-103079074D01*
X235755420Y-103058250D01*
X235762652Y-103038038D01*
X235771831Y-103018632D01*
X235782867Y-103000219D01*
X235795655Y-102982976D01*
X235810071Y-102967070D01*
X235825977Y-102952654D01*
X235843220Y-102939866D01*
X235861633Y-102928830D01*
X235881039Y-102919651D01*
X235901251Y-102912419D01*
X235922075Y-102907203D01*
X235943310Y-102904053D01*
X235964751Y-102903000D01*
X236402251Y-102903000D01*
X236423692Y-102904053D01*
G37*
G36*
X238009691Y-101380053D02*
G01*
X238030926Y-101383203D01*
X238051750Y-101388419D01*
X238071962Y-101395651D01*
X238091368Y-101404830D01*
X238109781Y-101415866D01*
X238127024Y-101428654D01*
X238142930Y-101443070D01*
X238157346Y-101458976D01*
X238170134Y-101476219D01*
X238181170Y-101494632D01*
X238190349Y-101514038D01*
X238197581Y-101534250D01*
X238202797Y-101555074D01*
X238205947Y-101576309D01*
X238207000Y-101597750D01*
X238207000Y-102110250D01*
X238205947Y-102131691D01*
X238202797Y-102152926D01*
X238197581Y-102173750D01*
X238190349Y-102193962D01*
X238181170Y-102213368D01*
X238170134Y-102231781D01*
X238157346Y-102249024D01*
X238142930Y-102264930D01*
X238127024Y-102279346D01*
X238109781Y-102292134D01*
X238091368Y-102303170D01*
X238071962Y-102312349D01*
X238051750Y-102319581D01*
X238030926Y-102324797D01*
X238009691Y-102327947D01*
X237988250Y-102329000D01*
X237550750Y-102329000D01*
X237529309Y-102327947D01*
X237508074Y-102324797D01*
X237487250Y-102319581D01*
X237467038Y-102312349D01*
X237447632Y-102303170D01*
X237429219Y-102292134D01*
X237411976Y-102279346D01*
X237396070Y-102264930D01*
X237381654Y-102249024D01*
X237368866Y-102231781D01*
X237357830Y-102213368D01*
X237348651Y-102193962D01*
X237341419Y-102173750D01*
X237336203Y-102152926D01*
X237333053Y-102131691D01*
X237332000Y-102110250D01*
X237332000Y-101597750D01*
X237333053Y-101576309D01*
X237336203Y-101555074D01*
X237341419Y-101534250D01*
X237348651Y-101514038D01*
X237357830Y-101494632D01*
X237368866Y-101476219D01*
X237381654Y-101458976D01*
X237396070Y-101443070D01*
X237411976Y-101428654D01*
X237429219Y-101415866D01*
X237447632Y-101404830D01*
X237467038Y-101395651D01*
X237487250Y-101388419D01*
X237508074Y-101383203D01*
X237529309Y-101380053D01*
X237550750Y-101379000D01*
X237988250Y-101379000D01*
X238009691Y-101380053D01*
G37*
G36*
X236434691Y-101380053D02*
G01*
X236455926Y-101383203D01*
X236476750Y-101388419D01*
X236496962Y-101395651D01*
X236516368Y-101404830D01*
X236534781Y-101415866D01*
X236552024Y-101428654D01*
X236567930Y-101443070D01*
X236582346Y-101458976D01*
X236595134Y-101476219D01*
X236606170Y-101494632D01*
X236615349Y-101514038D01*
X236622581Y-101534250D01*
X236627797Y-101555074D01*
X236630947Y-101576309D01*
X236632000Y-101597750D01*
X236632000Y-102110250D01*
X236630947Y-102131691D01*
X236627797Y-102152926D01*
X236622581Y-102173750D01*
X236615349Y-102193962D01*
X236606170Y-102213368D01*
X236595134Y-102231781D01*
X236582346Y-102249024D01*
X236567930Y-102264930D01*
X236552024Y-102279346D01*
X236534781Y-102292134D01*
X236516368Y-102303170D01*
X236496962Y-102312349D01*
X236476750Y-102319581D01*
X236455926Y-102324797D01*
X236434691Y-102327947D01*
X236413250Y-102329000D01*
X235975750Y-102329000D01*
X235954309Y-102327947D01*
X235933074Y-102324797D01*
X235912250Y-102319581D01*
X235892038Y-102312349D01*
X235872632Y-102303170D01*
X235854219Y-102292134D01*
X235836976Y-102279346D01*
X235821070Y-102264930D01*
X235806654Y-102249024D01*
X235793866Y-102231781D01*
X235782830Y-102213368D01*
X235773651Y-102193962D01*
X235766419Y-102173750D01*
X235761203Y-102152926D01*
X235758053Y-102131691D01*
X235757000Y-102110250D01*
X235757000Y-101597750D01*
X235758053Y-101576309D01*
X235761203Y-101555074D01*
X235766419Y-101534250D01*
X235773651Y-101514038D01*
X235782830Y-101494632D01*
X235793866Y-101476219D01*
X235806654Y-101458976D01*
X235821070Y-101443070D01*
X235836976Y-101428654D01*
X235854219Y-101415866D01*
X235872632Y-101404830D01*
X235892038Y-101395651D01*
X235912250Y-101388419D01*
X235933074Y-101383203D01*
X235954309Y-101380053D01*
X235975750Y-101379000D01*
X236413250Y-101379000D01*
X236434691Y-101380053D01*
G37*
G36*
X241994958Y-106616710D02*
G01*
X242009276Y-106618834D01*
X242023317Y-106622351D01*
X242036946Y-106627228D01*
X242050031Y-106633417D01*
X242062447Y-106640858D01*
X242074073Y-106649481D01*
X242084798Y-106659202D01*
X242094519Y-106669927D01*
X242103142Y-106681553D01*
X242110583Y-106693969D01*
X242116772Y-106707054D01*
X242121649Y-106720683D01*
X242125166Y-106734724D01*
X242127290Y-106749042D01*
X242128000Y-106763500D01*
X242128000Y-107058500D01*
X242127290Y-107072958D01*
X242125166Y-107087276D01*
X242121649Y-107101317D01*
X242116772Y-107114946D01*
X242110583Y-107128031D01*
X242103142Y-107140447D01*
X242094519Y-107152073D01*
X242084798Y-107162798D01*
X242074073Y-107172519D01*
X242062447Y-107181142D01*
X242050031Y-107188583D01*
X242036946Y-107194772D01*
X242023317Y-107199649D01*
X242009276Y-107203166D01*
X241994958Y-107205290D01*
X241980500Y-107206000D01*
X241635500Y-107206000D01*
X241621042Y-107205290D01*
X241606724Y-107203166D01*
X241592683Y-107199649D01*
X241579054Y-107194772D01*
X241565969Y-107188583D01*
X241553553Y-107181142D01*
X241541927Y-107172519D01*
X241531202Y-107162798D01*
X241521481Y-107152073D01*
X241512858Y-107140447D01*
X241505417Y-107128031D01*
X241499228Y-107114946D01*
X241494351Y-107101317D01*
X241490834Y-107087276D01*
X241488710Y-107072958D01*
X241488000Y-107058500D01*
X241488000Y-106763500D01*
X241488710Y-106749042D01*
X241490834Y-106734724D01*
X241494351Y-106720683D01*
X241499228Y-106707054D01*
X241505417Y-106693969D01*
X241512858Y-106681553D01*
X241521481Y-106669927D01*
X241531202Y-106659202D01*
X241541927Y-106649481D01*
X241553553Y-106640858D01*
X241565969Y-106633417D01*
X241579054Y-106627228D01*
X241592683Y-106622351D01*
X241606724Y-106618834D01*
X241621042Y-106616710D01*
X241635500Y-106616000D01*
X241980500Y-106616000D01*
X241994958Y-106616710D01*
G37*
G36*
X241994958Y-105646710D02*
G01*
X242009276Y-105648834D01*
X242023317Y-105652351D01*
X242036946Y-105657228D01*
X242050031Y-105663417D01*
X242062447Y-105670858D01*
X242074073Y-105679481D01*
X242084798Y-105689202D01*
X242094519Y-105699927D01*
X242103142Y-105711553D01*
X242110583Y-105723969D01*
X242116772Y-105737054D01*
X242121649Y-105750683D01*
X242125166Y-105764724D01*
X242127290Y-105779042D01*
X242128000Y-105793500D01*
X242128000Y-106088500D01*
X242127290Y-106102958D01*
X242125166Y-106117276D01*
X242121649Y-106131317D01*
X242116772Y-106144946D01*
X242110583Y-106158031D01*
X242103142Y-106170447D01*
X242094519Y-106182073D01*
X242084798Y-106192798D01*
X242074073Y-106202519D01*
X242062447Y-106211142D01*
X242050031Y-106218583D01*
X242036946Y-106224772D01*
X242023317Y-106229649D01*
X242009276Y-106233166D01*
X241994958Y-106235290D01*
X241980500Y-106236000D01*
X241635500Y-106236000D01*
X241621042Y-106235290D01*
X241606724Y-106233166D01*
X241592683Y-106229649D01*
X241579054Y-106224772D01*
X241565969Y-106218583D01*
X241553553Y-106211142D01*
X241541927Y-106202519D01*
X241531202Y-106192798D01*
X241521481Y-106182073D01*
X241512858Y-106170447D01*
X241505417Y-106158031D01*
X241499228Y-106144946D01*
X241494351Y-106131317D01*
X241490834Y-106117276D01*
X241488710Y-106102958D01*
X241488000Y-106088500D01*
X241488000Y-105793500D01*
X241488710Y-105779042D01*
X241490834Y-105764724D01*
X241494351Y-105750683D01*
X241499228Y-105737054D01*
X241505417Y-105723969D01*
X241512858Y-105711553D01*
X241521481Y-105699927D01*
X241531202Y-105689202D01*
X241541927Y-105679481D01*
X241553553Y-105670858D01*
X241565969Y-105663417D01*
X241579054Y-105657228D01*
X241592683Y-105652351D01*
X241606724Y-105648834D01*
X241621042Y-105646710D01*
X241635500Y-105646000D01*
X241980500Y-105646000D01*
X241994958Y-105646710D01*
G37*
G36*
X240815691Y-107031053D02*
G01*
X240836926Y-107034203D01*
X240857750Y-107039419D01*
X240877962Y-107046651D01*
X240897368Y-107055830D01*
X240915781Y-107066866D01*
X240933024Y-107079654D01*
X240948930Y-107094070D01*
X240963346Y-107109976D01*
X240976134Y-107127219D01*
X240987170Y-107145632D01*
X240996349Y-107165038D01*
X241003581Y-107185250D01*
X241008797Y-107206074D01*
X241011947Y-107227309D01*
X241013000Y-107248750D01*
X241013000Y-107686250D01*
X241011947Y-107707691D01*
X241008797Y-107728926D01*
X241003581Y-107749750D01*
X240996349Y-107769962D01*
X240987170Y-107789368D01*
X240976134Y-107807781D01*
X240963346Y-107825024D01*
X240948930Y-107840930D01*
X240933024Y-107855346D01*
X240915781Y-107868134D01*
X240897368Y-107879170D01*
X240877962Y-107888349D01*
X240857750Y-107895581D01*
X240836926Y-107900797D01*
X240815691Y-107903947D01*
X240794250Y-107905000D01*
X240281750Y-107905000D01*
X240260309Y-107903947D01*
X240239074Y-107900797D01*
X240218250Y-107895581D01*
X240198038Y-107888349D01*
X240178632Y-107879170D01*
X240160219Y-107868134D01*
X240142976Y-107855346D01*
X240127070Y-107840930D01*
X240112654Y-107825024D01*
X240099866Y-107807781D01*
X240088830Y-107789368D01*
X240079651Y-107769962D01*
X240072419Y-107749750D01*
X240067203Y-107728926D01*
X240064053Y-107707691D01*
X240063000Y-107686250D01*
X240063000Y-107248750D01*
X240064053Y-107227309D01*
X240067203Y-107206074D01*
X240072419Y-107185250D01*
X240079651Y-107165038D01*
X240088830Y-107145632D01*
X240099866Y-107127219D01*
X240112654Y-107109976D01*
X240127070Y-107094070D01*
X240142976Y-107079654D01*
X240160219Y-107066866D01*
X240178632Y-107055830D01*
X240198038Y-107046651D01*
X240218250Y-107039419D01*
X240239074Y-107034203D01*
X240260309Y-107031053D01*
X240281750Y-107030000D01*
X240794250Y-107030000D01*
X240815691Y-107031053D01*
G37*
G36*
X240815691Y-105456053D02*
G01*
X240836926Y-105459203D01*
X240857750Y-105464419D01*
X240877962Y-105471651D01*
X240897368Y-105480830D01*
X240915781Y-105491866D01*
X240933024Y-105504654D01*
X240948930Y-105519070D01*
X240963346Y-105534976D01*
X240976134Y-105552219D01*
X240987170Y-105570632D01*
X240996349Y-105590038D01*
X241003581Y-105610250D01*
X241008797Y-105631074D01*
X241011947Y-105652309D01*
X241013000Y-105673750D01*
X241013000Y-106111250D01*
X241011947Y-106132691D01*
X241008797Y-106153926D01*
X241003581Y-106174750D01*
X240996349Y-106194962D01*
X240987170Y-106214368D01*
X240976134Y-106232781D01*
X240963346Y-106250024D01*
X240948930Y-106265930D01*
X240933024Y-106280346D01*
X240915781Y-106293134D01*
X240897368Y-106304170D01*
X240877962Y-106313349D01*
X240857750Y-106320581D01*
X240836926Y-106325797D01*
X240815691Y-106328947D01*
X240794250Y-106330000D01*
X240281750Y-106330000D01*
X240260309Y-106328947D01*
X240239074Y-106325797D01*
X240218250Y-106320581D01*
X240198038Y-106313349D01*
X240178632Y-106304170D01*
X240160219Y-106293134D01*
X240142976Y-106280346D01*
X240127070Y-106265930D01*
X240112654Y-106250024D01*
X240099866Y-106232781D01*
X240088830Y-106214368D01*
X240079651Y-106194962D01*
X240072419Y-106174750D01*
X240067203Y-106153926D01*
X240064053Y-106132691D01*
X240063000Y-106111250D01*
X240063000Y-105673750D01*
X240064053Y-105652309D01*
X240067203Y-105631074D01*
X240072419Y-105610250D01*
X240079651Y-105590038D01*
X240088830Y-105570632D01*
X240099866Y-105552219D01*
X240112654Y-105534976D01*
X240127070Y-105519070D01*
X240142976Y-105504654D01*
X240160219Y-105491866D01*
X240178632Y-105480830D01*
X240198038Y-105471651D01*
X240218250Y-105464419D01*
X240239074Y-105459203D01*
X240260309Y-105456053D01*
X240281750Y-105455000D01*
X240794250Y-105455000D01*
X240815691Y-105456053D01*
G37*
G36*
X223706958Y-96502710D02*
G01*
X223721276Y-96504834D01*
X223735317Y-96508351D01*
X223748946Y-96513228D01*
X223762031Y-96519417D01*
X223774447Y-96526858D01*
X223786073Y-96535481D01*
X223796798Y-96545202D01*
X223806519Y-96555927D01*
X223815142Y-96567553D01*
X223822583Y-96579969D01*
X223828772Y-96593054D01*
X223833649Y-96606683D01*
X223837166Y-96620724D01*
X223839290Y-96635042D01*
X223840000Y-96649500D01*
X223840000Y-96944500D01*
X223839290Y-96958958D01*
X223837166Y-96973276D01*
X223833649Y-96987317D01*
X223828772Y-97000946D01*
X223822583Y-97014031D01*
X223815142Y-97026447D01*
X223806519Y-97038073D01*
X223796798Y-97048798D01*
X223786073Y-97058519D01*
X223774447Y-97067142D01*
X223762031Y-97074583D01*
X223748946Y-97080772D01*
X223735317Y-97085649D01*
X223721276Y-97089166D01*
X223706958Y-97091290D01*
X223692500Y-97092000D01*
X223347500Y-97092000D01*
X223333042Y-97091290D01*
X223318724Y-97089166D01*
X223304683Y-97085649D01*
X223291054Y-97080772D01*
X223277969Y-97074583D01*
X223265553Y-97067142D01*
X223253927Y-97058519D01*
X223243202Y-97048798D01*
X223233481Y-97038073D01*
X223224858Y-97026447D01*
X223217417Y-97014031D01*
X223211228Y-97000946D01*
X223206351Y-96987317D01*
X223202834Y-96973276D01*
X223200710Y-96958958D01*
X223200000Y-96944500D01*
X223200000Y-96649500D01*
X223200710Y-96635042D01*
X223202834Y-96620724D01*
X223206351Y-96606683D01*
X223211228Y-96593054D01*
X223217417Y-96579969D01*
X223224858Y-96567553D01*
X223233481Y-96555927D01*
X223243202Y-96545202D01*
X223253927Y-96535481D01*
X223265553Y-96526858D01*
X223277969Y-96519417D01*
X223291054Y-96513228D01*
X223304683Y-96508351D01*
X223318724Y-96504834D01*
X223333042Y-96502710D01*
X223347500Y-96502000D01*
X223692500Y-96502000D01*
X223706958Y-96502710D01*
G37*
G36*
X223706958Y-97472710D02*
G01*
X223721276Y-97474834D01*
X223735317Y-97478351D01*
X223748946Y-97483228D01*
X223762031Y-97489417D01*
X223774447Y-97496858D01*
X223786073Y-97505481D01*
X223796798Y-97515202D01*
X223806519Y-97525927D01*
X223815142Y-97537553D01*
X223822583Y-97549969D01*
X223828772Y-97563054D01*
X223833649Y-97576683D01*
X223837166Y-97590724D01*
X223839290Y-97605042D01*
X223840000Y-97619500D01*
X223840000Y-97914500D01*
X223839290Y-97928958D01*
X223837166Y-97943276D01*
X223833649Y-97957317D01*
X223828772Y-97970946D01*
X223822583Y-97984031D01*
X223815142Y-97996447D01*
X223806519Y-98008073D01*
X223796798Y-98018798D01*
X223786073Y-98028519D01*
X223774447Y-98037142D01*
X223762031Y-98044583D01*
X223748946Y-98050772D01*
X223735317Y-98055649D01*
X223721276Y-98059166D01*
X223706958Y-98061290D01*
X223692500Y-98062000D01*
X223347500Y-98062000D01*
X223333042Y-98061290D01*
X223318724Y-98059166D01*
X223304683Y-98055649D01*
X223291054Y-98050772D01*
X223277969Y-98044583D01*
X223265553Y-98037142D01*
X223253927Y-98028519D01*
X223243202Y-98018798D01*
X223233481Y-98008073D01*
X223224858Y-97996447D01*
X223217417Y-97984031D01*
X223211228Y-97970946D01*
X223206351Y-97957317D01*
X223202834Y-97943276D01*
X223200710Y-97928958D01*
X223200000Y-97914500D01*
X223200000Y-97619500D01*
X223200710Y-97605042D01*
X223202834Y-97590724D01*
X223206351Y-97576683D01*
X223211228Y-97563054D01*
X223217417Y-97549969D01*
X223224858Y-97537553D01*
X223233481Y-97525927D01*
X223243202Y-97515202D01*
X223253927Y-97505481D01*
X223265553Y-97496858D01*
X223277969Y-97489417D01*
X223291054Y-97483228D01*
X223304683Y-97478351D01*
X223318724Y-97474834D01*
X223333042Y-97472710D01*
X223347500Y-97472000D01*
X223692500Y-97472000D01*
X223706958Y-97472710D01*
G37*
G36*
X221372958Y-103312710D02*
G01*
X221387276Y-103314834D01*
X221401317Y-103318351D01*
X221414946Y-103323228D01*
X221428031Y-103329417D01*
X221440447Y-103336858D01*
X221452073Y-103345481D01*
X221462798Y-103355202D01*
X221472519Y-103365927D01*
X221481142Y-103377553D01*
X221488583Y-103389969D01*
X221494772Y-103403054D01*
X221499649Y-103416683D01*
X221503166Y-103430724D01*
X221505290Y-103445042D01*
X221506000Y-103459500D01*
X221506000Y-103804500D01*
X221505290Y-103818958D01*
X221503166Y-103833276D01*
X221499649Y-103847317D01*
X221494772Y-103860946D01*
X221488583Y-103874031D01*
X221481142Y-103886447D01*
X221472519Y-103898073D01*
X221462798Y-103908798D01*
X221452073Y-103918519D01*
X221440447Y-103927142D01*
X221428031Y-103934583D01*
X221414946Y-103940772D01*
X221401317Y-103945649D01*
X221387276Y-103949166D01*
X221372958Y-103951290D01*
X221358500Y-103952000D01*
X221063500Y-103952000D01*
X221049042Y-103951290D01*
X221034724Y-103949166D01*
X221020683Y-103945649D01*
X221007054Y-103940772D01*
X220993969Y-103934583D01*
X220981553Y-103927142D01*
X220969927Y-103918519D01*
X220959202Y-103908798D01*
X220949481Y-103898073D01*
X220940858Y-103886447D01*
X220933417Y-103874031D01*
X220927228Y-103860946D01*
X220922351Y-103847317D01*
X220918834Y-103833276D01*
X220916710Y-103818958D01*
X220916000Y-103804500D01*
X220916000Y-103459500D01*
X220916710Y-103445042D01*
X220918834Y-103430724D01*
X220922351Y-103416683D01*
X220927228Y-103403054D01*
X220933417Y-103389969D01*
X220940858Y-103377553D01*
X220949481Y-103365927D01*
X220959202Y-103355202D01*
X220969927Y-103345481D01*
X220981553Y-103336858D01*
X220993969Y-103329417D01*
X221007054Y-103323228D01*
X221020683Y-103318351D01*
X221034724Y-103314834D01*
X221049042Y-103312710D01*
X221063500Y-103312000D01*
X221358500Y-103312000D01*
X221372958Y-103312710D01*
G37*
G36*
X220402958Y-103312710D02*
G01*
X220417276Y-103314834D01*
X220431317Y-103318351D01*
X220444946Y-103323228D01*
X220458031Y-103329417D01*
X220470447Y-103336858D01*
X220482073Y-103345481D01*
X220492798Y-103355202D01*
X220502519Y-103365927D01*
X220511142Y-103377553D01*
X220518583Y-103389969D01*
X220524772Y-103403054D01*
X220529649Y-103416683D01*
X220533166Y-103430724D01*
X220535290Y-103445042D01*
X220536000Y-103459500D01*
X220536000Y-103804500D01*
X220535290Y-103818958D01*
X220533166Y-103833276D01*
X220529649Y-103847317D01*
X220524772Y-103860946D01*
X220518583Y-103874031D01*
X220511142Y-103886447D01*
X220502519Y-103898073D01*
X220492798Y-103908798D01*
X220482073Y-103918519D01*
X220470447Y-103927142D01*
X220458031Y-103934583D01*
X220444946Y-103940772D01*
X220431317Y-103945649D01*
X220417276Y-103949166D01*
X220402958Y-103951290D01*
X220388500Y-103952000D01*
X220093500Y-103952000D01*
X220079042Y-103951290D01*
X220064724Y-103949166D01*
X220050683Y-103945649D01*
X220037054Y-103940772D01*
X220023969Y-103934583D01*
X220011553Y-103927142D01*
X219999927Y-103918519D01*
X219989202Y-103908798D01*
X219979481Y-103898073D01*
X219970858Y-103886447D01*
X219963417Y-103874031D01*
X219957228Y-103860946D01*
X219952351Y-103847317D01*
X219948834Y-103833276D01*
X219946710Y-103818958D01*
X219946000Y-103804500D01*
X219946000Y-103459500D01*
X219946710Y-103445042D01*
X219948834Y-103430724D01*
X219952351Y-103416683D01*
X219957228Y-103403054D01*
X219963417Y-103389969D01*
X219970858Y-103377553D01*
X219979481Y-103365927D01*
X219989202Y-103355202D01*
X219999927Y-103345481D01*
X220011553Y-103336858D01*
X220023969Y-103329417D01*
X220037054Y-103323228D01*
X220050683Y-103318351D01*
X220064724Y-103314834D01*
X220079042Y-103312710D01*
X220093500Y-103312000D01*
X220388500Y-103312000D01*
X220402958Y-103312710D01*
G37*
G36*
X215070958Y-104630710D02*
G01*
X215085276Y-104632834D01*
X215099317Y-104636351D01*
X215112946Y-104641228D01*
X215126031Y-104647417D01*
X215138447Y-104654858D01*
X215150073Y-104663481D01*
X215160798Y-104673202D01*
X215170519Y-104683927D01*
X215179142Y-104695553D01*
X215186583Y-104707969D01*
X215192772Y-104721054D01*
X215197649Y-104734683D01*
X215201166Y-104748724D01*
X215203290Y-104763042D01*
X215204000Y-104777500D01*
X215204000Y-105072500D01*
X215203290Y-105086958D01*
X215201166Y-105101276D01*
X215197649Y-105115317D01*
X215192772Y-105128946D01*
X215186583Y-105142031D01*
X215179142Y-105154447D01*
X215170519Y-105166073D01*
X215160798Y-105176798D01*
X215150073Y-105186519D01*
X215138447Y-105195142D01*
X215126031Y-105202583D01*
X215112946Y-105208772D01*
X215099317Y-105213649D01*
X215085276Y-105217166D01*
X215070958Y-105219290D01*
X215056500Y-105220000D01*
X214711500Y-105220000D01*
X214697042Y-105219290D01*
X214682724Y-105217166D01*
X214668683Y-105213649D01*
X214655054Y-105208772D01*
X214641969Y-105202583D01*
X214629553Y-105195142D01*
X214617927Y-105186519D01*
X214607202Y-105176798D01*
X214597481Y-105166073D01*
X214588858Y-105154447D01*
X214581417Y-105142031D01*
X214575228Y-105128946D01*
X214570351Y-105115317D01*
X214566834Y-105101276D01*
X214564710Y-105086958D01*
X214564000Y-105072500D01*
X214564000Y-104777500D01*
X214564710Y-104763042D01*
X214566834Y-104748724D01*
X214570351Y-104734683D01*
X214575228Y-104721054D01*
X214581417Y-104707969D01*
X214588858Y-104695553D01*
X214597481Y-104683927D01*
X214607202Y-104673202D01*
X214617927Y-104663481D01*
X214629553Y-104654858D01*
X214641969Y-104647417D01*
X214655054Y-104641228D01*
X214668683Y-104636351D01*
X214682724Y-104632834D01*
X214697042Y-104630710D01*
X214711500Y-104630000D01*
X215056500Y-104630000D01*
X215070958Y-104630710D01*
G37*
G36*
X215070958Y-105600710D02*
G01*
X215085276Y-105602834D01*
X215099317Y-105606351D01*
X215112946Y-105611228D01*
X215126031Y-105617417D01*
X215138447Y-105624858D01*
X215150073Y-105633481D01*
X215160798Y-105643202D01*
X215170519Y-105653927D01*
X215179142Y-105665553D01*
X215186583Y-105677969D01*
X215192772Y-105691054D01*
X215197649Y-105704683D01*
X215201166Y-105718724D01*
X215203290Y-105733042D01*
X215204000Y-105747500D01*
X215204000Y-106042500D01*
X215203290Y-106056958D01*
X215201166Y-106071276D01*
X215197649Y-106085317D01*
X215192772Y-106098946D01*
X215186583Y-106112031D01*
X215179142Y-106124447D01*
X215170519Y-106136073D01*
X215160798Y-106146798D01*
X215150073Y-106156519D01*
X215138447Y-106165142D01*
X215126031Y-106172583D01*
X215112946Y-106178772D01*
X215099317Y-106183649D01*
X215085276Y-106187166D01*
X215070958Y-106189290D01*
X215056500Y-106190000D01*
X214711500Y-106190000D01*
X214697042Y-106189290D01*
X214682724Y-106187166D01*
X214668683Y-106183649D01*
X214655054Y-106178772D01*
X214641969Y-106172583D01*
X214629553Y-106165142D01*
X214617927Y-106156519D01*
X214607202Y-106146798D01*
X214597481Y-106136073D01*
X214588858Y-106124447D01*
X214581417Y-106112031D01*
X214575228Y-106098946D01*
X214570351Y-106085317D01*
X214566834Y-106071276D01*
X214564710Y-106056958D01*
X214564000Y-106042500D01*
X214564000Y-105747500D01*
X214564710Y-105733042D01*
X214566834Y-105718724D01*
X214570351Y-105704683D01*
X214575228Y-105691054D01*
X214581417Y-105677969D01*
X214588858Y-105665553D01*
X214597481Y-105653927D01*
X214607202Y-105643202D01*
X214617927Y-105633481D01*
X214629553Y-105624858D01*
X214641969Y-105617417D01*
X214655054Y-105611228D01*
X214668683Y-105606351D01*
X214682724Y-105602834D01*
X214697042Y-105600710D01*
X214711500Y-105600000D01*
X215056500Y-105600000D01*
X215070958Y-105600710D01*
G37*
G36*
X208974958Y-92438710D02*
G01*
X208989276Y-92440834D01*
X209003317Y-92444351D01*
X209016946Y-92449228D01*
X209030031Y-92455417D01*
X209042447Y-92462858D01*
X209054073Y-92471481D01*
X209064798Y-92481202D01*
X209074519Y-92491927D01*
X209083142Y-92503553D01*
X209090583Y-92515969D01*
X209096772Y-92529054D01*
X209101649Y-92542683D01*
X209105166Y-92556724D01*
X209107290Y-92571042D01*
X209108000Y-92585500D01*
X209108000Y-92880500D01*
X209107290Y-92894958D01*
X209105166Y-92909276D01*
X209101649Y-92923317D01*
X209096772Y-92936946D01*
X209090583Y-92950031D01*
X209083142Y-92962447D01*
X209074519Y-92974073D01*
X209064798Y-92984798D01*
X209054073Y-92994519D01*
X209042447Y-93003142D01*
X209030031Y-93010583D01*
X209016946Y-93016772D01*
X209003317Y-93021649D01*
X208989276Y-93025166D01*
X208974958Y-93027290D01*
X208960500Y-93028000D01*
X208615500Y-93028000D01*
X208601042Y-93027290D01*
X208586724Y-93025166D01*
X208572683Y-93021649D01*
X208559054Y-93016772D01*
X208545969Y-93010583D01*
X208533553Y-93003142D01*
X208521927Y-92994519D01*
X208511202Y-92984798D01*
X208501481Y-92974073D01*
X208492858Y-92962447D01*
X208485417Y-92950031D01*
X208479228Y-92936946D01*
X208474351Y-92923317D01*
X208470834Y-92909276D01*
X208468710Y-92894958D01*
X208468000Y-92880500D01*
X208468000Y-92585500D01*
X208468710Y-92571042D01*
X208470834Y-92556724D01*
X208474351Y-92542683D01*
X208479228Y-92529054D01*
X208485417Y-92515969D01*
X208492858Y-92503553D01*
X208501481Y-92491927D01*
X208511202Y-92481202D01*
X208521927Y-92471481D01*
X208533553Y-92462858D01*
X208545969Y-92455417D01*
X208559054Y-92449228D01*
X208572683Y-92444351D01*
X208586724Y-92440834D01*
X208601042Y-92438710D01*
X208615500Y-92438000D01*
X208960500Y-92438000D01*
X208974958Y-92438710D01*
G37*
G36*
X208974958Y-93408710D02*
G01*
X208989276Y-93410834D01*
X209003317Y-93414351D01*
X209016946Y-93419228D01*
X209030031Y-93425417D01*
X209042447Y-93432858D01*
X209054073Y-93441481D01*
X209064798Y-93451202D01*
X209074519Y-93461927D01*
X209083142Y-93473553D01*
X209090583Y-93485969D01*
X209096772Y-93499054D01*
X209101649Y-93512683D01*
X209105166Y-93526724D01*
X209107290Y-93541042D01*
X209108000Y-93555500D01*
X209108000Y-93850500D01*
X209107290Y-93864958D01*
X209105166Y-93879276D01*
X209101649Y-93893317D01*
X209096772Y-93906946D01*
X209090583Y-93920031D01*
X209083142Y-93932447D01*
X209074519Y-93944073D01*
X209064798Y-93954798D01*
X209054073Y-93964519D01*
X209042447Y-93973142D01*
X209030031Y-93980583D01*
X209016946Y-93986772D01*
X209003317Y-93991649D01*
X208989276Y-93995166D01*
X208974958Y-93997290D01*
X208960500Y-93998000D01*
X208615500Y-93998000D01*
X208601042Y-93997290D01*
X208586724Y-93995166D01*
X208572683Y-93991649D01*
X208559054Y-93986772D01*
X208545969Y-93980583D01*
X208533553Y-93973142D01*
X208521927Y-93964519D01*
X208511202Y-93954798D01*
X208501481Y-93944073D01*
X208492858Y-93932447D01*
X208485417Y-93920031D01*
X208479228Y-93906946D01*
X208474351Y-93893317D01*
X208470834Y-93879276D01*
X208468710Y-93864958D01*
X208468000Y-93850500D01*
X208468000Y-93555500D01*
X208468710Y-93541042D01*
X208470834Y-93526724D01*
X208474351Y-93512683D01*
X208479228Y-93499054D01*
X208485417Y-93485969D01*
X208492858Y-93473553D01*
X208501481Y-93461927D01*
X208511202Y-93451202D01*
X208521927Y-93441481D01*
X208533553Y-93432858D01*
X208545969Y-93425417D01*
X208559054Y-93419228D01*
X208572683Y-93414351D01*
X208586724Y-93410834D01*
X208601042Y-93408710D01*
X208615500Y-93408000D01*
X208960500Y-93408000D01*
X208974958Y-93408710D01*
G37*
G36*
X207704958Y-92438710D02*
G01*
X207719276Y-92440834D01*
X207733317Y-92444351D01*
X207746946Y-92449228D01*
X207760031Y-92455417D01*
X207772447Y-92462858D01*
X207784073Y-92471481D01*
X207794798Y-92481202D01*
X207804519Y-92491927D01*
X207813142Y-92503553D01*
X207820583Y-92515969D01*
X207826772Y-92529054D01*
X207831649Y-92542683D01*
X207835166Y-92556724D01*
X207837290Y-92571042D01*
X207838000Y-92585500D01*
X207838000Y-92880500D01*
X207837290Y-92894958D01*
X207835166Y-92909276D01*
X207831649Y-92923317D01*
X207826772Y-92936946D01*
X207820583Y-92950031D01*
X207813142Y-92962447D01*
X207804519Y-92974073D01*
X207794798Y-92984798D01*
X207784073Y-92994519D01*
X207772447Y-93003142D01*
X207760031Y-93010583D01*
X207746946Y-93016772D01*
X207733317Y-93021649D01*
X207719276Y-93025166D01*
X207704958Y-93027290D01*
X207690500Y-93028000D01*
X207345500Y-93028000D01*
X207331042Y-93027290D01*
X207316724Y-93025166D01*
X207302683Y-93021649D01*
X207289054Y-93016772D01*
X207275969Y-93010583D01*
X207263553Y-93003142D01*
X207251927Y-92994519D01*
X207241202Y-92984798D01*
X207231481Y-92974073D01*
X207222858Y-92962447D01*
X207215417Y-92950031D01*
X207209228Y-92936946D01*
X207204351Y-92923317D01*
X207200834Y-92909276D01*
X207198710Y-92894958D01*
X207198000Y-92880500D01*
X207198000Y-92585500D01*
X207198710Y-92571042D01*
X207200834Y-92556724D01*
X207204351Y-92542683D01*
X207209228Y-92529054D01*
X207215417Y-92515969D01*
X207222858Y-92503553D01*
X207231481Y-92491927D01*
X207241202Y-92481202D01*
X207251927Y-92471481D01*
X207263553Y-92462858D01*
X207275969Y-92455417D01*
X207289054Y-92449228D01*
X207302683Y-92444351D01*
X207316724Y-92440834D01*
X207331042Y-92438710D01*
X207345500Y-92438000D01*
X207690500Y-92438000D01*
X207704958Y-92438710D01*
G37*
G36*
X207704958Y-93408710D02*
G01*
X207719276Y-93410834D01*
X207733317Y-93414351D01*
X207746946Y-93419228D01*
X207760031Y-93425417D01*
X207772447Y-93432858D01*
X207784073Y-93441481D01*
X207794798Y-93451202D01*
X207804519Y-93461927D01*
X207813142Y-93473553D01*
X207820583Y-93485969D01*
X207826772Y-93499054D01*
X207831649Y-93512683D01*
X207835166Y-93526724D01*
X207837290Y-93541042D01*
X207838000Y-93555500D01*
X207838000Y-93850500D01*
X207837290Y-93864958D01*
X207835166Y-93879276D01*
X207831649Y-93893317D01*
X207826772Y-93906946D01*
X207820583Y-93920031D01*
X207813142Y-93932447D01*
X207804519Y-93944073D01*
X207794798Y-93954798D01*
X207784073Y-93964519D01*
X207772447Y-93973142D01*
X207760031Y-93980583D01*
X207746946Y-93986772D01*
X207733317Y-93991649D01*
X207719276Y-93995166D01*
X207704958Y-93997290D01*
X207690500Y-93998000D01*
X207345500Y-93998000D01*
X207331042Y-93997290D01*
X207316724Y-93995166D01*
X207302683Y-93991649D01*
X207289054Y-93986772D01*
X207275969Y-93980583D01*
X207263553Y-93973142D01*
X207251927Y-93964519D01*
X207241202Y-93954798D01*
X207231481Y-93944073D01*
X207222858Y-93932447D01*
X207215417Y-93920031D01*
X207209228Y-93906946D01*
X207204351Y-93893317D01*
X207200834Y-93879276D01*
X207198710Y-93864958D01*
X207198000Y-93850500D01*
X207198000Y-93555500D01*
X207198710Y-93541042D01*
X207200834Y-93526724D01*
X207204351Y-93512683D01*
X207209228Y-93499054D01*
X207215417Y-93485969D01*
X207222858Y-93473553D01*
X207231481Y-93461927D01*
X207241202Y-93451202D01*
X207251927Y-93441481D01*
X207263553Y-93432858D01*
X207275969Y-93425417D01*
X207289054Y-93419228D01*
X207302683Y-93414351D01*
X207316724Y-93410834D01*
X207331042Y-93408710D01*
X207345500Y-93408000D01*
X207690500Y-93408000D01*
X207704958Y-93408710D01*
G37*
G36*
X209990958Y-105600710D02*
G01*
X210005276Y-105602834D01*
X210019317Y-105606351D01*
X210032946Y-105611228D01*
X210046031Y-105617417D01*
X210058447Y-105624858D01*
X210070073Y-105633481D01*
X210080798Y-105643202D01*
X210090519Y-105653927D01*
X210099142Y-105665553D01*
X210106583Y-105677969D01*
X210112772Y-105691054D01*
X210117649Y-105704683D01*
X210121166Y-105718724D01*
X210123290Y-105733042D01*
X210124000Y-105747500D01*
X210124000Y-106042500D01*
X210123290Y-106056958D01*
X210121166Y-106071276D01*
X210117649Y-106085317D01*
X210112772Y-106098946D01*
X210106583Y-106112031D01*
X210099142Y-106124447D01*
X210090519Y-106136073D01*
X210080798Y-106146798D01*
X210070073Y-106156519D01*
X210058447Y-106165142D01*
X210046031Y-106172583D01*
X210032946Y-106178772D01*
X210019317Y-106183649D01*
X210005276Y-106187166D01*
X209990958Y-106189290D01*
X209976500Y-106190000D01*
X209631500Y-106190000D01*
X209617042Y-106189290D01*
X209602724Y-106187166D01*
X209588683Y-106183649D01*
X209575054Y-106178772D01*
X209561969Y-106172583D01*
X209549553Y-106165142D01*
X209537927Y-106156519D01*
X209527202Y-106146798D01*
X209517481Y-106136073D01*
X209508858Y-106124447D01*
X209501417Y-106112031D01*
X209495228Y-106098946D01*
X209490351Y-106085317D01*
X209486834Y-106071276D01*
X209484710Y-106056958D01*
X209484000Y-106042500D01*
X209484000Y-105747500D01*
X209484710Y-105733042D01*
X209486834Y-105718724D01*
X209490351Y-105704683D01*
X209495228Y-105691054D01*
X209501417Y-105677969D01*
X209508858Y-105665553D01*
X209517481Y-105653927D01*
X209527202Y-105643202D01*
X209537927Y-105633481D01*
X209549553Y-105624858D01*
X209561969Y-105617417D01*
X209575054Y-105611228D01*
X209588683Y-105606351D01*
X209602724Y-105602834D01*
X209617042Y-105600710D01*
X209631500Y-105600000D01*
X209976500Y-105600000D01*
X209990958Y-105600710D01*
G37*
G36*
X209990958Y-104630710D02*
G01*
X210005276Y-104632834D01*
X210019317Y-104636351D01*
X210032946Y-104641228D01*
X210046031Y-104647417D01*
X210058447Y-104654858D01*
X210070073Y-104663481D01*
X210080798Y-104673202D01*
X210090519Y-104683927D01*
X210099142Y-104695553D01*
X210106583Y-104707969D01*
X210112772Y-104721054D01*
X210117649Y-104734683D01*
X210121166Y-104748724D01*
X210123290Y-104763042D01*
X210124000Y-104777500D01*
X210124000Y-105072500D01*
X210123290Y-105086958D01*
X210121166Y-105101276D01*
X210117649Y-105115317D01*
X210112772Y-105128946D01*
X210106583Y-105142031D01*
X210099142Y-105154447D01*
X210090519Y-105166073D01*
X210080798Y-105176798D01*
X210070073Y-105186519D01*
X210058447Y-105195142D01*
X210046031Y-105202583D01*
X210032946Y-105208772D01*
X210019317Y-105213649D01*
X210005276Y-105217166D01*
X209990958Y-105219290D01*
X209976500Y-105220000D01*
X209631500Y-105220000D01*
X209617042Y-105219290D01*
X209602724Y-105217166D01*
X209588683Y-105213649D01*
X209575054Y-105208772D01*
X209561969Y-105202583D01*
X209549553Y-105195142D01*
X209537927Y-105186519D01*
X209527202Y-105176798D01*
X209517481Y-105166073D01*
X209508858Y-105154447D01*
X209501417Y-105142031D01*
X209495228Y-105128946D01*
X209490351Y-105115317D01*
X209486834Y-105101276D01*
X209484710Y-105086958D01*
X209484000Y-105072500D01*
X209484000Y-104777500D01*
X209484710Y-104763042D01*
X209486834Y-104748724D01*
X209490351Y-104734683D01*
X209495228Y-104721054D01*
X209501417Y-104707969D01*
X209508858Y-104695553D01*
X209517481Y-104683927D01*
X209527202Y-104673202D01*
X209537927Y-104663481D01*
X209549553Y-104654858D01*
X209561969Y-104647417D01*
X209575054Y-104641228D01*
X209588683Y-104636351D01*
X209602724Y-104632834D01*
X209617042Y-104630710D01*
X209631500Y-104630000D01*
X209976500Y-104630000D01*
X209990958Y-104630710D01*
G37*
D22*
X226802000Y-75946000D03*
X249702000Y-75946000D03*
D23*
X238252000Y-75946000D03*
M02*
